<?xml version="1.0" standalone="no"?>
<!DOCTYPE svg PUBLIC "-//W3C//DTD SVG 1.1//EN" "http://www.w3.org/Graphics/SVG/1.1/DTD/svg11.dtd">
<svg width="100%" height="100%" viewBox="0 0 400 413" version="1.1" xmlns="http://www.w3.org/2000/svg" xmlns:xlink="http://www.w3.org/1999/xlink" xml:space="preserve" style="fill-rule:evenodd;clip-rule:evenodd;stroke-linejoin:round;stroke-miterlimit:1.41421;">
    <g transform="matrix(1,0,0,1,-38.3264,-55.0494)">
        <g transform="matrix(1,0,0,1,82.7181,89.1677)">
            <g transform="matrix(0.337127,0,9.24446e-33,0.337127,-1734.05,-609.681)">
                <path d="M6132,2400C6132,2693.82 5893.81,2932 5600,2932C5306.18,2932 5068,2693.82 5068,2400C5068,2106.18 5306.18,1868 5600,1868C5893.81,1868 6132,2106.18 6132,2400Z" style="fill:rgb(20,90,138);fill-rule:nonzero;"/>
            </g>
            <g transform="matrix(0.337127,0,9.24446e-33,0.337127,-1734.05,-609.681)">
                <path d="M6198.45,2498.27C6198.45,2511.13 6188.02,2521.57 6175.16,2521.57L5614.04,2521.57C5601.17,2521.57 5590.74,2511.13 5590.74,2498.27L5590.74,2084.71C5590.74,2071.84 5601.17,2061.41 5614.04,2061.41L6175.16,2061.41C6188.02,2061.41 6198.45,2071.84 6198.45,2084.71L6198.45,2498.27Z" style="fill:rgb(222,222,221);fill-rule:nonzero;"/>
            </g>
            <g transform="matrix(0.337127,0,9.24446e-33,0.337127,-1734.05,-609.681)">
                <path d="M6175.16,2061.41L5614.04,2061.41C5601.17,2061.41 5590.74,2071.84 5590.74,2084.71L5590.74,2174.99L6198.45,2174.99L6198.45,2084.71C6198.45,2071.84 6188.02,2061.41 6175.16,2061.41Z" style="fill:rgb(231,76,60);fill-rule:nonzero;"/>
            </g>
            <g transform="matrix(0.337127,0,9.24446e-33,0.337127,-1734.05,-609.681)">
                <path d="M6102.02,2082.12C6102.02,2088.55 6096.81,2093.77 6090.38,2093.77C6083.94,2093.77 6078.72,2088.55 6078.72,2082.12C6078.72,2075.69 6083.94,2070.47 6090.38,2070.47C6096.81,2070.47 6102.02,2075.69 6102.02,2082.12Z" style="fill:rgb(241,98,82);fill-rule:nonzero;"/>
            </g>
            <g transform="matrix(0.337127,0,9.24446e-33,0.337127,-1734.05,-609.681)">
                <path d="M6140.53,2082.12C6140.53,2088.55 6135.31,2093.77 6128.88,2093.77C6122.45,2093.77 6117.23,2088.55 6117.23,2082.12C6117.23,2075.69 6122.45,2070.47 6128.88,2070.47C6135.31,2070.47 6140.53,2075.69 6140.53,2082.12Z" style="fill:rgb(20,120,190);fill-rule:nonzero;"/>
            </g>
            <g transform="matrix(0.337127,0,9.24446e-33,0.337127,-1734.05,-609.681)">
                <path d="M6180.66,2082.12C6180.66,2088.55 6175.44,2093.77 6169.01,2093.77C6162.57,2093.77 6157.36,2088.55 6157.36,2082.12C6157.36,2075.69 6162.57,2070.47 6169.01,2070.47C6175.44,2070.47 6180.66,2075.69 6180.66,2082.12Z" style="fill:rgb(240,196,24);fill-rule:nonzero;"/>
            </g>
            <g transform="matrix(0.337127,0,9.24446e-33,0.337127,-1734.05,-609.681)">
                <path d="M6047.01,2100.16C6047.01,2110.12 6038.93,2118.2 6028.97,2118.2L5673.82,2118.2C5663.85,2118.2 5655.78,2110.12 5655.78,2100.16C5655.78,2090.19 5663.85,2082.12 5673.82,2082.12L6028.97,2082.12C6038.93,2082.12 6047.01,2090.19 6047.01,2100.16Z" style="fill:rgb(226,225,224);fill-rule:nonzero;"/>
            </g>
            <g transform="matrix(0.337127,0,9.24446e-33,0.337127,-1734.05,-609.681)">
                <rect x="5620.83" y="2196.35" width="362.43" height="183.81" style="fill:rgb(237,238,238);fill-rule:nonzero;"/>
            </g>
            <g transform="matrix(0.337127,0,9.24446e-33,0.337127,-1734.05,-609.681)">
                <rect x="5620.83" y="2413.82" width="274.09" height="33.64" style="fill:rgb(236,205,77);fill-rule:nonzero;"/>
            </g>
            <g transform="matrix(0.337127,0,9.24446e-33,0.337127,-1734.05,-609.681)">
                <rect x="5620.5" y="2462.99" width="274.42" height="33.66" style="fill:rgb(236,205,77);fill-rule:nonzero;"/>
            </g>
            <g transform="matrix(0.337127,0,9.24446e-33,0.337127,-1734.05,-609.681)">
                <path d="M6175.16,2521.57L6118.04,2521.57L5894.92,2521.57L5894.92,2496.65L6168.68,2496.65L6168.68,2462.99L5894.92,2462.99L5894.92,2447.46L6169.01,2447.46L6169.01,2413.82L5894.92,2413.82L5894.92,2380.16L5983.26,2380.16L5983.26,2196.35L5894.92,2196.35L5894.92,2174.99L6198.45,2174.99L6198.45,2498.27C6198.45,2511.13 6188.02,2521.57 6175.16,2521.57Z" style="fill:rgb(208,208,209);fill-rule:nonzero;"/>
            </g>
            <g transform="matrix(0.337127,0,9.24446e-33,0.337127,-1734.05,-609.681)">
                <path d="M6198.45,2174.99L5894.92,2174.99L5894.92,2172.42C5908.15,2160.08 5923.25,2142.67 5940.04,2118.2L6028.97,2118.2C6038.93,2118.2 6047.01,2110.12 6047.01,2100.16C6047.01,2090.19 6038.93,2082.12 6028.97,2082.12L5963.09,2082.12C5967.07,2075.57 5971.2,2068.63 5975.43,2061.41L6175.16,2061.41C6188.02,2061.41 6198.45,2071.84 6198.45,2084.71L6198.45,2174.99ZM6169.01,2070.47C6162.57,2070.47 6157.36,2075.69 6157.36,2082.12C6157.36,2088.55 6162.57,2093.77 6169.01,2093.77C6175.44,2093.77 6180.66,2088.55 6180.66,2082.12C6180.66,2075.69 6175.44,2070.47 6169.01,2070.47ZM6128.88,2070.47C6122.45,2070.47 6117.23,2075.69 6117.23,2082.12C6117.23,2088.55 6122.45,2093.77 6128.88,2093.77C6135.31,2093.77 6140.53,2088.55 6140.53,2082.12C6140.53,2075.69 6135.31,2070.47 6128.88,2070.47ZM6090.38,2070.47C6083.94,2070.47 6078.72,2075.69 6078.72,2082.12C6078.72,2088.55 6083.94,2093.77 6090.38,2093.77C6096.81,2093.77 6102.02,2088.55 6102.02,2082.12C6102.02,2075.69 6096.81,2070.47 6090.38,2070.47Z" style="fill:rgb(218,72,56);fill-rule:nonzero;"/>
            </g>
            <g transform="matrix(0.337127,0,9.24446e-33,0.337127,-1734.05,-609.681)">
                <path d="M6090.38,2093.77C6083.94,2093.77 6078.72,2088.55 6078.72,2082.12C6078.72,2075.69 6083.94,2070.47 6090.38,2070.47C6096.81,2070.47 6102.02,2075.69 6102.02,2082.12C6102.02,2088.55 6096.81,2093.77 6090.38,2093.77Z" style="fill:rgb(241,92,74);fill-rule:nonzero;"/>
            </g>
            <g transform="matrix(0.337127,0,9.24446e-33,0.337127,-1734.05,-609.681)">
                <path d="M6128.88,2093.77C6122.45,2093.77 6117.23,2088.55 6117.23,2082.12C6117.23,2075.69 6122.45,2070.47 6128.88,2070.47C6135.31,2070.47 6140.53,2075.69 6140.53,2082.12C6140.53,2088.55 6135.31,2093.77 6128.88,2093.77Z" style="fill:rgb(12,113,183);fill-rule:nonzero;"/>
            </g>
            <g transform="matrix(0.337127,0,9.24446e-33,0.337127,-1734.05,-609.681)">
                <path d="M6169.01,2093.77C6162.57,2093.77 6157.36,2088.55 6157.36,2082.12C6157.36,2075.69 6162.57,2070.47 6169.01,2070.47C6175.44,2070.47 6180.66,2075.69 6180.66,2082.12C6180.66,2088.55 6175.44,2093.77 6169.01,2093.77Z" style="fill:rgb(226,184,35);fill-rule:nonzero;"/>
            </g>
            <g transform="matrix(0.337127,0,9.24446e-33,0.337127,-1734.05,-609.681)">
                <path d="M6028.97,2118.2L5940.04,2118.2C5942.93,2114 5945.87,2109.59 5948.85,2104.96C5953.34,2097.99 5958.1,2090.35 5963.09,2082.12L6028.97,2082.12C6038.93,2082.12 6047.01,2090.19 6047.01,2100.16C6047.01,2110.12 6038.93,2118.2 6028.97,2118.2Z" style="fill:rgb(213,212,211);fill-rule:nonzero;"/>
            </g>
            <g transform="matrix(0.337127,0,9.24446e-33,0.337127,-1734.05,-609.681)">
                <rect x="5894.92" y="2196.35" width="88.34" height="183.81" style="fill:rgb(224,224,223);fill-rule:nonzero;"/>
            </g>
            <g transform="matrix(0.337127,0,9.24446e-33,0.337127,-1734.05,-609.681)">
                <rect x="5894.92" y="2413.82" width="274.09" height="33.64" style="fill:rgb(221,192,71);fill-rule:nonzero;"/>
            </g>
            <g transform="matrix(0.337127,0,9.24446e-33,0.337127,-1734.05,-609.681)">
                <rect x="5894.92" y="2462.99" width="273.76" height="33.66" style="fill:rgb(221,192,71);fill-rule:nonzero;"/>
            </g>
            <g transform="matrix(0.337127,0,9.24446e-33,0.337127,-1734.05,-609.681)">
                <path d="M5095.87,2037.9L5095.87,2701.15L5575.93,2701.15L5575.93,2149.4L5469.19,2037.9L5095.87,2037.9Z" style="fill:rgb(137,208,199);fill-rule:nonzero;"/>
            </g>
            <g transform="matrix(0.337127,0,9.24446e-33,0.337127,-1734.05,-609.681)">
                <path d="M5579.54,2254.43L5575.93,2250.81L5575.93,2149.4L5564.81,2137.78L5579.54,2146.08L5579.54,2254.43Z" style="fill:rgb(18,81,124);fill-rule:nonzero;"/>
            </g>
            <g transform="matrix(0.337127,0,9.24446e-33,0.337127,-1734.05,-609.681)">
                <path d="M5575.93,2250.81L5471.2,2146.08L5501,2101.84L5564.81,2137.78L5575.93,2149.4L5575.93,2250.81Z" style="fill:rgb(113,201,187);fill-rule:nonzero;"/>
            </g>
            <g transform="matrix(0.337127,0,9.24446e-33,0.337127,-1734.05,-609.681)">
                <path d="M5575.93,2149.39L5469.19,2151.07L5469.19,2037.9L5575.93,2149.39Z" style="fill:rgb(244,245,246);fill-rule:nonzero;"/>
            </g>
            <g transform="matrix(0.337127,0,9.24446e-33,0.337127,-1734.05,-609.681)">
                <path d="M5266.04,2263.31L5251.31,2283.24L5231.37,2268.52L5246.09,2248.58L5266.04,2263.31ZM5223.13,2269.75L5252.55,2291.48L5274.28,2262.06L5244.86,2240.33L5223.13,2269.75Z" style="fill:rgb(22,63,109);fill-rule:nonzero;"/>
            </g>
            <g transform="matrix(0.337127,0,9.24446e-33,0.337127,-1734.05,-609.681)">
                <path d="M5425.47,2381.08L5410.75,2401.02L5390.81,2386.29L5405.53,2366.35L5425.47,2381.08ZM5382.56,2387.53L5411.99,2409.26L5433.72,2379.84L5404.3,2358.1L5382.56,2387.53Z" style="fill:rgb(22,63,109);fill-rule:nonzero;"/>
            </g>
            <g transform="matrix(0.337127,0,9.24446e-33,0.337127,-1734.05,-609.681)">
                <path d="M5392.77,2395.07C5360.17,2424.86 5310.06,2428.48 5273.2,2401.26C5236.35,2374.03 5225.08,2325.07 5243.97,2285.16L5235.71,2279.06C5213.6,2323.58 5225.8,2378.86 5267.17,2409.42C5308.55,2439.99 5364.97,2435.4 5401.02,2401.16L5392.77,2395.07Z" style="fill:rgb(29,29,30);fill-rule:nonzero;"/>
            </g>
            <g transform="matrix(0.337127,0,9.24446e-33,0.337127,-1734.05,-609.681)">
                <path d="M5257.45,2249.64L5265.7,2255.73C5298.29,2225.94 5348.4,2222.32 5385.27,2249.55C5422.12,2276.77 5433.39,2325.74 5414.5,2365.65L5422.76,2371.74C5444.87,2327.22 5432.68,2271.94 5391.3,2241.38C5349.92,2210.81 5293.5,2215.4 5257.45,2249.64Z" style="fill:rgb(29,29,30);fill-rule:nonzero;"/>
            </g>
            <g transform="matrix(0.337127,0,9.24446e-33,0.337127,-1734.05,-609.681)">
                <rect x="5280.15" y="2539.39" width="798.13" height="300.36" style="fill:rgb(222,222,221);"/>
            </g>
            <g transform="matrix(0.337127,0,9.24446e-33,0.337127,-1734.05,-609.681)">
                <path d="M5358.97,2624.45L5323.55,2624.45C5321.45,2624.45 5319.72,2622.21 5319.72,2619.51L5319.72,2581.37C5319.72,2578.68 5321.45,2576.44 5323.55,2576.44L5358.97,2576.44C5361.07,2576.44 5362.72,2578.68 5362.72,2581.37L5362.72,2619.51C5362.72,2622.21 5361.07,2624.45 5358.97,2624.45Z" style="fill:rgb(170,171,171);fill-rule:nonzero;"/>
            </g>
            <g transform="matrix(0.337127,0,9.24446e-33,0.337127,-1734.05,-609.681)">
                <path d="M5416.43,2624.45L5381.02,2624.45C5378.93,2624.45 5377.18,2622.21 5377.18,2619.51L5377.18,2581.37C5377.18,2578.68 5378.93,2576.44 5381.02,2576.44L5416.43,2576.44C5418.53,2576.44 5420.26,2578.68 5420.26,2581.37L5420.26,2619.51C5420.26,2622.21 5418.53,2624.45 5416.43,2624.45Z" style="fill:rgb(170,171,171);fill-rule:nonzero;"/>
            </g>
            <g transform="matrix(0.337127,0,9.24446e-33,0.337127,-1734.05,-609.681)">
                <path d="M5473.9,2624.45L5438.56,2624.45C5436.46,2624.45 5434.71,2622.21 5434.71,2619.51L5434.71,2581.37C5434.71,2578.68 5436.46,2576.44 5438.56,2576.44L5473.9,2576.44C5476,2576.44 5477.73,2578.68 5477.73,2581.37L5477.73,2619.51C5477.73,2622.21 5476,2624.45 5473.9,2624.45Z" style="fill:rgb(170,171,171);fill-rule:nonzero;"/>
            </g>
            <g transform="matrix(0.337127,0,9.24446e-33,0.337127,-1734.05,-609.681)">
                <path d="M5531.37,2624.45L5496.02,2624.45C5493.92,2624.45 5492.19,2622.21 5492.19,2619.51L5492.19,2581.37C5492.19,2578.68 5493.92,2576.44 5496.02,2576.44L5531.37,2576.44C5533.53,2576.44 5535.19,2578.68 5535.19,2581.37L5535.19,2619.51C5535.19,2622.21 5533.53,2624.45 5531.37,2624.45Z" style="fill:rgb(170,171,171);fill-rule:nonzero;"/>
            </g>
            <g transform="matrix(0.337127,0,9.24446e-33,0.337127,-1734.05,-609.681)">
                <path d="M5588.91,2624.45L5553.49,2624.45C5551.39,2624.45 5549.65,2622.21 5549.65,2619.51L5549.65,2581.37C5549.65,2578.68 5551.39,2576.44 5553.49,2576.44L5588.91,2576.44C5591,2576.44 5592.73,2578.68 5592.73,2581.37L5592.73,2619.51C5592.73,2622.21 5591,2624.45 5588.91,2624.45Z" style="fill:rgb(170,171,171);fill-rule:nonzero;"/>
            </g>
            <g transform="matrix(0.337127,0,9.24446e-33,0.337127,-1734.05,-609.681)">
                <path d="M5646.37,2624.45L5611.02,2624.45C5608.92,2624.45 5607.19,2622.21 5607.19,2619.51L5607.19,2581.37C5607.19,2578.68 5608.92,2576.44 5611.02,2576.44L5646.37,2576.44C5648.47,2576.44 5650.2,2578.68 5650.2,2581.37L5650.2,2619.51C5650.2,2622.21 5648.47,2624.45 5646.37,2624.45Z" style="fill:rgb(170,171,171);fill-rule:nonzero;"/>
            </g>
            <g transform="matrix(0.337127,0,9.24446e-33,0.337127,-1734.05,-609.681)">
                <path d="M5703.83,2624.45L5668.49,2624.45C5666.39,2624.45 5664.66,2622.21 5664.66,2619.51L5664.66,2581.37C5664.66,2578.68 5666.39,2576.44 5668.49,2576.44L5703.83,2576.44C5706,2576.44 5707.67,2578.68 5707.67,2581.37L5707.67,2619.51C5707.67,2622.21 5706,2624.45 5703.83,2624.45Z" style="fill:rgb(170,171,171);fill-rule:nonzero;"/>
            </g>
            <g transform="matrix(0.337127,0,9.24446e-33,0.337127,-1734.05,-609.681)">
                <path d="M5761.38,2624.45L5725.94,2624.45C5723.85,2624.45 5722.12,2622.21 5722.12,2619.51L5722.12,2581.37C5722.12,2578.68 5723.85,2576.44 5725.94,2576.44L5761.38,2576.44C5763.46,2576.44 5765.2,2578.68 5765.2,2581.37L5765.2,2619.51C5765.2,2622.21 5763.46,2624.45 5761.38,2624.45Z" style="fill:rgb(170,171,171);fill-rule:nonzero;"/>
            </g>
            <g transform="matrix(0.337127,0,9.24446e-33,0.337127,-1734.05,-609.681)">
                <path d="M5818.83,2624.45L5783.49,2624.45C5781.31,2624.45 5779.66,2622.21 5779.66,2619.51L5779.66,2581.37C5779.66,2578.68 5781.31,2576.44 5783.49,2576.44L5818.83,2576.44C5820.94,2576.44 5822.67,2578.68 5822.67,2581.37L5822.67,2619.51C5822.67,2622.21 5820.94,2624.45 5818.83,2624.45Z" style="fill:rgb(170,171,171);fill-rule:nonzero;"/>
            </g>
            <g transform="matrix(0.337127,0,9.24446e-33,0.337127,-1734.05,-609.681)">
                <path d="M5876.3,2624.45L5840.96,2624.45C5838.86,2624.45 5837.12,2622.21 5837.12,2619.51L5837.12,2581.37C5837.12,2578.68 5838.86,2576.44 5840.96,2576.44L5876.3,2576.44C5878.48,2576.44 5880.14,2578.68 5880.14,2581.37L5880.14,2619.51C5880.14,2622.21 5878.48,2624.45 5876.3,2624.45Z" style="fill:rgb(170,171,171);fill-rule:nonzero;"/>
            </g>
            <g transform="matrix(0.337127,0,9.24446e-33,0.337127,-1734.05,-609.681)">
                <path d="M5933.85,2624.45L5898.42,2624.45C5896.33,2624.45 5894.59,2622.21 5894.59,2619.51L5894.59,2581.37C5894.59,2578.68 5896.33,2576.44 5898.42,2576.44L5933.85,2576.44C5935.94,2576.44 5937.66,2578.68 5937.66,2581.37L5937.66,2619.51C5937.66,2622.21 5935.94,2624.45 5933.85,2624.45Z" style="fill:rgb(170,171,171);fill-rule:nonzero;"/>
            </g>
            <g transform="matrix(0.337127,0,9.24446e-33,0.337127,-1734.05,-609.681)">
                <path d="M5445.21,2691.06L5409.85,2691.06C5407.76,2691.06 5406.03,2688.83 5406.03,2686.13L5406.03,2647.99C5406.03,2645.29 5407.76,2643.07 5409.85,2643.07L5445.21,2643.07C5447.3,2643.07 5449.04,2645.29 5449.04,2647.99L5449.04,2686.13C5449.04,2688.83 5447.3,2691.06 5445.21,2691.06Z" style="fill:rgb(170,171,171);fill-rule:nonzero;"/>
            </g>
            <g transform="matrix(0.337127,0,9.24446e-33,0.337127,-1734.05,-609.681)">
                <path d="M5502.74,2691.06L5467.32,2691.06C5465.22,2691.06 5463.49,2688.83 5463.49,2686.13L5463.49,2647.99C5463.49,2645.29 5465.22,2643.07 5467.32,2643.07L5502.74,2643.07C5504.84,2643.07 5506.57,2645.29 5506.57,2647.99L5506.57,2686.13C5506.57,2688.83 5504.84,2691.06 5502.74,2691.06Z" style="fill:rgb(170,171,171);fill-rule:nonzero;"/>
            </g>
            <g transform="matrix(0.337127,0,9.24446e-33,0.337127,-1734.05,-609.681)">
                <path d="M5560.21,2691.06L5524.79,2691.06C5522.69,2691.06 5521.03,2688.83 5521.03,2686.13L5521.03,2647.99C5521.03,2645.29 5522.69,2643.07 5524.79,2643.07L5560.21,2643.07C5562.3,2643.07 5564.04,2645.29 5564.04,2647.99L5564.04,2686.13C5564.04,2688.83 5562.3,2691.06 5560.21,2691.06Z" style="fill:rgb(170,171,171);fill-rule:nonzero;"/>
            </g>
            <g transform="matrix(0.337127,0,9.24446e-33,0.337127,-1734.05,-609.681)">
                <path d="M5617.67,2691.06L5582.32,2691.06C5580.23,2691.06 5578.5,2688.83 5578.5,2686.13L5578.5,2647.99C5578.5,2645.29 5580.23,2643.07 5582.32,2643.07L5617.67,2643.07C5619.77,2643.07 5621.5,2645.29 5621.5,2647.99L5621.5,2686.13C5621.5,2688.83 5619.77,2691.06 5617.67,2691.06Z" style="fill:rgb(170,171,171);fill-rule:nonzero;"/>
            </g>
            <g transform="matrix(0.337127,0,9.24446e-33,0.337127,-1734.05,-609.681)">
                <path d="M5675.21,2691.06L5639.79,2691.06C5637.69,2691.06 5635.97,2688.83 5635.97,2686.13L5635.97,2647.99C5635.97,2645.29 5637.69,2643.07 5639.79,2643.07L5675.21,2643.07C5677.3,2643.07 5678.97,2645.29 5678.97,2647.99L5678.97,2686.13C5678.97,2688.83 5677.3,2691.06 5675.21,2691.06Z" style="fill:rgb(170,171,171);fill-rule:nonzero;"/>
            </g>
            <g transform="matrix(0.337127,0,9.24446e-33,0.337127,-1734.05,-609.681)">
                <path d="M5732.68,2691.06L5697.26,2691.06C5695.16,2691.06 5693.42,2688.83 5693.42,2686.13L5693.42,2647.99C5693.42,2645.29 5695.16,2643.07 5697.26,2643.07L5732.68,2643.07C5734.78,2643.07 5736.51,2645.29 5736.51,2647.99L5736.51,2686.13C5736.51,2688.83 5734.78,2691.06 5732.68,2691.06Z" style="fill:rgb(170,171,171);fill-rule:nonzero;"/>
            </g>
            <g transform="matrix(0.337127,0,9.24446e-33,0.337127,-1734.05,-609.681)">
                <path d="M5790.14,2691.06L5754.79,2691.06C5752.69,2691.06 5750.96,2688.83 5750.96,2686.13L5750.96,2647.99C5750.96,2645.29 5752.69,2643.07 5754.79,2643.07L5790.14,2643.07C5792.24,2643.07 5793.96,2645.29 5793.96,2647.99L5793.96,2686.13C5793.96,2688.83 5792.24,2691.06 5790.14,2691.06Z" style="fill:rgb(170,171,171);fill-rule:nonzero;"/>
            </g>
            <g transform="matrix(0.337127,0,9.24446e-33,0.337127,-1734.05,-609.681)">
                <path d="M5847.68,2691.06L5812.25,2691.06C5810.16,2691.06 5808.43,2688.83 5808.43,2686.13L5808.43,2647.99C5808.43,2645.29 5810.16,2643.07 5812.25,2643.07L5847.68,2643.07C5849.77,2643.07 5851.44,2645.29 5851.44,2647.99L5851.44,2686.13C5851.44,2688.83 5849.77,2691.06 5847.68,2691.06Z" style="fill:rgb(170,171,171);fill-rule:nonzero;"/>
            </g>
            <g transform="matrix(0.337127,0,9.24446e-33,0.337127,-1734.05,-609.681)">
                <path d="M5905.14,2691.06L5869.72,2691.06C5867.63,2691.06 5865.88,2688.83 5865.88,2686.13L5865.88,2647.99C5865.88,2645.29 5867.63,2643.07 5869.72,2643.07L5905.14,2643.07C5907.24,2643.07 5908.97,2645.29 5908.97,2647.99L5908.97,2686.13C5908.97,2688.83 5907.24,2691.06 5905.14,2691.06Z" style="fill:rgb(170,171,171);fill-rule:nonzero;"/>
            </g>
            <g transform="matrix(0.337127,0,9.24446e-33,0.337127,-1734.05,-609.681)">
                <path d="M5962.62,2691.06L5927.25,2691.06C5925.17,2691.06 5923.43,2688.83 5923.43,2686.13L5923.43,2647.99C5923.43,2645.29 5925.17,2643.07 5927.25,2643.07L5962.62,2643.07C5964.71,2643.07 5966.44,2645.29 5966.44,2647.99L5966.44,2686.13C5966.44,2688.83 5964.71,2691.06 5962.62,2691.06Z" style="fill:rgb(170,171,171);fill-rule:nonzero;"/>
            </g>
            <g transform="matrix(0.337127,0,9.24446e-33,0.337127,-1734.05,-609.681)">
                <path d="M5991.3,2624.45L5955.96,2624.45C5953.8,2624.45 5952.12,2622.21 5952.12,2619.51L5952.12,2581.37C5952.12,2578.68 5953.8,2576.44 5955.96,2576.44L5991.3,2576.44C5993.39,2576.44 5995.14,2578.68 5995.14,2581.37L5995.14,2619.51C5995.14,2622.21 5993.39,2624.45 5991.3,2624.45Z" style="fill:rgb(170,171,171);fill-rule:nonzero;"/>
            </g>
            <g transform="matrix(0.337127,0,9.24446e-33,0.337127,-1734.05,-609.681)">
                <path d="M6048.78,2624.45L6013.42,2624.45C6011.33,2624.45 6009.59,2622.21 6009.59,2619.51L6009.59,2581.37C6009.59,2578.68 6011.33,2576.44 6013.42,2576.44L6048.78,2576.44C6050.86,2576.44 6052.6,2578.68 6052.6,2581.37L6052.6,2619.51C6052.6,2622.21 6050.86,2624.45 6048.78,2624.45Z" style="fill:rgb(170,171,171);fill-rule:nonzero;"/>
            </g>
            <g transform="matrix(0.337127,0,9.24446e-33,0.337127,-1734.05,-609.681)">
                <path d="M6048.78,2691.06L5985.67,2691.06C5983.58,2691.06 5981.83,2688.83 5981.83,2686.13L5981.83,2647.99C5981.83,2645.29 5983.58,2643.07 5985.67,2643.07L6048.78,2643.07C6050.86,2643.07 6052.6,2645.29 6052.6,2647.99L6052.6,2686.13C6052.6,2688.83 6050.86,2691.06 6048.78,2691.06Z" style="fill:rgb(170,171,171);fill-rule:nonzero;"/>
            </g>
            <g transform="matrix(0.337127,0,9.24446e-33,0.337127,-1734.05,-609.681)">
                <path d="M5389.62,2691.06L5324.13,2691.06C5321.95,2691.06 5320.3,2688.83 5320.3,2686.13L5320.3,2647.99C5320.3,2645.29 5321.95,2643.07 5324.13,2643.07L5389.62,2643.07C5391.71,2643.07 5393.45,2645.29 5393.45,2647.99L5393.45,2686.13C5393.45,2688.83 5391.71,2691.06 5389.62,2691.06Z" style="fill:rgb(170,171,171);fill-rule:nonzero;"/>
            </g>
            <g transform="matrix(0.337127,0,9.24446e-33,0.337127,-1734.05,-609.681)">
                <path d="M5402.34,2757.68L5324.13,2757.68C5321.95,2757.68 5320.3,2755.46 5320.3,2752.75L5320.3,2714.6C5320.3,2711.91 5321.95,2709.68 5324.13,2709.68L5402.34,2709.68C5404.43,2709.68 5406.17,2711.91 5406.17,2714.6L5406.17,2752.75C5406.17,2755.46 5404.43,2757.68 5402.34,2757.68Z" style="fill:rgb(170,171,171);fill-rule:nonzero;"/>
            </g>
            <g transform="matrix(0.337127,0,9.24446e-33,0.337127,-1734.05,-609.681)">
                <path d="M5359.41,2824.3L5324.13,2824.3C5321.95,2824.3 5320.3,2822.08 5320.3,2819.38L5320.3,2781.22C5320.3,2778.53 5321.95,2776.3 5324.13,2776.3L5359.41,2776.3C5361.5,2776.3 5363.23,2778.53 5363.23,2781.22L5363.23,2819.38C5363.23,2822.08 5361.5,2824.3 5359.41,2824.3Z" style="fill:rgb(170,171,171);fill-rule:nonzero;"/>
            </g>
            <g transform="matrix(0.337127,0,9.24446e-33,0.337127,-1734.05,-609.681)">
                <path d="M5416.79,2824.3L5381.52,2824.3C5379.43,2824.3 5377.69,2822.08 5377.69,2819.38L5377.69,2781.22C5377.69,2778.53 5379.43,2776.3 5381.52,2776.3L5416.79,2776.3C5418.88,2776.3 5420.62,2778.53 5420.62,2781.22L5420.62,2819.38C5420.62,2822.08 5418.88,2824.3 5416.79,2824.3Z" style="fill:rgb(170,171,171);fill-rule:nonzero;"/>
            </g>
            <g transform="matrix(0.337127,0,9.24446e-33,0.337127,-1734.05,-609.681)">
                <path d="M5474.19,2824.3L5438.91,2824.3C5436.82,2824.3 5435.09,2822.08 5435.09,2819.38L5435.09,2781.22C5435.09,2778.53 5436.82,2776.3 5438.91,2776.3L5474.19,2776.3C5476.37,2776.3 5478.03,2778.53 5478.03,2781.22L5478.03,2819.38C5478.03,2822.08 5476.37,2824.3 5474.19,2824.3Z" style="fill:rgb(170,171,171);fill-rule:nonzero;"/>
            </g>
            <g transform="matrix(0.337127,0,9.24446e-33,0.337127,-1734.05,-609.681)">
                <path d="M5863.87,2824.3L5496.31,2824.3C5494.22,2824.3 5492.47,2822.08 5492.47,2819.38L5492.47,2781.22C5492.47,2778.53 5494.22,2776.3 5496.31,2776.3L5863.87,2776.3C5866.03,2776.3 5867.71,2778.53 5867.71,2781.22L5867.71,2819.38C5867.71,2822.08 5866.03,2824.3 5863.87,2824.3Z" style="fill:rgb(170,171,171);fill-rule:nonzero;"/>
            </g>
            <g transform="matrix(0.337127,0,9.24446e-33,0.337127,-1734.05,-609.681)">
                <path d="M5458.93,2758.34L5423.59,2758.34C5421.48,2758.34 5419.75,2756.11 5419.75,2753.41L5419.75,2715.26C5419.75,2712.56 5421.48,2710.33 5423.59,2710.33L5458.93,2710.33C5461.04,2710.33 5462.77,2712.56 5462.77,2715.26L5462.77,2753.41C5462.77,2756.11 5461.04,2758.34 5458.93,2758.34Z" style="fill:rgb(170,171,171);fill-rule:nonzero;"/>
            </g>
            <g transform="matrix(0.337127,0,9.24446e-33,0.337127,-1734.05,-609.681)">
                <path d="M5516.48,2758.34L5481.05,2758.34C5478.96,2758.34 5477.23,2756.11 5477.23,2753.41L5477.23,2715.26C5477.23,2712.56 5478.96,2710.33 5481.05,2710.33L5516.48,2710.33C5518.57,2710.33 5520.31,2712.56 5520.31,2715.26L5520.31,2753.41C5520.31,2756.11 5518.57,2758.34 5516.48,2758.34Z" style="fill:rgb(170,171,171);fill-rule:nonzero;"/>
            </g>
            <g transform="matrix(0.337127,0,9.24446e-33,0.337127,-1734.05,-609.681)">
                <path d="M5573.95,2758.34L5538.52,2758.34C5536.42,2758.34 5534.76,2756.11 5534.76,2753.41L5534.76,2715.26C5534.76,2712.56 5536.42,2710.33 5538.52,2710.33L5573.95,2710.33C5576.03,2710.33 5577.77,2712.56 5577.77,2715.26L5577.77,2753.41C5577.77,2756.11 5576.03,2758.34 5573.95,2758.34Z" style="fill:rgb(170,171,171);fill-rule:nonzero;"/>
            </g>
            <g transform="matrix(0.337127,0,9.24446e-33,0.337127,-1734.05,-609.681)">
                <path d="M5631.41,2758.34L5596.05,2758.34C5593.96,2758.34 5592.23,2756.11 5592.23,2753.41L5592.23,2715.26C5592.23,2712.56 5593.96,2710.33 5596.05,2710.33L5631.41,2710.33C5633.5,2710.33 5635.23,2712.56 5635.23,2715.26L5635.23,2753.41C5635.23,2756.11 5633.5,2758.34 5631.41,2758.34Z" style="fill:rgb(170,171,171);fill-rule:nonzero;"/>
            </g>
            <g transform="matrix(0.337127,0,9.24446e-33,0.337127,-1734.05,-609.681)">
                <path d="M5688.95,2758.34L5653.52,2758.34C5651.43,2758.34 5649.69,2756.11 5649.69,2753.41L5649.69,2715.26C5649.69,2712.56 5651.43,2710.33 5653.52,2710.33L5688.95,2710.33C5691.04,2710.33 5692.7,2712.56 5692.7,2715.26L5692.7,2753.41C5692.7,2756.11 5691.04,2758.34 5688.95,2758.34Z" style="fill:rgb(170,171,171);fill-rule:nonzero;"/>
            </g>
            <g transform="matrix(0.337127,0,9.24446e-33,0.337127,-1734.05,-609.681)">
                <path d="M5746.41,2758.34L5710.99,2758.34C5708.89,2758.34 5707.16,2756.11 5707.16,2753.41L5707.16,2715.26C5707.16,2712.56 5708.89,2710.33 5710.99,2710.33L5746.41,2710.33C5748.5,2710.33 5750.25,2712.56 5750.25,2715.26L5750.25,2753.41C5750.25,2756.11 5748.5,2758.34 5746.41,2758.34Z" style="fill:rgb(170,171,171);fill-rule:nonzero;"/>
            </g>
            <g transform="matrix(0.337127,0,9.24446e-33,0.337127,-1734.05,-609.681)">
                <path d="M5803.87,2758.34L5768.53,2758.34C5766.42,2758.34 5764.69,2756.11 5764.69,2753.41L5764.69,2715.26C5764.69,2712.56 5766.42,2710.33 5768.53,2710.33L5803.87,2710.33C5805.96,2710.33 5807.71,2712.56 5807.71,2715.26L5807.71,2753.41C5807.71,2756.11 5805.96,2758.34 5803.87,2758.34Z" style="fill:rgb(170,171,171);fill-rule:nonzero;"/>
            </g>
            <g transform="matrix(0.337127,0,9.24446e-33,0.337127,-1734.05,-609.681)">
                <path d="M5861.41,2758.34L5825.99,2758.34C5823.89,2758.34 5822.16,2756.11 5822.16,2753.41L5822.16,2715.26C5822.16,2712.56 5823.89,2710.33 5825.99,2710.33L5861.41,2710.33C5863.5,2710.33 5865.17,2712.56 5865.17,2715.26L5865.17,2753.41C5865.17,2756.11 5863.5,2758.34 5861.41,2758.34Z" style="fill:rgb(170,171,171);fill-rule:nonzero;"/>
            </g>
            <g transform="matrix(0.337127,0,9.24446e-33,0.337127,-1734.05,-609.681)">
                <path d="M5949.3,2758.34L5883.45,2758.34C5881.35,2758.34 5879.63,2756.11 5879.63,2753.41L5879.63,2715.26C5879.63,2712.56 5881.35,2710.33 5883.45,2710.33L5949.3,2710.33C5951.41,2710.33 5953.14,2712.56 5953.14,2715.26L5953.14,2753.41C5953.14,2756.11 5951.41,2758.34 5949.3,2758.34Z" style="fill:rgb(170,171,171);fill-rule:nonzero;"/>
            </g>
            <g transform="matrix(0.337127,0,9.24446e-33,0.337127,-1734.05,-609.681)">
                <path d="M6048.41,2757.68L5970.12,2757.68C5968.02,2757.68 5966.3,2755.46 5966.3,2752.75L5966.3,2714.6C5966.3,2711.91 5968.02,2709.68 5970.12,2709.68L6048.41,2709.68C6050.5,2709.68 6052.24,2711.91 6052.24,2714.6L6052.24,2752.75C6052.24,2755.46 6050.5,2757.68 6048.41,2757.68Z" style="fill:rgb(170,171,171);fill-rule:nonzero;"/>
            </g>
            <g transform="matrix(0.337127,0,9.24446e-33,0.337127,-1734.05,-609.681)">
                <path d="M6006.63,2792.86L5977.13,2792.86C5976.43,2792.86 5975.84,2792.11 5975.84,2791.18L5975.84,2777.96C5975.84,2777.04 5976.43,2776.3 5977.13,2776.3L6006.63,2776.3C6007.36,2776.3 6008.01,2777.04 6008.01,2777.96L6008.01,2791.18C6008.01,2792.11 6007.36,2792.86 6006.63,2792.86Z" style="fill:rgb(170,171,171);fill-rule:nonzero;"/>
            </g>
            <g transform="matrix(0.337127,0,9.24446e-33,0.337127,-1734.05,-609.681)">
                <path d="M6006.63,2821.52L5977.13,2821.52C5976.43,2821.52 5975.84,2820.77 5975.84,2819.84L5975.84,2806.72C5975.84,2805.79 5976.43,2805.04 5977.13,2805.04L6006.63,2805.04C6007.36,2805.04 6008.01,2805.79 6008.01,2806.72L6008.01,2819.84C6008.01,2820.77 6007.36,2821.52 6006.63,2821.52Z" style="fill:rgb(170,171,171);fill-rule:nonzero;"/>
            </g>
            <g transform="matrix(0.337127,0,9.24446e-33,0.337127,-1734.05,-609.681)">
                <path d="M5962.9,2821.52L5933.41,2821.52C5932.68,2821.52 5932.1,2820.77 5932.1,2819.84L5932.1,2806.72C5932.1,2805.79 5932.68,2805.04 5933.41,2805.04L5962.9,2805.04C5963.63,2805.04 5964.27,2805.79 5964.27,2806.72L5964.27,2819.84C5964.27,2820.77 5963.63,2821.52 5962.9,2821.52Z" style="fill:rgb(170,171,171);fill-rule:nonzero;"/>
            </g>
            <g transform="matrix(0.337127,0,9.24446e-33,0.337127,-1734.05,-609.681)">
                <path d="M6050.3,2821.52L6020.81,2821.52C6020.07,2821.52 6019.41,2820.77 6019.41,2819.84L6019.41,2806.72C6019.41,2805.79 6020.07,2805.04 6020.81,2805.04L6050.3,2805.04C6051.01,2805.04 6051.59,2805.79 6051.59,2806.72L6051.59,2819.84C6051.59,2820.77 6051.01,2821.52 6050.3,2821.52Z" style="fill:rgb(170,171,171);fill-rule:nonzero;"/>
            </g>
            <g transform="matrix(0.337127,0,9.24446e-33,0.337127,-1734.05,-609.681)">
                <path d="M5917.5,2824.3L5882.08,2824.3C5879.99,2824.3 5878.25,2822.08 5878.25,2819.38L5878.25,2781.22C5878.25,2778.53 5879.99,2776.3 5882.08,2776.3L5917.5,2776.3C5919.6,2776.3 5921.34,2778.53 5921.34,2781.22L5921.34,2819.38C5921.34,2822.08 5919.6,2824.3 5917.5,2824.3Z" style="fill:rgb(170,171,171);fill-rule:nonzero;"/>
            </g>
            <g transform="matrix(0.337127,0,9.24446e-33,0.337127,-1734.05,-609.681)">
                <path d="M5319.49,2571.12L5354.92,2571.12C5357.02,2571.12 5358.67,2573.35 5358.67,2576.04L5358.67,2614.19C5358.67,2616.89 5357.02,2619.12 5354.92,2619.12L5319.49,2619.12C5317.39,2619.12 5315.66,2616.89 5315.66,2614.19L5315.66,2576.04C5315.66,2573.35 5317.39,2571.12 5319.49,2571.12Z" style="fill:rgb(51,51,51);"/>
            </g>
            <g transform="matrix(0.337127,0,9.24446e-33,0.337127,-1734.05,-609.681)">
                <path d="M5376.96,2571.12L5412.38,2571.12C5414.48,2571.12 5416.2,2573.35 5416.2,2576.04L5416.2,2614.19C5416.2,2616.89 5414.48,2619.12 5412.38,2619.12L5376.96,2619.12C5374.87,2619.12 5373.13,2616.89 5373.13,2614.19L5373.13,2576.04C5373.13,2573.35 5374.87,2571.12 5376.96,2571.12Z" style="fill:rgb(51,51,51);"/>
            </g>
            <g transform="matrix(0.337127,0,9.24446e-33,0.337127,-1734.05,-609.681)">
                <path d="M5434.5,2571.12L5469.84,2571.12C5471.94,2571.12 5473.67,2573.35 5473.67,2576.04L5473.67,2614.19C5473.67,2616.89 5471.94,2619.12 5469.84,2619.12L5434.5,2619.12C5432.41,2619.12 5430.66,2616.89 5430.66,2614.19L5430.66,2576.04C5430.66,2573.35 5432.41,2571.12 5434.5,2571.12Z" style="fill:rgb(51,51,51);"/>
            </g>
            <g transform="matrix(0.337127,0,9.24446e-33,0.337127,-1734.05,-609.681)">
                <path d="M5491.96,2571.12L5527.32,2571.12C5529.48,2571.12 5531.13,2573.35 5531.13,2576.04L5531.13,2614.19C5531.13,2616.89 5529.48,2619.12 5527.32,2619.12L5491.96,2619.12C5489.86,2619.12 5488.14,2616.89 5488.14,2614.19L5488.14,2576.04C5488.14,2573.35 5489.86,2571.12 5491.96,2571.12Z" style="fill:rgb(51,51,51);"/>
            </g>
            <g transform="matrix(0.337127,0,9.24446e-33,0.337127,-1734.05,-609.681)">
                <path d="M5549.43,2571.12L5584.84,2571.12C5586.95,2571.12 5588.67,2573.35 5588.67,2576.04L5588.67,2614.19C5588.67,2616.89 5586.95,2619.12 5584.84,2619.12L5549.43,2619.12C5547.33,2619.12 5545.6,2616.89 5545.6,2614.19L5545.6,2576.04C5545.6,2573.35 5547.33,2571.12 5549.43,2571.12Z" style="fill:rgb(51,51,51);"/>
            </g>
            <g transform="matrix(0.337127,0,9.24446e-33,0.337127,-1734.05,-609.681)">
                <path d="M5606.97,2571.12L5642.32,2571.12C5644.41,2571.12 5646.14,2573.35 5646.14,2576.04L5646.14,2614.19C5646.14,2616.89 5644.41,2619.12 5642.32,2619.12L5606.97,2619.12C5604.87,2619.12 5603.13,2616.89 5603.13,2614.19L5603.13,2576.04C5603.13,2573.35 5604.87,2571.12 5606.97,2571.12Z" style="fill:rgb(51,51,51);"/>
            </g>
            <g transform="matrix(0.337127,0,9.24446e-33,0.337127,-1734.05,-609.681)">
                <path d="M5664.43,2571.12L5699.78,2571.12C5701.95,2571.12 5703.61,2573.35 5703.61,2576.04L5703.61,2614.19C5703.61,2616.89 5701.95,2619.12 5699.78,2619.12L5664.43,2619.12C5662.33,2619.12 5660.61,2616.89 5660.61,2614.19L5660.61,2576.04C5660.61,2573.35 5662.33,2571.12 5664.43,2571.12Z" style="fill:rgb(51,51,51);"/>
            </g>
            <g transform="matrix(0.337127,0,9.24446e-33,0.337127,-1734.05,-609.681)">
                <path d="M5721.89,2571.12L5757.32,2571.12C5759.41,2571.12 5761.15,2573.35 5761.15,2576.04L5761.15,2614.19C5761.15,2616.89 5759.41,2619.12 5757.32,2619.12L5721.89,2619.12C5719.79,2619.12 5718.07,2616.89 5718.07,2614.19L5718.07,2576.04C5718.07,2573.35 5719.79,2571.12 5721.89,2571.12Z" style="fill:rgb(51,51,51);"/>
            </g>
            <g transform="matrix(0.337127,0,9.24446e-33,0.337127,-1734.05,-609.681)">
                <path d="M5779.44,2571.12L5814.78,2571.12C5816.88,2571.12 5818.61,2573.35 5818.61,2576.04L5818.61,2614.19C5818.61,2616.89 5816.88,2619.12 5814.78,2619.12L5779.44,2619.12C5777.26,2619.12 5775.6,2616.89 5775.6,2614.19L5775.6,2576.04C5775.6,2573.35 5777.26,2571.12 5779.44,2571.12Z" style="fill:rgb(51,51,51);"/>
            </g>
            <g transform="matrix(0.337127,0,9.24446e-33,0.337127,-1734.05,-609.681)">
                <path d="M5836.9,2571.12L5872.25,2571.12C5874.41,2571.12 5876.08,2573.35 5876.08,2576.04L5876.08,2614.19C5876.08,2616.89 5874.41,2619.12 5872.25,2619.12L5836.9,2619.12C5834.8,2619.12 5833.07,2616.89 5833.07,2614.19L5833.07,2576.04C5833.07,2573.35 5834.8,2571.12 5836.9,2571.12Z" style="fill:rgb(51,51,51);"/>
            </g>
            <g transform="matrix(0.337127,0,9.24446e-33,0.337127,-1734.05,-609.681)">
                <path d="M5894.36,2571.12L5929.79,2571.12C5931.89,2571.12 5933.61,2573.35 5933.61,2576.04L5933.61,2614.19C5933.61,2616.89 5931.89,2619.12 5929.79,2619.12L5894.36,2619.12C5892.28,2619.12 5890.54,2616.89 5890.54,2614.19L5890.54,2576.04C5890.54,2573.35 5892.28,2571.12 5894.36,2571.12Z" style="fill:rgb(51,51,51);"/>
            </g>
            <g transform="matrix(0.337127,0,9.24446e-33,0.337127,-1734.05,-609.681)">
                <path d="M5405.79,2637.74L5441.15,2637.74C5443.25,2637.74 5444.97,2639.96 5444.97,2642.67L5444.97,2680.81C5444.97,2683.51 5443.25,2685.74 5441.15,2685.74L5405.79,2685.74C5403.7,2685.74 5401.97,2683.51 5401.97,2680.81L5401.97,2642.67C5401.97,2639.96 5403.7,2637.74 5405.79,2637.74Z" style="fill:rgb(51,51,51);"/>
            </g>
            <g transform="matrix(0.337127,0,9.24446e-33,0.337127,-1734.05,-609.681)">
                <path d="M5463.25,2637.74L5498.68,2637.74C5500.78,2637.74 5502.52,2639.96 5502.52,2642.67L5502.52,2680.81C5502.52,2683.51 5500.78,2685.74 5498.68,2685.74L5463.25,2685.74C5461.17,2685.74 5459.43,2683.51 5459.43,2680.81L5459.43,2642.67C5459.43,2639.96 5461.17,2637.74 5463.25,2637.74Z" style="fill:rgb(51,51,51);"/>
            </g>
            <g transform="matrix(0.337127,0,9.24446e-33,0.337127,-1734.05,-609.681)">
                <path d="M5520.74,2637.74L5556.15,2637.74C5558.24,2637.74 5559.99,2639.96 5559.99,2642.67L5559.99,2680.81C5559.99,2683.51 5558.24,2685.74 5556.15,2685.74L5520.74,2685.74C5518.63,2685.74 5516.97,2683.51 5516.97,2680.81L5516.97,2642.67C5516.97,2639.96 5518.63,2637.74 5520.74,2637.74Z" style="fill:rgb(51,51,51);"/>
            </g>
            <g transform="matrix(0.337127,0,9.24446e-33,0.337127,-1734.05,-609.681)">
                <path d="M5578.27,2637.74L5613.61,2637.74C5615.72,2637.74 5617.45,2639.96 5617.45,2642.67L5617.45,2680.81C5617.45,2683.51 5615.72,2685.74 5613.61,2685.74L5578.27,2685.74C5576.17,2685.74 5574.44,2683.51 5574.44,2680.81L5574.44,2642.67C5574.44,2639.96 5576.17,2637.74 5578.27,2637.74Z" style="fill:rgb(51,51,51);"/>
            </g>
            <g transform="matrix(0.337127,0,9.24446e-33,0.337127,-1734.05,-609.681)">
                <path d="M5635.73,2637.74L5671.16,2637.74C5673.25,2637.74 5674.91,2639.96 5674.91,2642.67L5674.91,2680.81C5674.91,2683.51 5673.25,2685.74 5671.16,2685.74L5635.73,2685.74C5633.64,2685.74 5631.91,2683.51 5631.91,2680.81L5631.91,2642.67C5631.91,2639.96 5633.64,2637.74 5635.73,2637.74Z" style="fill:rgb(51,51,51);"/>
            </g>
            <g transform="matrix(0.337127,0,9.24446e-33,0.337127,-1734.05,-609.681)">
                <path d="M5693.2,2637.74L5728.62,2637.74C5730.72,2637.74 5732.45,2639.96 5732.45,2642.67L5732.45,2680.81C5732.45,2683.51 5730.72,2685.74 5728.62,2685.74L5693.2,2685.74C5691.11,2685.74 5689.37,2683.51 5689.37,2680.81L5689.37,2642.67C5689.37,2639.96 5691.11,2637.74 5693.2,2637.74Z" style="fill:rgb(51,51,51);"/>
            </g>
            <g transform="matrix(0.337127,0,9.24446e-33,0.337127,-1734.05,-609.681)">
                <path d="M5750.74,2637.74L5786.08,2637.74C5788.18,2637.74 5789.91,2639.96 5789.91,2642.67L5789.91,2680.81C5789.91,2683.51 5788.18,2685.74 5786.08,2685.74L5750.74,2685.74C5748.63,2685.74 5746.91,2683.51 5746.91,2680.81L5746.91,2642.67C5746.91,2639.96 5748.63,2637.74 5750.74,2637.74Z" style="fill:rgb(51,51,51);"/>
            </g>
            <g transform="matrix(0.337127,0,9.24446e-33,0.337127,-1734.05,-609.681)">
                <path d="M5808.2,2637.74L5843.62,2637.74C5845.72,2637.74 5847.38,2639.96 5847.38,2642.67L5847.38,2680.81C5847.38,2683.51 5845.72,2685.74 5843.62,2685.74L5808.2,2685.74C5806.1,2685.74 5804.38,2683.51 5804.38,2680.81L5804.38,2642.67C5804.38,2639.96 5806.1,2637.74 5808.2,2637.74Z" style="fill:rgb(51,51,51);"/>
            </g>
            <g transform="matrix(0.337127,0,9.24446e-33,0.337127,-1734.05,-609.681)">
                <path d="M5865.66,2637.74L5901.09,2637.74C5903.18,2637.74 5904.92,2639.96 5904.92,2642.67L5904.92,2680.81C5904.92,2683.51 5903.18,2685.74 5901.09,2685.74L5865.66,2685.74C5863.57,2685.74 5861.83,2683.51 5861.83,2680.81L5861.83,2642.67C5861.83,2639.96 5863.57,2637.74 5865.66,2637.74Z" style="fill:rgb(51,51,51);"/>
            </g>
            <g transform="matrix(0.337127,0,9.24446e-33,0.337127,-1734.05,-609.681)">
                <path d="M5923.2,2637.74L5958.56,2637.74C5960.65,2637.74 5962.38,2639.96 5962.38,2642.67L5962.38,2680.81C5962.38,2683.51 5960.65,2685.74 5958.56,2685.74L5923.2,2685.74C5921.11,2685.74 5919.38,2683.51 5919.38,2680.81L5919.38,2642.67C5919.38,2639.96 5921.11,2637.74 5923.2,2637.74Z" style="fill:rgb(51,51,51);"/>
            </g>
            <g transform="matrix(0.337127,0,9.24446e-33,0.337127,-1734.05,-609.681)">
                <path d="M5951.91,2571.12L5987.25,2571.12C5989.34,2571.12 5991.08,2573.35 5991.08,2576.04L5991.08,2614.19C5991.08,2616.89 5989.34,2619.12 5987.25,2619.12L5951.91,2619.12C5949.75,2619.12 5948.07,2616.89 5948.07,2614.19L5948.07,2576.04C5948.07,2573.35 5949.75,2571.12 5951.91,2571.12Z" style="fill:rgb(51,51,51);"/>
            </g>
            <g transform="matrix(0.337127,0,9.24446e-33,0.337127,-1734.05,-609.681)">
                <path d="M6009.36,2571.12L6044.71,2571.12C6046.81,2571.12 6048.54,2573.35 6048.54,2576.04L6048.54,2614.19C6048.54,2616.89 6046.81,2619.12 6044.71,2619.12L6009.36,2619.12C6007.27,2619.12 6005.54,2616.89 6005.54,2614.19L6005.54,2576.04C6005.54,2573.35 6007.27,2571.12 6009.36,2571.12Z" style="fill:rgb(51,51,51);"/>
            </g>
            <g transform="matrix(0.337127,0,9.24446e-33,0.337127,-1734.05,-609.681)">
                <path d="M5981.61,2637.74L6044.71,2637.74C6046.81,2637.74 6048.54,2639.96 6048.54,2642.67L6048.54,2680.81C6048.54,2683.51 6046.81,2685.74 6044.71,2685.74L5981.61,2685.74C5979.52,2685.74 5977.77,2683.51 5977.77,2680.81L5977.77,2642.67C5977.77,2639.96 5979.52,2637.74 5981.61,2637.74Z" style="fill:rgb(51,51,51);"/>
            </g>
            <g transform="matrix(0.337127,0,9.24446e-33,0.337127,-1734.05,-609.681)">
                <path d="M5320.06,2637.74L5385.56,2637.74C5387.66,2637.74 5389.39,2639.96 5389.39,2642.67L5389.39,2680.81C5389.39,2683.51 5387.66,2685.74 5385.56,2685.74L5320.06,2685.74C5317.9,2685.74 5316.24,2683.51 5316.24,2680.81L5316.24,2642.67C5316.24,2639.96 5317.9,2637.74 5320.06,2637.74Z" style="fill:rgb(51,51,51);"/>
            </g>
            <g transform="matrix(0.337127,0,9.24446e-33,0.337127,-1734.05,-609.681)">
                <path d="M5320.06,2704.35L5398.28,2704.35C5400.38,2704.35 5402.12,2706.59 5402.12,2709.28L5402.12,2747.43C5402.12,2750.13 5400.38,2752.36 5398.28,2752.36L5320.06,2752.36C5317.9,2752.36 5316.24,2750.13 5316.24,2747.43L5316.24,2709.28C5316.24,2706.59 5317.9,2704.35 5320.06,2704.35Z" style="fill:rgb(51,51,51);"/>
            </g>
            <g transform="matrix(0.337127,0,9.24446e-33,0.337127,-1734.05,-609.681)">
                <path d="M5320.06,2770.98L5355.35,2770.98C5357.44,2770.98 5359.18,2773.21 5359.18,2775.9L5359.18,2814.05C5359.18,2816.76 5357.44,2818.98 5355.35,2818.98L5320.06,2818.98C5317.9,2818.98 5316.24,2816.76 5316.24,2814.05L5316.24,2775.9C5316.24,2773.21 5317.9,2770.98 5320.06,2770.98Z" style="fill:rgb(51,51,51);"/>
            </g>
            <g transform="matrix(0.337127,0,9.24446e-33,0.337127,-1734.05,-609.681)">
                <path d="M5377.47,2770.98L5412.73,2770.98C5414.83,2770.98 5416.56,2773.21 5416.56,2775.9L5416.56,2814.05C5416.56,2816.76 5414.83,2818.98 5412.73,2818.98L5377.47,2818.98C5375.38,2818.98 5373.63,2816.76 5373.63,2814.05L5373.63,2775.9C5373.63,2773.21 5375.38,2770.98 5377.47,2770.98Z" style="fill:rgb(51,51,51);"/>
            </g>
            <g transform="matrix(0.337127,0,9.24446e-33,0.337127,-1734.05,-609.681)">
                <path d="M5434.86,2770.98L5470.14,2770.98C5472.3,2770.98 5473.97,2773.21 5473.97,2775.9L5473.97,2814.05C5473.97,2816.76 5472.3,2818.98 5470.14,2818.98L5434.86,2818.98C5432.76,2818.98 5431.04,2816.76 5431.04,2814.05L5431.04,2775.9C5431.04,2773.21 5432.76,2770.98 5434.86,2770.98Z" style="fill:rgb(51,51,51);"/>
            </g>
            <g transform="matrix(0.337127,0,9.24446e-33,0.337127,-1734.05,-609.681)">
                <path d="M5492.25,2770.98L5859.81,2770.98C5861.97,2770.98 5863.65,2773.21 5863.65,2775.9L5863.65,2814.05C5863.65,2816.76 5861.97,2818.98 5859.81,2818.98L5492.25,2818.98C5490.16,2818.98 5488.42,2816.76 5488.42,2814.05L5488.42,2775.9C5488.42,2773.21 5490.16,2770.98 5492.25,2770.98Z" style="fill:rgb(51,51,51);"/>
            </g>
            <g transform="matrix(0.337127,0,9.24446e-33,0.337127,-1734.05,-609.681)">
                <path d="M5419.53,2705L5454.88,2705C5456.99,2705 5458.71,2707.23 5458.71,2709.94L5458.71,2748.09C5458.71,2750.78 5456.99,2753.02 5454.88,2753.02L5419.53,2753.02C5417.43,2753.02 5415.7,2750.78 5415.7,2748.09L5415.7,2709.94C5415.7,2707.23 5417.43,2705 5419.53,2705Z" style="fill:rgb(51,51,51);"/>
            </g>
            <g transform="matrix(0.337127,0,9.24446e-33,0.337127,-1734.05,-609.681)">
                <path d="M5476.99,2705L5512.42,2705C5514.51,2705 5516.25,2707.23 5516.25,2709.94L5516.25,2748.09C5516.25,2750.78 5514.51,2753.02 5512.42,2753.02L5476.99,2753.02C5474.91,2753.02 5473.16,2750.78 5473.16,2748.09L5473.16,2709.94C5473.16,2707.23 5474.91,2705 5476.99,2705Z" style="fill:rgb(51,51,51);"/>
            </g>
            <g transform="matrix(0.337127,0,9.24446e-33,0.337127,-1734.05,-609.681)">
                <path d="M5534.47,2705L5569.88,2705C5571.98,2705 5573.72,2707.23 5573.72,2709.94L5573.72,2748.09C5573.72,2750.78 5571.98,2753.02 5569.88,2753.02L5534.47,2753.02C5532.37,2753.02 5530.7,2750.78 5530.7,2748.09L5530.7,2709.94C5530.7,2707.23 5532.37,2705 5534.47,2705Z" style="fill:rgb(51,51,51);"/>
            </g>
            <g transform="matrix(0.337127,0,9.24446e-33,0.337127,-1734.05,-609.681)">
                <path d="M5592,2705L5627.35,2705C5629.45,2705 5631.18,2707.23 5631.18,2709.94L5631.18,2748.09C5631.18,2750.78 5629.45,2753.02 5627.35,2753.02L5592,2753.02C5589.9,2753.02 5588.16,2750.78 5588.16,2748.09L5588.16,2709.94C5588.16,2707.23 5589.9,2705 5592,2705Z" style="fill:rgb(51,51,51);"/>
            </g>
            <g transform="matrix(0.337127,0,9.24446e-33,0.337127,-1734.05,-609.681)">
                <path d="M5649.47,2705L5684.9,2705C5686.98,2705 5688.65,2707.23 5688.65,2709.94L5688.65,2748.09C5688.65,2750.78 5686.98,2753.02 5684.9,2753.02L5649.47,2753.02C5647.38,2753.02 5645.64,2750.78 5645.64,2748.09L5645.64,2709.94C5645.64,2707.23 5647.38,2705 5649.47,2705Z" style="fill:rgb(51,51,51);"/>
            </g>
            <g transform="matrix(0.337127,0,9.24446e-33,0.337127,-1734.05,-609.681)">
                <path d="M5706.93,2705L5742.34,2705C5744.45,2705 5746.18,2707.23 5746.18,2709.94L5746.18,2748.09C5746.18,2750.78 5744.45,2753.02 5742.34,2753.02L5706.93,2753.02C5704.84,2753.02 5703.11,2750.78 5703.11,2748.09L5703.11,2709.94C5703.11,2707.23 5704.84,2705 5706.93,2705Z" style="fill:rgb(51,51,51);"/>
            </g>
            <g transform="matrix(0.337127,0,9.24446e-33,0.337127,-1734.05,-609.681)">
                <path d="M5764.47,2705L5799.82,2705C5801.91,2705 5803.66,2707.23 5803.66,2709.94L5803.66,2748.09C5803.66,2750.78 5801.91,2753.02 5799.82,2753.02L5764.47,2753.02C5762.37,2753.02 5760.64,2750.78 5760.64,2748.09L5760.64,2709.94C5760.64,2707.23 5762.37,2705 5764.47,2705Z" style="fill:rgb(51,51,51);"/>
            </g>
            <g transform="matrix(0.337127,0,9.24446e-33,0.337127,-1734.05,-609.681)">
                <path d="M5821.93,2705L5857.36,2705C5859.45,2705 5861.12,2707.23 5861.12,2709.94L5861.12,2748.09C5861.12,2750.78 5859.45,2753.02 5857.36,2753.02L5821.93,2753.02C5819.84,2753.02 5818.11,2750.78 5818.11,2748.09L5818.11,2709.94C5818.11,2707.23 5819.84,2705 5821.93,2705Z" style="fill:rgb(51,51,51);"/>
            </g>
            <g transform="matrix(0.337127,0,9.24446e-33,0.337127,-1734.05,-609.681)">
                <path d="M5879.39,2705L5945.25,2705C5947.36,2705 5949.09,2707.23 5949.09,2709.94L5949.09,2748.09C5949.09,2750.78 5947.36,2753.02 5945.25,2753.02L5879.39,2753.02C5877.3,2753.02 5875.57,2750.78 5875.57,2748.09L5875.57,2709.94C5875.57,2707.23 5877.3,2705 5879.39,2705Z" style="fill:rgb(51,51,51);"/>
            </g>
            <g transform="matrix(0.337127,0,9.24446e-33,0.337127,-1734.05,-609.681)">
                <path d="M5966.06,2704.35L6044.36,2704.35C6046.45,2704.35 6048.19,2706.59 6048.19,2709.28L6048.19,2747.43C6048.19,2750.13 6046.45,2752.36 6044.36,2752.36L5966.06,2752.36C5963.96,2752.36 5962.25,2750.13 5962.25,2747.43L5962.25,2709.28C5962.25,2706.59 5963.96,2704.35 5966.06,2704.35Z" style="fill:rgb(51,51,51);"/>
            </g>
            <g transform="matrix(0.337127,0,9.24446e-33,0.337127,-1734.05,-609.681)">
                <path d="M5973.09,2770.98L6002.58,2770.98C6003.31,2770.98 6003.95,2771.72 6003.95,2772.64L6003.95,2785.86C6003.95,2786.78 6003.31,2787.53 6002.58,2787.53L5973.09,2787.53C5972.37,2787.53 5971.79,2786.78 5971.79,2785.86L5971.79,2772.64C5971.79,2771.72 5972.37,2770.98 5973.09,2770.98Z" style="fill:rgb(51,51,51);"/>
            </g>
            <g transform="matrix(0.337127,0,9.24446e-33,0.337127,-1734.05,-609.681)">
                <path d="M5973.09,2799.73L6002.58,2799.73C6003.31,2799.73 6003.95,2800.47 6003.95,2801.41L6003.95,2814.52C6003.95,2815.44 6003.31,2816.19 6002.58,2816.19L5973.09,2816.19C5972.37,2816.19 5971.79,2815.44 5971.79,2814.52L5971.79,2801.41C5971.79,2800.47 5972.37,2799.73 5973.09,2799.73Z" style="fill:rgb(51,51,51);"/>
            </g>
            <g transform="matrix(0.337127,0,9.24446e-33,0.337127,-1734.05,-609.681)">
                <path d="M5929.36,2799.73L5958.85,2799.73C5959.57,2799.73 5960.22,2800.47 5960.22,2801.41L5960.22,2814.52C5960.22,2815.44 5959.57,2816.19 5958.85,2816.19L5929.36,2816.19C5928.63,2816.19 5928.05,2815.44 5928.05,2814.52L5928.05,2801.41C5928.05,2800.47 5928.63,2799.73 5929.36,2799.73Z" style="fill:rgb(51,51,51);"/>
            </g>
            <g transform="matrix(0.337127,0,9.24446e-33,0.337127,-1734.05,-609.681)">
                <path d="M6016.74,2799.73L6046.24,2799.73C6046.95,2799.73 6047.53,2800.47 6047.53,2801.41L6047.53,2814.52C6047.53,2815.44 6046.95,2816.19 6046.24,2816.19L6016.74,2816.19C6016.02,2816.19 6015.36,2815.44 6015.36,2814.52L6015.36,2801.41C6015.36,2800.47 6016.02,2799.73 6016.74,2799.73Z" style="fill:rgb(51,51,51);"/>
            </g>
            <g transform="matrix(0.337127,0,9.24446e-33,0.337127,-1734.05,-609.681)">
                <path d="M5878.02,2770.98L5913.45,2770.98C5915.55,2770.98 5917.29,2773.21 5917.29,2775.9L5917.29,2814.05C5917.29,2816.76 5915.55,2818.98 5913.45,2818.98L5878.02,2818.98C5875.93,2818.98 5874.19,2816.76 5874.19,2814.05L5874.19,2775.9C5874.19,2773.21 5875.93,2770.98 5878.02,2770.98Z" style="fill:rgb(51,51,51);"/>
            </g>
            <g transform="matrix(0.337127,0,9.24446e-33,0.337127,-1734.05,-609.681)">
                <path d="M5731.05,2295.18C5721.2,2289.71 5715.66,2280.81 5718.75,2275.29C5721.78,2269.75 5732.26,2269.69 5742.12,2275.16C5751.98,2280.61 5757.49,2289.51 5754.43,2295.04C5751.39,2300.56 5740.92,2300.62 5731.05,2295.18ZM5767.45,2181.15C5709.13,2166.54 5692.66,2192.43 5735.17,2219.92C5771.93,2243.69 5718.51,2248.49 5718.51,2248.49C5672.99,2247.9 5640.06,2288.05 5662.23,2330.29C5674.97,2354.56 5713.41,2376.8 5761.42,2366.59C5850.09,2347.73 5885.64,2210.75 5767.45,2181.15Z" style="fill:rgb(253,220,74);"/>
            </g>
            <g transform="matrix(0.337127,0,9.24446e-33,0.337127,-1734.05,-609.681)">
                <path d="M5748.87,2347.27C5744.35,2348.17 5739.42,2342.52 5737.83,2334.61C5736.25,2326.73 5738.63,2319.59 5743.15,2318.7C5747.66,2317.78 5752.6,2323.46 5754.19,2331.35C5755.76,2339.25 5753.38,2346.37 5748.87,2347.27Z" style="fill:rgb(240,99,162);fill-rule:nonzero;"/>
            </g>
            <g transform="matrix(0.337127,0,9.24446e-33,0.337127,-1734.05,-609.681)">
                <path d="M5821.78,2292.68C5820.53,2297.1 5813.23,2298.9 5805.48,2296.69C5797.74,2294.47 5792.5,2289.08 5793.76,2284.65C5795.03,2280.23 5802.34,2278.44 5810.07,2280.65C5817.82,2282.87 5823.05,2288.25 5821.78,2292.68Z" style="fill:rgb(13,174,203);fill-rule:nonzero;"/>
            </g>
            <g transform="matrix(0.337127,0,9.24446e-33,0.337127,-1734.05,-609.681)">
                <path d="M5803.71,2267.62C5799.36,2269.16 5793.68,2264.25 5790.99,2256.67C5788.31,2249.07 5789.66,2241.67 5794,2240.14C5798.33,2238.61 5804.03,2243.51 5806.71,2251.11C5809.4,2258.69 5808.05,2266.09 5803.71,2267.62Z" style="fill:rgb(101,188,69);fill-rule:nonzero;"/>
            </g>
            <g transform="matrix(0.337127,0,9.24446e-33,0.337127,-1734.05,-609.681)">
                <path d="M5760.96,2221.53C5756.85,2219.47 5756.43,2211.96 5760.03,2204.77C5763.63,2197.58 5769.9,2193.41 5774.01,2195.47C5778.13,2197.53 5778.54,2205.05 5774.95,2212.25C5771.34,2219.43 5765.08,2223.59 5760.96,2221.53Z" style="fill:rgb(251,172,26);fill-rule:nonzero;"/>
            </g>
            <g transform="matrix(0.337127,0,9.24446e-33,0.337127,-1734.05,-609.681)">
                <path d="M5831.76,2198.63C5831.76,2198.63 5859.6,2232.23 5822.68,2260.14C5785.75,2288.05 5779.31,2297.64 5779.31,2297.64C5779.31,2297.64 5751.53,2211.56 5819.9,2190.67L5825.64,2189.74L5831.76,2198.63Z" style="fill:rgb(248,183,22);"/>
            </g>
            <g transform="matrix(0.337127,0,9.24446e-33,0.337127,-1734.05,-609.681)">
                <path d="M5806.18,2196.35C5806.4,2196.24 5806.61,2196.12 5806.84,2196C5806.62,2196.12 5806.4,2196.24 5806.18,2196.35Z" style="fill:rgb(178,178,178);fill-rule:nonzero;"/>
            </g>
            <g transform="matrix(0.337127,0,9.24446e-33,0.337127,-1734.05,-609.681)">
                <path d="M5805.01,2197.01C5805.39,2196.79 5805.78,2196.57 5806.18,2196.35C5805.78,2196.57 5805.39,2196.79 5805.01,2197.01Z" style="fill:rgb(191,190,190);fill-rule:nonzero;"/>
            </g>
            <g transform="matrix(0.337127,0,9.24446e-33,0.337127,-1734.05,-609.681)">
                <path d="M5778.08,2293.28C5773.98,2277.27 5763.07,2220.92 5805.01,2197.01C5763.12,2220.9 5773.97,2277.18 5778.09,2293.27C5778.09,2293.27 5778.09,2293.28 5778.08,2293.28Z" style="fill:rgb(204,176,57);fill-rule:nonzero;"/>
            </g>
            <g transform="matrix(0.337127,0,9.24446e-33,0.337127,-1734.05,-609.681)">
                <path d="M5806.9,2195.97C5806.97,2195.93 5807.05,2195.89 5807.12,2195.85C5807.05,2195.89 5806.97,2195.93 5806.9,2195.97ZM5807.24,2195.79C5807.27,2195.77 5807.3,2195.76 5807.34,2195.74C5807.31,2195.75 5807.27,2195.77 5807.24,2195.79ZM5807.55,2195.63C5807.58,2195.62 5807.61,2195.6 5807.64,2195.59C5807.61,2195.6 5807.58,2195.62 5807.55,2195.63ZM5807.85,2195.47C5807.88,2195.46 5807.9,2195.45 5807.92,2195.44C5807.9,2195.45 5807.88,2195.46 5807.85,2195.47ZM5808.14,2195.33C5808.15,2195.33 5808.17,2195.32 5808.18,2195.31C5808.17,2195.32 5808.15,2195.33 5808.14,2195.33ZM5808.44,2195.18C5808.45,2195.18 5808.46,2195.17 5808.46,2195.17C5808.45,2195.17 5808.45,2195.18 5808.44,2195.18ZM5808.74,2195.03L5808.75,2195.03L5808.74,2195.03Z" style="fill:rgb(178,178,178);fill-rule:nonzero;"/>
            </g>
            <g transform="matrix(0.337127,0,9.24446e-33,0.337127,-1734.05,-609.681)">
                <path d="M5778.09,2293.27C5773.97,2277.18 5763.12,2220.9 5805.01,2197.01C5805.39,2196.79 5805.78,2196.57 5806.18,2196.35C5806.4,2196.24 5806.62,2196.12 5806.84,2196C5806.86,2195.99 5806.88,2195.98 5806.9,2195.97C5806.97,2195.93 5807.05,2195.89 5807.12,2195.85C5807.16,2195.83 5807.2,2195.81 5807.24,2195.79C5807.27,2195.77 5807.31,2195.75 5807.34,2195.74C5807.41,2195.7 5807.48,2195.67 5807.55,2195.63C5807.58,2195.62 5807.61,2195.6 5807.64,2195.59C5807.71,2195.55 5807.78,2195.51 5807.85,2195.47C5807.88,2195.46 5807.9,2195.45 5807.92,2195.44C5807.99,2195.4 5808.07,2195.37 5808.14,2195.33C5808.15,2195.33 5808.17,2195.32 5808.18,2195.31C5808.26,2195.27 5808.35,2195.23 5808.44,2195.18C5808.45,2195.18 5808.45,2195.17 5808.46,2195.17C5808.56,2195.12 5808.65,2195.08 5808.74,2195.03L5808.75,2195.03C5811.69,2193.59 5814.87,2192.3 5818.29,2191.18C5818.96,2192.05 5819.4,2192.45 5819.4,2192.45L5823.51,2194.77C5796.38,2228.45 5783.24,2271.95 5778.09,2293.27Z" style="fill:rgb(199,148,44);fill-rule:nonzero;"/>
            </g>
            <g transform="matrix(0.337127,0,9.24446e-33,0.337127,-1734.05,-609.681)">
                <path d="M6149.73,1721.51C6088.17,1788.72 5929.93,1963.25 5865.38,2050.81C5784.37,2160.7 5819.4,2192.45 5819.4,2192.45L5823.55,2194.8L5831.26,2200.4C5831.26,2200.4 5875.03,2219.47 5948.85,2104.96C6007.67,2013.69 6113.53,1805.45 6154.07,1724.66L6162.8,1707.26L6149.73,1721.51Z" style="fill:rgb(238,113,34);"/>
            </g>
            <g transform="matrix(0.337127,0,9.24446e-33,0.337127,-1734.05,-609.681)">
                <path d="M5820.77,2193.22L5819.4,2192.45C5819.4,2192.45 5811.86,2185.62 5811.87,2167.32C5811.87,2146.18 5821.94,2109.73 5865.38,2050.81C5929.93,1963.25 6088.17,1788.72 6149.73,1721.51L6162.8,1707.26L5820.77,2193.22Z" style="fill:rgb(191,91,39);fill-rule:nonzero;"/>
            </g>
            <g transform="matrix(0.337127,0,9.24446e-33,0.337127,-1734.05,-609.681)">
                <path d="M5081.46,2722.62C5080.12,2722.62 5078.77,2722.42 5077.47,2722.02C5080.18,2721.2 5082.67,2719.54 5084.49,2717.09L5086.02,2715.04C5087.84,2712.59 5088.73,2709.73 5088.74,2706.9C5088.75,2704.62 5088.19,2702.36 5087.11,2700.33L5095.87,2688.77L5095.87,2699.32L5095.1,2700.33C5097.54,2704.89 5097.31,2710.62 5094.02,2715.04L5092.49,2717.09C5089.79,2720.71 5085.65,2722.62 5081.46,2722.62Z" style="fill:rgb(21,53,78);fill-rule:nonzero;"/>
            </g>
            <g transform="matrix(0.337127,0,9.24446e-33,0.337127,-1734.05,-609.681)">
                <path d="M5095.87,2699.32L5095.87,2688.77L5278.2,2448.1L5280.27,2449.68C5280.67,2449.99 5281.16,2450.14 5281.69,2450.14L5281.92,2450.14C5283.2,2450.06 5284.67,2449.21 5285.77,2447.77C5286.65,2446.61 5287.1,2445.31 5287.1,2444.19C5287.1,2443.26 5286.78,2442.46 5286.15,2441.97L5285.9,2441.78L5286.45,2442.19C5286.94,2437.44 5291.55,2431.35 5297.89,2425.07C5299.97,2425.72 5302.06,2426.3 5304.16,2426.82C5298.72,2432.47 5294.88,2437.89 5294.44,2442.19L5294.2,2442.02C5295.55,2443.13 5295.35,2445.68 5293.76,2447.77C5292.62,2449.28 5291.05,2450.14 5289.74,2450.14C5289.19,2450.14 5288.69,2450 5288.27,2449.68L5286.2,2448.1L5095.87,2699.32ZM5313.2,2418.35C5311.05,2417.98 5308.9,2417.54 5306.77,2417.01C5322.05,2404.11 5340.35,2392.52 5340.35,2392.52C5334.83,2384.37 5332.95,2374.55 5332.95,2364.98C5332.94,2344.87 5341.2,2325.88 5341.2,2325.88L5339.02,2324.33L5341.78,2320.61L5349.21,2325.88C5349.21,2325.88 5331.21,2367.22 5348.35,2392.52C5348.35,2392.52 5328.77,2404.92 5313.2,2418.35Z" style="fill:rgb(70,139,126);fill-rule:nonzero;"/>
            </g>
            <g transform="matrix(0.337127,0,9.24446e-33,0.337127,-1734.05,-609.681)">
                <path d="M5304.16,2426.82C5302.06,2426.3 5299.97,2425.72 5297.89,2425.07C5300.6,2422.38 5303.62,2419.67 5306.77,2417.01C5308.9,2417.54 5311.05,2417.98 5313.2,2418.35C5309.94,2421.16 5306.85,2424.02 5304.16,2426.82Z" style="fill:rgb(32,30,30);fill-rule:nonzero;"/>
            </g>
            <g transform="matrix(0.337127,0,9.24446e-33,0.337127,-1734.05,-609.681)">
                <path d="M5033.01,2658.69C5032.43,2658.42 5031.84,2658.2 5031.24,2658.02C5032.11,2657.75 5033.01,2657.58 5033.92,2657.49L5033.01,2658.69Z" style="fill:rgb(21,53,78);fill-rule:nonzero;"/>
            </g>
            <g transform="matrix(0.337127,0,9.24446e-33,0.337127,-1734.05,-609.681)">
                <path d="M5282.1,2391.48L5277.66,2388.09C5277.25,2386.57 5274.6,2374.37 5289.91,2373.6L5332.27,2319.45L5329,2316.79C5331.68,2314.93 5333.21,2313.69 5333.21,2313.69L5340.27,2319.45L5337.37,2323.16L5333.78,2320.61L5294.13,2374.09C5283.07,2376.53 5285.3,2386.71 5285.65,2388.09L5287.94,2389.83L5288.13,2389.98C5285.52,2391.34 5282.79,2391.48 5282.1,2391.48ZM5274.26,2334.28C5272.38,2334.28 5270.51,2334.17 5268.64,2333.93C5268.99,2332.83 5269.18,2332.22 5269.18,2332.22C5272.18,2333.23 5275.24,2333.84 5278.32,2334.11C5276.97,2334.22 5275.61,2334.28 5274.26,2334.28Z" style="fill:rgb(70,139,126);fill-rule:nonzero;"/>
            </g>
            <g transform="matrix(0.337127,0,9.24446e-33,0.337127,-1734.05,-609.681)">
                <path d="M5340.35,2392.52C5323.22,2367.22 5341.2,2325.88 5341.2,2325.88L5333.78,2320.61L5292.84,2375.83C5296.15,2390.79 5283.68,2391.47 5282.1,2391.48L5277.66,2388.09C5277.25,2386.57 5274.6,2374.37 5289.91,2373.6L5332.27,2319.45L5325.21,2313.69C5325.21,2313.69 5290.13,2342.02 5261.18,2332.22C5261.18,2332.22 5243.18,2391.32 5227.61,2397.39L5252.19,2416.24L5252.19,2416.25L5260.48,2422.57L5286.45,2442.19C5288.16,2425.57 5340.35,2392.52 5340.35,2392.52Z" style="fill:rgb(22,63,109);fill-rule:nonzero;"/>
            </g>
            <g transform="matrix(0.337127,0,9.24446e-33,0.337127,-1734.05,-609.681)">
                <path d="M5280.66,2444.85L5226.24,2403.63L5033.01,2658.69C5027.23,2656.02 5020.17,2657.64 5016.21,2662.95L5014.69,2664.99C5010.14,2671.09 5011.39,2679.7 5017.48,2684.24L5065.24,2719.88C5071.33,2724.43 5079.95,2723.18 5084.49,2717.09L5086.02,2715.04C5089.31,2710.62 5089.54,2704.89 5087.11,2700.33L5280.66,2444.85Z" style="fill:rgb(246,136,30);fill-rule:nonzero;"/>
            </g>
            <g transform="matrix(0.337127,0,9.24446e-33,0.337127,-1734.05,-609.681)">
                <path d="M5285.77,2447.77C5284.14,2449.9 5281.69,2450.75 5280.27,2449.68L5222.03,2405.32C5220.62,2404.26 5220.79,2401.65 5222.42,2399.52C5224.04,2397.4 5226.49,2396.54 5227.9,2397.61L5286.15,2441.97C5287.55,2443.05 5287.38,2445.65 5285.77,2447.77Z" style="fill:rgb(248,152,66);fill-rule:nonzero;"/>
            </g>
            <g transform="matrix(0.337127,0,9.24446e-33,0.337127,-1734.05,-609.681)">
                <path d="M5073.46,2722.62C5070.6,2722.62 5067.71,2721.73 5065.24,2719.88L5042.47,2702.89L5065.24,2719.88C5067.71,2721.73 5070.6,2722.62 5073.46,2722.62C5074.82,2722.62 5076.17,2722.42 5077.47,2722.02C5076.17,2722.42 5074.82,2722.62 5073.46,2722.62Z" style="fill:rgb(8,74,115);fill-rule:nonzero;"/>
            </g>
            <g transform="matrix(0.337127,0,9.24446e-33,0.337127,-1734.05,-609.681)">
                <path d="M5077.47,2722.02C5080.18,2721.2 5082.67,2719.54 5084.49,2717.09L5086.02,2715.04C5087.84,2712.59 5088.73,2709.73 5088.74,2706.9C5088.73,2709.73 5087.84,2712.59 5086.02,2715.04L5084.49,2717.09C5082.67,2719.54 5080.18,2721.2 5077.47,2722.02ZM5087.11,2700.33L5095.87,2688.77L5087.11,2700.33Z" style="fill:rgb(22,52,73);fill-rule:nonzero;"/>
            </g>
            <g transform="matrix(0.337127,0,9.24446e-33,0.337127,-1734.05,-609.681)">
                <path d="M5095.87,2688.77L5278.2,2448.1L5095.87,2688.77Z" style="fill:rgb(66,128,117);fill-rule:nonzero;"/>
            </g>
            <g transform="matrix(0.337127,0,9.24446e-33,0.337127,-1734.05,-609.681)">
                <path d="M5073.46,2722.62C5070.6,2722.62 5067.71,2721.73 5065.24,2719.88L5042.47,2702.89L5251.28,2427.6L5278.2,2448.1L5095.87,2688.77L5087.11,2700.33C5088.19,2702.36 5088.75,2704.62 5088.74,2706.9C5088.73,2709.73 5087.84,2712.59 5086.02,2715.04L5084.49,2717.09C5082.67,2719.54 5080.18,2721.2 5077.47,2722.02C5076.17,2722.42 5074.82,2722.62 5073.46,2722.62Z" style="fill:rgb(224,126,38);fill-rule:nonzero;"/>
            </g>
            <g transform="matrix(0.337127,0,9.24446e-33,0.337127,-1734.05,-609.681)">
                <path d="M5281.74,2450.14C5281.72,2450.14 5281.7,2450.14 5281.69,2450.14C5281.7,2450.14 5281.72,2450.14 5281.74,2450.14ZM5281.92,2450.14C5283.2,2450.06 5284.67,2449.21 5285.77,2447.77C5286.65,2446.61 5287.1,2445.31 5287.1,2444.19C5287.1,2445.31 5286.65,2446.61 5285.77,2447.77C5284.67,2449.21 5283.2,2450.06 5281.92,2450.14ZM5286.45,2442.19L5285.9,2441.78L5286.15,2441.97L5285.31,2441.33L5286.45,2442.19C5286.94,2437.44 5291.55,2431.35 5297.89,2425.07C5291.55,2431.35 5286.94,2437.44 5286.45,2442.19Z" style="fill:rgb(66,128,117);fill-rule:nonzero;"/>
            </g>
            <g transform="matrix(0.337127,0,9.24446e-33,0.337127,-1734.05,-609.681)">
                <path d="M5286.45,2442.19L5285.31,2441.33L5257.14,2419.88L5279.94,2389.83L5282.1,2391.48C5283.5,2391.47 5293.37,2390.94 5293.39,2380.52C5293.4,2379.14 5293.23,2377.58 5292.84,2375.83L5333.78,2320.61L5341.2,2325.88C5341.2,2325.88 5332.94,2344.87 5332.95,2364.98C5332.95,2374.55 5334.83,2384.37 5340.35,2392.52C5340.35,2392.52 5322.05,2404.11 5306.77,2417.01C5303.62,2419.67 5300.6,2422.38 5297.89,2425.07C5291.55,2431.35 5286.94,2437.44 5286.45,2442.19Z" style="fill:rgb(20,59,101);fill-rule:nonzero;"/>
            </g>
            <g transform="matrix(0.337127,0,9.24446e-33,0.337127,-1734.05,-609.681)">
                <path d="M5281.74,2450.14C5281.72,2450.14 5281.7,2450.14 5281.69,2450.14C5281.16,2450.14 5280.67,2449.99 5280.27,2449.68L5278.2,2448.1L5251.28,2427.6L5257.14,2419.88L5285.31,2441.33L5286.15,2441.97C5286.78,2442.46 5287.1,2443.26 5287.1,2444.19C5287.1,2445.31 5286.65,2446.61 5285.77,2447.77C5284.67,2449.21 5283.2,2450.06 5281.92,2450.14C5281.86,2450.14 5281.8,2450.14 5281.74,2450.14Z" style="fill:rgb(227,140,61);fill-rule:nonzero;"/>
            </g>
            <g transform="matrix(0.337127,0,9.24446e-33,0.337127,-1734.05,-609.681)">
                <path d="M5054.67,2653.92C5053.57,2653.92 5052.48,2653.58 5051.56,2652.88C5049.22,2651.11 5048.85,2647.64 5050.74,2645.15L5216.95,2426.04C5218.09,2424.53 5219.81,2423.72 5221.51,2423.72C5222.6,2423.72 5223.69,2424.05 5224.61,2424.75C5226.97,2426.54 5227.33,2429.99 5225.44,2432.49L5059.23,2651.59C5058.08,2653.11 5056.37,2653.92 5054.67,2653.92Z" style="fill:rgb(252,197,139);fill-rule:nonzero;"/>
            </g>
        </g>
    </g>
</svg>
