<?xml version="1.0" standalone="no"?>
<!DOCTYPE svg PUBLIC "-//W3C//DTD SVG 1.1//EN" "http://www.w3.org/Graphics/SVG/1.1/DTD/svg11.dtd">
<svg width="100%" height="100%" viewBox="0 0 383 405" version="1.1" xmlns="http://www.w3.org/2000/svg" xmlns:xlink="http://www.w3.org/1999/xlink" xml:space="preserve" style="fill-rule:evenodd;clip-rule:evenodd;stroke-linejoin:round;stroke-miterlimit:1.41421;">
    <g transform="matrix(1,0,0,1,-63.3877,-44.8213)">
        <g transform="matrix(0.351387,0,0,0.351387,-30.6023,-1143.24)">
            <path d="M1332,4000C1332,4293.81 1093.82,4532 799.999,4532C506.185,4532 268.001,4293.81 268.001,4000C268.001,3706.18 506.185,3468 799.999,3468C1093.82,3468 1332,3706.18 1332,4000Z" style="fill:rgb(227,97,75);fill-rule:nonzero;"/>
            <path d="M797.115,4138.66L919.571,4138.66L972.237,4260.45L990.896,4499.62L908.418,4521.88L851.79,4530.48C851.79,4530.48 620.86,4420.41 613.62,4362.47C613.62,4362.47 646.595,4357.79 739.423,4356.47C832.253,4355.16 839.909,4304.56 891.259,4276.26L873.483,4217.01C873.483,4217.01 799.753,4218.97 797.115,4138.66Z" style="fill:rgb(225,197,156);fill-rule:nonzero;"/>
            <path d="M634.781,4061.54C628.112,4072.8 609.755,4074.26 593.785,4064.81L551.608,4039.84C535.638,4030.38 528.096,4013.58 534.761,4002.32L538.789,3995.52C545.456,3984.26 563.811,3982.79 579.784,3992.25L621.96,4017.23C637.933,4026.68 645.475,4043.48 638.804,4054.74L634.781,4061.54Z" style="fill:rgb(250,213,165);fill-rule:nonzero;"/>
            <path d="M855.552,4387.41L621.579,4387.41C618.297,4380.68 615.843,4373.99 614.465,4367.44L614.927,4367.12C617.741,4373.64 624.226,4378.2 631.775,4378.2L856.749,4378.2C856.61,4379.12 856.55,4379.62 856.55,4379.62C856.55,4379.62 856.064,4382.43 855.552,4387.41Z" style="fill:rgb(181,158,126);fill-rule:nonzero;"/>
            <path d="M613.434,4070.97C611.579,4070.88 609.679,4070.63 607.754,4070.24L607.754,4008.82L613.434,4012.18L613.434,4070.97Z" style="fill:rgb(224,191,148);fill-rule:nonzero;"/>
            <path d="M924.392,4359.86C924.392,4369.99 916.179,4378.2 906.051,4378.2L631.775,4378.2C621.647,4378.2 613.434,4369.99 613.434,4359.86L613.434,3855.5C613.434,3845.36 621.647,3837.15 631.775,3837.15L906.051,3837.15C916.179,3837.15 924.392,3845.36 924.392,3855.5L924.392,4359.86Z" style="fill:rgb(10,45,68);"/>
            <rect x="642.115" y="3901.35" width="253.598" height="369.86" style="fill:rgb(240,241,241);fill-rule:nonzero;"/>
            <rect x="642.115" y="3901.35" width="253.598" height="52.25" style="fill:rgb(75,171,207);fill-rule:nonzero;"/>
            <rect x="642.115" y="4000" width="253.598" height="94.4" style="fill:rgb(218,71,42);fill-rule:nonzero;"/>
            <rect x="657.601" y="4117.86" width="27.2" height="27.2" style="fill:rgb(218,71,42);fill-rule:nonzero;"/>
            <rect x="657.601" y="4169.87" width="27.2" height="27.2" style="fill:rgb(218,71,42);fill-rule:nonzero;"/>
            <rect x="657.601" y="4222.84" width="27.2" height="27.2" style="fill:rgb(218,71,42);fill-rule:nonzero;"/>
            <rect x="704.264" y="4117.86" width="126.67" height="2.94" style="fill:rgb(12,148,163);fill-rule:nonzero;"/>
            <rect x="704.264" y="4125.06" width="126.67" height="3.48" style="fill:rgb(12,148,163);fill-rule:nonzero;"/>
            <rect x="704.263" y="4134.13" width="126.672" height="2.93" style="fill:rgb(12,148,163);fill-rule:nonzero;"/>
            <rect x="704.263" y="4142.13" width="126.672" height="2.93" style="fill:rgb(12,148,163);fill-rule:nonzero;"/>
            <rect x="704.264" y="4169.87" width="126.67" height="2.93" style="fill:rgb(12,148,163);fill-rule:nonzero;"/>
            <rect x="704.264" y="4177.07" width="126.67" height="3.46" style="fill:rgb(12,148,163);fill-rule:nonzero;"/>
            <rect x="704.264" y="4186.13" width="126.67" height="2.93" style="fill:rgb(12,148,163);fill-rule:nonzero;"/>
            <rect x="704.264" y="4194.13" width="126.67" height="2.94" style="fill:rgb(12,148,163);fill-rule:nonzero;"/>
            <rect x="704.264" y="4222.84" width="126.67" height="2.93" style="fill:rgb(12,148,163);fill-rule:nonzero;"/>
            <rect x="704.264" y="4230.04" width="126.67" height="3.47" style="fill:rgb(12,148,163);fill-rule:nonzero;"/>
            <rect x="704.264" y="4239.1" width="126.67" height="2.93" style="fill:rgb(12,148,163);fill-rule:nonzero;"/>
            <rect x="704.264" y="4247.11" width="126.67" height="2.93" style="fill:rgb(12,148,163);fill-rule:nonzero;"/>
            <path d="M812.115,4047.2C812.115,4071.06 792.773,4090.4 768.917,4090.4C745.055,4090.4 725.716,4071.06 725.716,4047.2C725.716,4023.34 745.055,4004 768.917,4004C792.773,4004 812.115,4023.34 812.115,4047.2Z" style="fill:rgb(227,97,75);fill-rule:nonzero;"/>
            <path d="M998.096,4260.45L945.43,4138.66L822.974,4138.66C825.612,4218.97 899.342,4217.01 899.342,4217.01L917.12,4276.26C865.768,4304.56 856.55,4379.62 856.55,4379.62C856.55,4379.62 850.584,4500.26 916.886,4520.64L988.957,4499.15L998.096,4260.45Z" style="fill:rgb(250,213,165);fill-rule:nonzero;"/>
            <path d="M634.781,4146.47C628.112,4157.73 613.574,4161.45 602.311,4154.79L572.571,4137.17C561.309,4130.51 557.584,4115.97 564.255,4104.71L568.279,4097.91C574.948,4086.65 589.485,4082.92 600.749,4089.59L630.489,4107.2C641.75,4113.87 645.475,4128.4 638.804,4139.67L634.781,4146.47Z" style="fill:rgb(250,213,165);fill-rule:nonzero;"/>
            <path d="M614.001,4152.57C610.637,4152.57 607.228,4151.7 604.123,4149.86L601.53,4148.32L624.343,4109.16L627.217,4110.86C636.445,4116.33 639.499,4128.24 634.034,4137.47L630.735,4143.05C627.108,4149.17 620.641,4152.57 614.001,4152.57Z" style="fill:rgb(251,234,211);fill-rule:nonzero;"/>
            <path d="M634.781,4224.81C628.112,4236.07 613.574,4239.8 602.311,4233.13L572.571,4215.52C561.309,4208.85 557.584,4194.32 564.255,4183.05L568.279,4176.26C574.948,4164.99 589.485,4161.27 600.749,4167.94L630.489,4185.55C641.75,4192.21 645.475,4206.75 638.804,4218.01L634.781,4224.81Z" style="fill:rgb(250,213,165);fill-rule:nonzero;"/>
            <path d="M614.004,4230.92C610.64,4230.92 607.229,4230.04 604.123,4228.2L601.53,4226.67L624.343,4187.5L627.217,4189.21C636.445,4194.67 639.499,4206.58 634.034,4215.81L630.735,4221.39C627.108,4227.51 620.643,4230.92 614.004,4230.92Z" style="fill:rgb(251,234,211);fill-rule:nonzero;"/>
            <path d="M628.873,4296.86C623.389,4306.13 611.435,4309.18 602.175,4303.7L577.718,4289.23C568.459,4283.74 565.397,4271.79 570.878,4262.52L574.187,4256.94C579.67,4247.68 591.624,4244.61 600.885,4250.1L625.342,4264.58C634.599,4270.06 637.663,4282.02 632.181,4291.28L628.873,4296.86Z" style="fill:rgb(250,213,165);fill-rule:nonzero;"/>
            <path d="M611.788,4301.88C609.021,4301.88 606.218,4301.16 603.665,4299.65L601.53,4298.39L620.285,4266.19L622.648,4267.58C630.241,4272.08 632.75,4281.88 628.254,4289.47L625.544,4294.05C622.562,4299.09 617.245,4301.88 611.788,4301.88Z" style="fill:rgb(251,234,211);fill-rule:nonzero;"/>
            <path d="M852.823,4157.65C840.009,4157.65 829.615,4149.84 829.615,4140.2C829.615,4139.68 829.661,4139.17 829.723,4138.66L875.928,4138.66C875.986,4139.17 876.032,4139.68 876.032,4140.2C876.032,4149.84 865.642,4157.65 852.823,4157.65Z" style="fill:rgb(251,234,211);fill-rule:nonzero;"/>
            <path d="M726.425,4034.81L726.425,4063.21C726.425,4073.82 735.023,4082.41 745.625,4082.41L792.204,4082.41C802.805,4082.41 811.402,4073.82 811.402,4063.21L811.402,4034.81L726.425,4034.81Z" style="fill:rgb(10,45,68);fill-rule:nonzero;"/>
            <path d="M733.893,4071.68C732.786,4071.68 731.895,4070.78 731.895,4069.68L731.895,4042.75C731.895,4041.64 732.786,4040.74 733.893,4040.74C734.997,4040.74 735.894,4041.64 735.894,4042.75L735.894,4069.68C735.894,4070.78 734.997,4071.68 733.893,4071.68Z" style="fill:rgb(181,192,199);fill-rule:nonzero;"/>
            <path d="M737.893,4071.68C736.787,4071.68 735.894,4070.78 735.894,4069.68L735.894,4042.75C735.894,4041.64 736.787,4040.74 737.893,4040.74C738.996,4040.74 739.893,4041.64 739.893,4042.75L739.893,4069.68C739.893,4070.78 738.996,4071.68 737.893,4071.68Z" style="fill:rgb(9,18,23);fill-rule:nonzero;"/>
            <path d="M753.492,4071.68C752.388,4071.68 751.493,4070.78 751.493,4069.68L751.493,4042.75C751.493,4041.64 752.388,4040.74 753.492,4040.74C754.595,4040.74 755.495,4041.64 755.495,4042.75L755.495,4069.68C755.495,4070.78 754.595,4071.68 753.492,4071.68Z" style="fill:rgb(9,18,23);fill-rule:nonzero;"/>
            <path d="M769.095,4071.68C767.988,4071.68 767.092,4070.78 767.092,4069.68L767.092,4042.75C767.092,4041.64 767.988,4040.74 769.095,4040.74C770.195,4040.74 771.094,4041.64 771.094,4042.75L771.094,4069.68C771.094,4070.78 770.195,4071.68 769.095,4071.68Z" style="fill:rgb(9,18,23);fill-rule:nonzero;"/>
            <path d="M785.758,4071.68C784.654,4071.68 783.759,4070.78 783.759,4069.68L783.759,4042.75C783.759,4041.64 784.654,4040.74 785.758,4040.74C786.865,4040.74 787.76,4041.64 787.76,4042.75L787.76,4069.68C787.76,4070.78 786.865,4071.68 785.758,4071.68Z" style="fill:rgb(9,18,23);fill-rule:nonzero;"/>
            <path d="M802.142,4071.68C801.038,4071.68 800.143,4070.78 800.143,4069.68L800.143,4042.75C800.143,4041.64 801.038,4040.74 802.142,4040.74C803.249,4040.74 804.141,4041.64 804.141,4042.75L804.141,4069.68C804.141,4070.78 803.249,4071.68 802.142,4071.68Z" style="fill:rgb(9,18,23);fill-rule:nonzero;"/>
            <path d="M749.493,4071.68C748.389,4071.68 747.494,4070.78 747.494,4069.68L747.494,4042.75C747.494,4041.64 748.389,4040.74 749.493,4040.74C750.596,4040.74 751.493,4041.64 751.493,4042.75L751.493,4069.68C751.493,4070.78 750.596,4071.68 749.493,4071.68Z" style="fill:rgb(181,192,199);fill-rule:nonzero;"/>
            <path d="M765.094,4071.68C763.988,4071.68 763.093,4070.78 763.093,4069.68L763.093,4042.75C763.093,4041.64 763.988,4040.74 765.094,4040.74C766.197,4040.74 767.092,4041.64 767.092,4042.75L767.092,4069.68C767.092,4070.78 766.197,4071.68 765.094,4071.68Z" style="fill:rgb(181,192,199);fill-rule:nonzero;"/>
            <path d="M781.758,4071.68C780.655,4071.68 779.76,4070.78 779.76,4069.68L779.76,4042.75C779.76,4041.64 780.655,4040.74 781.758,4040.74C782.864,4040.74 783.759,4041.64 783.759,4042.75L783.759,4069.68C783.759,4070.78 782.864,4071.68 781.758,4071.68Z" style="fill:rgb(181,192,199);fill-rule:nonzero;"/>
            <path d="M798.141,4071.68C797.037,4071.68 796.142,4070.78 796.142,4069.68L796.142,4042.75C796.142,4041.64 797.037,4040.74 798.141,4040.74C799.248,4040.74 800.143,4041.64 800.143,4042.75L800.143,4069.68C800.143,4070.78 799.248,4071.68 798.141,4071.68Z" style="fill:rgb(181,192,199);fill-rule:nonzero;"/>
            <path d="M818.294,4030.36C818.294,4033.05 816.12,4035.22 813.44,4035.22L724.388,4035.22C721.709,4035.22 719.538,4033.05 719.538,4030.36C719.538,4027.69 721.709,4025.51 724.388,4025.51L813.44,4025.51C816.12,4025.51 818.294,4027.69 818.294,4030.36Z" style="fill:rgb(24,72,94);fill-rule:nonzero;"/>
            <path d="M804.319,4014.84C804.707,4016.76 803.46,4018.63 801.543,4019.02L737.692,4031.88C735.768,4032.27 733.896,4031.02 733.509,4029.1C733.125,4027.17 734.368,4025.31 736.289,4024.92L800.14,4012.06C802.061,4011.67 803.932,4012.92 804.319,4014.84Z" style="fill:rgb(10,45,68);fill-rule:nonzero;"/>
            <path d="M1354.98,3892.13L1112.19,4038.58L961.214,3742.27L1213.2,3613.89L1354.98,3892.13Z" style="fill:rgb(47,167,183);fill-rule:nonzero;"/>
            <path d="M1346.4,3956.47L1094.41,4084.86L943.438,3788.55L1195.43,3660.16L1346.4,3956.47Z" style="fill:rgb(67,193,215);fill-rule:nonzero;"/>
            <path d="M1215.57,3618.54L1170.02,3659.67L1195.43,3660.16L1330.7,3925.66L1354.98,3892.14L1215.57,3618.54Z" style="fill:rgb(30,146,154);fill-rule:nonzero;"/>
            <path d="M961.214,3742.27C961.214,3742.27 968.991,3762.35 943.438,3788.55L988.32,3765.7L987.354,3747.58L961.214,3742.27Z" style="fill:rgb(30,146,154);fill-rule:nonzero;"/>
            <path d="M987.354,3747.58L943.438,3788.55L988.32,3765.7L987.354,3747.58Z" style="fill:rgb(54,182,198);fill-rule:nonzero;"/>
            <path d="M1170.02,3659.67L1175.46,3670.34L1195.43,3660.16L1170.02,3659.67Z" style="fill:rgb(54,182,198);fill-rule:nonzero;"/>
            <path d="M1036.76,3797.27C1032.34,3797.27 1028.76,3793.69 1028.76,3789.27C1028.76,3784.85 1032.34,3781.27 1036.76,3781.27C1041.18,3781.27 1044.77,3784.85 1044.77,3789.27C1044.77,3793.69 1041.18,3797.27 1036.76,3797.27Z" style="fill:rgb(40,116,129);fill-rule:nonzero;"/>
            <path d="M1144.92,3739.94C1140.5,3739.94 1136.92,3736.35 1136.92,3731.94C1136.92,3727.52 1140.5,3723.94 1144.92,3723.94C1149.34,3723.94 1152.92,3727.52 1152.92,3731.94C1152.92,3736.35 1149.34,3739.94 1144.92,3739.94Z" style="fill:rgb(40,116,129);fill-rule:nonzero;"/>
            <path d="M1148.17,3734.06C1148.17,3732.27 1146.72,3730.81 1144.92,3730.81C1143.13,3730.81 1141.67,3732.27 1141.67,3734.06C1141.67,3734.22 1141.7,3734.36 1141.72,3734.51C1141.77,3772.77 1132.98,3796.67 1115.57,3805.52C1087.12,3820 1043.64,3790.21 1039.08,3786.99C1038.49,3786.39 1037.67,3786.02 1036.76,3786.02C1034.97,3786.02 1033.52,3787.47 1033.52,3789.27C1033.52,3790.53 1034.24,3791.61 1035.28,3792.15C1039.33,3795.05 1069.34,3815.89 1097.68,3815.89C1104.87,3815.89 1111.95,3814.54 1118.46,3811.24C1138.19,3801.21 1148.16,3775.42 1148.12,3734.58C1148.14,3734.41 1148.17,3734.24 1148.17,3734.06Z" style="fill:rgb(240,241,241);fill-rule:nonzero;"/>
            <path d="M297.952,3698.79L270.058,3799.79C259.642,3837.49 281.768,3876.51 319.479,3886.93L485.118,3932.68C522.823,3943.09 561.838,3920.96 572.256,3883.25L600.15,3782.26L297.952,3698.79Z" style="fill:rgb(10,45,68);fill-rule:nonzero;"/>
            <path d="M290.265,3837.5C289.613,3837.5 288.95,3837.41 288.291,3837.23C284.366,3836.15 282.061,3832.08 283.144,3828.15L309.6,3732.37C310.505,3729.1 313.471,3726.95 316.706,3726.95C317.358,3726.95 318.02,3727.04 318.678,3727.22C322.608,3728.31 324.913,3732.37 323.825,3736.3L297.369,3832.08C296.467,3835.36 293.502,3837.5 290.265,3837.5Z" style="fill:rgb(181,192,199);fill-rule:nonzero;"/>
            <path d="M304.49,3841.43C303.838,3841.43 303.175,3841.34 302.516,3841.16C298.591,3840.08 296.286,3836.01 297.369,3832.08L323.825,3736.3C324.73,3733.03 327.696,3730.88 330.931,3730.88C331.583,3730.88 332.245,3730.97 332.904,3731.15C336.833,3732.23 339.138,3736.3 338.055,3740.23L311.595,3836.01C310.69,3839.28 307.724,3841.43 304.49,3841.43Z" style="fill:rgb(9,18,23);fill-rule:nonzero;"/>
            <path d="M359.96,3856.75C359.311,3856.75 358.652,3856.66 357.996,3856.48C354.066,3855.4 351.765,3851.33 352.849,3847.41L379.304,3751.62C380.207,3748.35 383.179,3746.2 386.418,3746.2C387.067,3746.2 387.727,3746.29 388.383,3746.47C392.312,3747.56 394.615,3751.62 393.528,3755.55L367.07,3851.33C366.167,3854.61 363.197,3856.75 359.96,3856.75Z" style="fill:rgb(9,18,23);fill-rule:nonzero;"/>
            <path d="M415.437,3872.08C414.788,3872.08 414.129,3871.99 413.473,3871.81C409.543,3870.72 407.238,3866.66 408.328,3862.74L434.782,3766.95C435.685,3763.67 438.651,3761.53 441.886,3761.53C442.537,3761.53 443.199,3761.61 443.858,3761.8C447.785,3762.88 450.09,3766.95 449.007,3770.87L422.549,3866.66C421.647,3869.93 418.674,3872.08 415.437,3872.08Z" style="fill:rgb(9,18,23);fill-rule:nonzero;"/>
            <path d="M474.714,3888.45C474.062,3888.45 473.4,3888.36 472.741,3888.18C468.816,3887.1 466.511,3883.03 467.594,3879.1L494.052,3783.31C494.956,3780.05 497.921,3777.9 501.156,3777.9C501.808,3777.9 502.47,3777.99 503.128,3778.17C507.058,3779.25 509.363,3783.31 508.275,3787.25L481.819,3883.03C480.918,3886.3 477.951,3888.45 474.714,3888.45Z" style="fill:rgb(9,18,23);fill-rule:nonzero;"/>
            <path d="M532.97,3904.54C532.32,3904.54 531.659,3904.45 531.002,3904.27C527.077,3903.18 524.772,3899.12 525.855,3895.2L552.311,3799.41C553.217,3796.13 556.185,3793.99 559.422,3793.99C560.072,3793.99 560.732,3794.08 561.389,3794.26C565.319,3795.35 567.624,3799.41 566.536,3803.34L540.081,3899.12C539.177,3902.39 536.207,3904.54 532.97,3904.54Z" style="fill:rgb(9,18,23);fill-rule:nonzero;"/>
            <path d="M345.732,3852.82C345.083,3852.82 344.425,3852.74 343.77,3852.56C339.843,3851.47 337.54,3847.41 338.623,3843.48L365.077,3747.7C365.982,3744.42 368.949,3742.28 372.184,3742.28C372.836,3742.28 373.498,3742.36 374.157,3742.55C378.087,3743.63 380.388,3747.7 379.304,3751.62L352.849,3847.41C351.946,3850.68 348.971,3852.82 345.732,3852.82Z" style="fill:rgb(181,192,199);fill-rule:nonzero;"/>
            <path d="M401.218,3868.15C400.567,3868.15 399.906,3868.06 399.247,3867.88C395.32,3866.8 393.015,3862.74 394.103,3858.8L420.556,3763.01C421.458,3759.75 424.425,3757.6 427.663,3757.6C428.315,3757.6 428.977,3757.69 429.637,3757.87C433.562,3758.95 435.867,3763.01 434.782,3766.95L408.328,3862.74C407.421,3866 404.452,3868.15 401.218,3868.15Z" style="fill:rgb(181,192,199);fill-rule:nonzero;"/>
            <path d="M460.482,3884.52C459.833,3884.52 459.174,3884.43 458.518,3884.25C454.591,3883.16 452.285,3879.1 453.369,3875.17L479.825,3779.39C480.728,3776.11 483.695,3773.97 486.93,3773.97C487.582,3773.97 488.244,3774.06 488.903,3774.24C492.832,3775.32 495.138,3779.39 494.052,3783.31L467.594,3879.1C466.692,3882.37 463.719,3884.52 460.482,3884.52Z" style="fill:rgb(181,192,199);fill-rule:nonzero;"/>
            <path d="M518.749,3900.61C518.098,3900.61 517.435,3900.52 516.776,3900.34C512.852,3899.26 510.546,3895.2 511.63,3891.26L538.086,3795.48C538.991,3792.21 541.956,3790.06 545.191,3790.06C545.843,3790.06 546.505,3790.15 547.164,3790.33C551.093,3791.41 553.399,3795.48 552.311,3799.41L525.855,3895.2C524.953,3898.46 521.985,3900.61 518.749,3900.61Z" style="fill:rgb(181,192,199);fill-rule:nonzero;"/>
            <path d="M629.023,3773.22C626.39,3782.75 616.53,3788.33 607.002,3785.7L290.303,3698.23C280.774,3695.6 275.183,3685.74 277.815,3676.21C280.446,3666.68 290.306,3661.09 299.834,3663.72L616.533,3751.2C626.061,3753.83 631.653,3763.68 629.023,3773.22Z" style="fill:rgb(24,72,94);fill-rule:nonzero;"/>
            <path d="M594.583,3704.26C594.075,3711.47 587.803,3716.9 580.599,3716.39L340.892,3699.41C333.679,3698.91 328.242,3692.64 328.757,3685.43C329.268,3678.22 335.53,3672.78 342.741,3673.29L582.451,3690.27C589.658,3690.79 595.094,3697.05 594.583,3704.26Z" style="fill:rgb(10,45,68);fill-rule:nonzero;"/>
            <path d="M871.272,3931.7C871.272,3935.73 868.005,3939 863.974,3939L671.679,3939C667.646,3939 664.377,3935.73 664.377,3931.7L664.377,3927.91C664.377,3923.88 667.646,3920.61 671.679,3920.61L863.974,3920.61C868.005,3920.61 871.272,3923.88 871.272,3927.91L871.272,3931.7Z" style="fill:rgb(234,232,232);fill-rule:nonzero;"/>
            <path d="M863.974,3920.61L828.45,3920.61L828.45,3939L863.974,3939C868.005,3939 871.272,3935.73 871.272,3931.7L871.272,3927.91C871.272,3923.88 868.005,3920.61 863.974,3920.61Z" style="fill:rgb(12,152,175);fill-rule:nonzero;"/>
            <path d="M676.719,3927.45C676.569,3927.62 676.399,3927.8 676.211,3928C676.019,3928.2 675.82,3928.41 675.612,3928.62C675.407,3928.83 675.202,3929.04 674.997,3929.24C674.795,3929.45 674.6,3929.64 674.42,3929.82C674.629,3929.96 674.85,3930.14 675.084,3930.36C675.319,3930.57 675.547,3930.79 675.771,3931.04C675.993,3931.28 676.204,3931.53 676.403,3931.78C676.598,3932.04 676.764,3932.28 676.895,3932.51L676.061,3932.51C675.918,3932.28 675.749,3932.05 675.557,3931.82C675.368,3931.59 675.169,3931.37 674.958,3931.15C674.743,3930.94 674.531,3930.75 674.313,3930.57C674.098,3930.39 673.887,3930.23 673.682,3930.1L673.682,3932.51L672.975,3932.51L672.975,3927.45L673.682,3927.45L673.682,3929.69C673.854,3929.52 674.04,3929.34 674.245,3929.14C674.45,3928.94 674.651,3928.74 674.85,3928.53C675.049,3928.33 675.241,3928.13 675.417,3927.94C675.592,3927.75 675.742,3927.59 675.866,3927.45L676.719,3927.45Z" style="fill:rgb(63,64,64);fill-rule:nonzero;"/>
            <path d="M677.565,3932.51L677.565,3927.45L680.654,3927.45L680.654,3928.05L678.274,3928.05L678.274,3929.56L680.391,3929.56L680.391,3930.15L678.274,3930.15L678.274,3931.9L680.836,3931.9L680.836,3932.51L677.565,3932.51Z" style="fill:rgb(63,64,64);fill-rule:nonzero;"/>
            <path d="M682.936,3932.51L682.936,3930.48C682.604,3929.96 682.288,3929.45 681.989,3928.94C681.692,3928.43 681.413,3927.94 681.149,3927.45L681.982,3927.45C682.165,3927.84 682.373,3928.25 682.604,3928.67C682.832,3929.08 683.069,3929.47 683.311,3929.85C683.551,3929.47 683.782,3929.08 684.014,3928.67C684.241,3928.25 684.45,3927.84 684.639,3927.45L685.43,3927.45C685.163,3927.94 684.883,3928.43 684.586,3928.93C684.29,3929.44 683.978,3929.95 683.646,3930.46L683.646,3932.51L682.936,3932.51Z" style="fill:rgb(63,64,64);fill-rule:nonzero;"/>
            <path d="M690.553,3929.08C690.348,3929.73 690.14,3930.33 689.932,3930.89C689.723,3931.45 689.512,3931.98 689.303,3932.51L688.594,3932.51C688.336,3931.76 688.108,3930.98 687.913,3930.15C687.715,3929.32 687.532,3928.42 687.36,3927.45L688.105,3927.45C688.174,3927.83 688.245,3928.21 688.317,3928.59C688.392,3928.97 688.467,3929.34 688.545,3929.69C688.623,3930.05 688.701,3930.39 688.779,3930.72C688.854,3931.05 688.936,3931.35 689.02,3931.63C689.212,3931.11 689.42,3930.55 689.639,3929.94C689.856,3929.33 690.062,3928.7 690.254,3928.05L690.866,3928.05C691.055,3928.7 691.263,3929.33 691.484,3929.94C691.709,3930.55 691.92,3931.11 692.116,3931.63C692.19,3931.35 692.269,3931.05 692.347,3930.73C692.425,3930.4 692.5,3930.06 692.578,3929.7C692.653,3929.34 692.725,3928.97 692.799,3928.59C692.874,3928.21 692.942,3927.83 693.014,3927.45L693.733,3927.45C693.561,3928.42 693.372,3929.32 693.174,3930.15C692.979,3930.98 692.754,3931.76 692.5,3932.51L691.793,3932.51C691.579,3931.98 691.367,3931.45 691.165,3930.89C690.96,3930.33 690.755,3929.73 690.553,3929.08Z" style="fill:rgb(63,64,64);fill-rule:nonzero;"/>
            <path d="M694.99,3929.97C694.99,3930.28 695.029,3930.56 695.107,3930.81C695.186,3931.06 695.296,3931.28 695.436,3931.45C695.583,3931.63 695.755,3931.76 695.963,3931.86C696.172,3931.95 696.403,3932 696.663,3932C696.92,3932 697.148,3931.95 697.354,3931.86C697.559,3931.76 697.734,3931.63 697.877,3931.45C698.018,3931.28 698.131,3931.06 698.209,3930.81C698.288,3930.56 698.327,3930.28 698.327,3929.97C698.327,3929.67 698.288,3929.39 698.209,3929.14C698.131,3928.89 698.018,3928.67 697.877,3928.5C697.734,3928.33 697.559,3928.19 697.354,3928.09C697.148,3928 696.92,3927.96 696.663,3927.96C696.403,3927.96 696.172,3928 695.963,3928.09C695.755,3928.19 695.583,3928.33 695.436,3928.5C695.296,3928.67 695.186,3928.89 695.107,3929.14C695.029,3929.39 694.99,3929.67 694.99,3929.97ZM694.245,3929.97C694.245,3929.54 694.31,3929.16 694.44,3928.83C694.567,3928.5 694.743,3928.22 694.964,3928C695.186,3927.78 695.442,3927.61 695.739,3927.5C696.032,3927.39 696.344,3927.33 696.676,3927.33C697.002,3927.33 697.311,3927.39 697.598,3927.5C697.891,3927.61 698.145,3927.78 698.359,3928C698.581,3928.22 698.756,3928.5 698.883,3928.83C699.014,3929.16 699.075,3929.54 699.075,3929.97C699.075,3930.41 699.014,3930.79 698.883,3931.12C698.756,3931.45 698.581,3931.73 698.359,3931.95C698.145,3932.17 697.891,3932.34 697.598,3932.45C697.311,3932.56 697.002,3932.62 696.676,3932.62C696.344,3932.62 696.032,3932.56 695.739,3932.45C695.442,3932.34 695.186,3932.17 694.964,3931.95C694.743,3931.73 694.567,3931.45 694.44,3931.12C694.31,3930.79 694.245,3930.41 694.245,3929.97Z" style="fill:rgb(63,64,64);fill-rule:nonzero;"/>
            <path d="M701.53,3928.02C701.227,3928.02 700.996,3928.03 700.836,3928.04L700.836,3929.95L701.341,3929.95C701.582,3929.95 701.803,3929.93 701.999,3929.91C702.19,3929.88 702.356,3929.84 702.49,3929.77C702.624,3929.7 702.728,3929.61 702.799,3929.48C702.871,3929.36 702.91,3929.19 702.91,3928.99C702.91,3928.8 702.871,3928.64 702.799,3928.52C702.728,3928.39 702.627,3928.29 702.503,3928.22C702.383,3928.14 702.233,3928.09 702.067,3928.06C701.897,3928.03 701.719,3928.02 701.53,3928.02ZM702.604,3930.39C702.682,3930.49 702.78,3930.61 702.897,3930.77C703.018,3930.94 703.141,3931.11 703.268,3931.3C703.395,3931.49 703.519,3931.69 703.643,3931.9C703.766,3932.11 703.874,3932.31 703.961,3932.51L703.187,3932.51C703.089,3932.32 702.985,3932.14 702.868,3931.95C702.754,3931.76 702.64,3931.58 702.522,3931.41C702.405,3931.23 702.288,3931.07 702.174,3930.92C702.061,3930.77 701.959,3930.63 701.865,3930.52L701.673,3930.53L701.471,3930.53L700.836,3930.53L700.836,3932.51L700.127,3932.51L700.127,3927.52C700.329,3927.47 700.55,3927.44 700.797,3927.42C701.042,3927.41 701.266,3927.4 701.471,3927.4C702.181,3927.4 702.725,3927.53 703.096,3927.8C703.467,3928.07 703.652,3928.46 703.652,3929C703.652,3929.34 703.564,3929.62 703.389,3929.86C703.209,3930.1 702.949,3930.27 702.604,3930.39Z" style="fill:rgb(63,64,64);fill-rule:nonzero;"/>
            <path d="M706.12,3931.93C706.793,3931.93 707.295,3931.76 707.624,3931.42C707.956,3931.07 708.122,3930.59 708.122,3929.97C708.122,3929.36 707.956,3928.87 707.624,3928.54C707.295,3928.19 706.793,3928.02 706.12,3928.02C705.921,3928.02 705.768,3928.02 705.657,3928.03C705.547,3928.03 705.472,3928.03 705.43,3928.04L705.43,3931.91C705.472,3931.91 705.547,3931.92 705.657,3931.93C705.768,3931.93 705.921,3931.93 706.12,3931.93ZM708.874,3929.97C708.874,3930.42 708.805,3930.79 708.668,3931.12C708.532,3931.45 708.34,3931.71 708.092,3931.92C707.845,3932.14 707.545,3932.29 707.2,3932.4C706.855,3932.5 706.475,3932.55 706.061,3932.55C705.859,3932.55 705.631,3932.55 705.387,3932.53C705.143,3932.51 704.918,3932.47 704.72,3932.43L704.72,3927.52C704.918,3927.47 705.143,3927.44 705.387,3927.42C705.631,3927.41 705.859,3927.4 706.061,3927.4C706.475,3927.4 706.855,3927.45 707.2,3927.56C707.545,3927.66 707.845,3927.82 708.092,3928.03C708.34,3928.24 708.532,3928.51 708.668,3928.83C708.805,3929.15 708.874,3929.54 708.874,3929.97Z" style="fill:rgb(63,64,64);fill-rule:nonzero;"/>
            <path d="M710.442,3932.12C710.442,3932.25 710.397,3932.36 710.313,3932.46C710.221,3932.55 710.104,3932.6 709.954,3932.6C709.805,3932.6 709.684,3932.55 709.596,3932.46C709.508,3932.36 709.466,3932.25 709.466,3932.12C709.466,3931.98 709.508,3931.87 709.596,3931.77C709.684,3931.67 709.805,3931.63 709.954,3931.63C710.104,3931.63 710.221,3931.67 710.313,3931.77C710.397,3931.87 710.442,3931.98 710.442,3932.12Z" style="fill:rgb(63,64,64);fill-rule:nonzero;"/>
            <path d="M712.236,3932.12C712.236,3932.25 712.194,3932.36 712.106,3932.46C712.018,3932.55 711.901,3932.6 711.748,3932.6C711.598,3932.6 711.478,3932.55 711.39,3932.46C711.302,3932.36 711.26,3932.25 711.26,3932.12C711.26,3931.98 711.302,3931.87 711.39,3931.77C711.478,3931.67 711.598,3931.63 711.748,3931.63C711.901,3931.63 712.018,3931.67 712.106,3931.77C712.194,3931.87 712.236,3931.98 712.236,3932.12Z" style="fill:rgb(63,64,64);fill-rule:nonzero;"/>
            <path d="M714.033,3932.12C714.033,3932.25 713.991,3932.36 713.903,3932.46C713.815,3932.55 713.694,3932.6 713.545,3932.6C713.395,3932.6 713.274,3932.55 713.187,3932.46C713.099,3932.36 713.057,3932.25 713.057,3932.12C713.057,3931.98 713.099,3931.87 713.187,3931.77C713.274,3931.67 713.395,3931.63 713.545,3931.63C713.694,3931.63 713.815,3931.67 713.903,3931.77C713.991,3931.87 714.033,3931.98 714.033,3932.12Z" style="fill:rgb(63,64,64);fill-rule:nonzero;"/>
            <path d="M835.818,3927.15L835.818,3927.76L834.221,3927.76L834.221,3932.2L833.516,3932.2L833.516,3927.76L831.924,3927.76L831.924,3927.15L835.818,3927.15Z" style="fill:rgb(224,225,224);fill-rule:nonzero;"/>
            <path d="M837.973,3932.2L837.973,3930.18C837.636,3929.65 837.324,3929.14 837.027,3928.63C836.731,3928.13 836.448,3927.63 836.188,3927.15L837.017,3927.15C837.203,3927.54 837.412,3927.95 837.636,3928.36C837.868,3928.77 838.105,3929.17 838.349,3929.54C838.583,3929.17 838.818,3928.77 839.05,3928.36C839.274,3927.95 839.485,3927.54 839.677,3927.15L840.466,3927.15C840.198,3927.63 839.921,3928.13 839.625,3928.63C839.328,3929.13 839.014,3929.64 838.682,3930.16L838.682,3932.2L837.973,3932.2Z" style="fill:rgb(224,225,224);fill-rule:nonzero;"/>
            <path d="M842.535,3927.72C842.232,3927.72 842.004,3927.72 841.846,3927.74L841.846,3929.72L842.377,3929.72C842.617,3929.72 842.839,3929.71 843.033,3929.67C843.23,3929.64 843.392,3929.59 843.528,3929.51C843.658,3929.44 843.762,3929.34 843.834,3929.21C843.909,3929.07 843.945,3928.91 843.945,3928.7C843.945,3928.5 843.907,3928.35 843.834,3928.22C843.756,3928.09 843.656,3927.99 843.528,3927.92C843.398,3927.84 843.246,3927.79 843.079,3927.76C842.907,3927.73 842.727,3927.72 842.535,3927.72ZM842.477,3927.1C843.19,3927.1 843.734,3927.23 844.117,3927.5C844.499,3927.77 844.69,3928.17 844.69,3928.7C844.69,3929 844.64,3929.25 844.531,3929.45C844.427,3929.66 844.281,3929.83 844.083,3929.96C843.883,3930.09 843.646,3930.18 843.362,3930.24C843.079,3930.3 842.761,3930.32 842.409,3930.32L841.846,3930.32L841.846,3932.2L841.135,3932.2L841.135,3927.22C841.335,3927.17 841.559,3927.13 841.804,3927.12C842.05,3927.1 842.274,3927.1 842.477,3927.1Z" style="fill:rgb(224,225,224);fill-rule:nonzero;"/>
            <path d="M845.573,3932.2L845.573,3927.15L848.663,3927.15L848.663,3927.75L846.282,3927.75L846.282,3929.25L848.399,3929.25L848.399,3929.84L846.282,3929.84L846.282,3931.6L848.843,3931.6L848.843,3932.2L845.573,3932.2Z" style="fill:rgb(224,225,224);fill-rule:nonzero;"/>
            <path d="M854.807,3927.15L854.807,3927.76L853.215,3927.76L853.215,3932.2L852.51,3932.2L852.51,3927.76L850.914,3927.76L850.914,3927.15L854.807,3927.15Z" style="fill:rgb(224,225,224);fill-rule:nonzero;"/>
            <path d="M855.552,3932.2L855.552,3927.15L858.639,3927.15L858.639,3927.75L856.259,3927.75L856.259,3929.25L858.376,3929.25L858.376,3929.84L856.259,3929.84L856.259,3931.6L858.821,3931.6L858.821,3932.2L855.552,3932.2Z" style="fill:rgb(224,225,224);fill-rule:nonzero;"/>
            <path d="M862.756,3932.2C862.682,3932.06 862.598,3931.89 862.496,3931.72C862.392,3931.54 862.278,3931.35 862.157,3931.16C862.033,3930.97 861.911,3930.78 861.777,3930.58C861.647,3930.39 861.52,3930.21 861.4,3930.04C861.276,3930.21 861.148,3930.39 861.018,3930.58C860.886,3930.78 860.761,3930.97 860.641,3931.16C860.521,3931.35 860.413,3931.54 860.309,3931.72C860.201,3931.89 860.117,3932.06 860.038,3932.2L859.257,3932.2C859.48,3931.78 859.732,3931.34 860.022,3930.9C860.313,3930.45 860.621,3930 860.944,3929.53L859.326,3927.15L860.143,3927.15L861.392,3929.03L862.624,3927.15L863.433,3927.15L861.845,3929.51C862.173,3929.97 862.488,3930.44 862.776,3930.89C863.069,3931.33 863.327,3931.77 863.555,3932.2L862.756,3932.2Z" style="fill:rgb(224,225,224);fill-rule:nonzero;"/>
            <path d="M867.795,3927.15L867.795,3927.76L866.211,3927.76L866.211,3932.2L865.502,3932.2L865.502,3927.76L863.91,3927.76L863.91,3927.15L867.795,3927.15Z" style="fill:rgb(224,225,224);fill-rule:nonzero;"/>
            <path d="M865.576,3925.23L831.89,3925.23C831.263,3925.23 830.753,3924.73 830.753,3924.09C830.753,3923.46 831.263,3922.95 831.89,3922.95L865.576,3922.95C866.205,3922.95 866.72,3923.46 866.72,3924.09C866.72,3924.73 866.205,3925.23 865.576,3925.23Z" style="fill:rgb(51,173,191);fill-rule:nonzero;"/>
            <path d="M728.828,3873.76C726.374,3868.08 722.864,3863.24 718.304,3859.23C713.737,3855.22 708.226,3851.71 701.768,3848.7C695.306,3845.7 687.956,3842.64 679.72,3839.52C673.483,3837.29 668.135,3835.18 663.685,3833.17C659.225,3831.17 655.501,3829 652.493,3826.65C649.485,3824.32 647.256,3821.71 645.811,3818.81C644.358,3815.92 643.639,3812.58 643.639,3808.78C643.639,3801.43 646.865,3796.04 653.327,3792.58C659.785,3789.13 667.36,3787.4 676.045,3787.4C686.064,3787.4 694.639,3788.35 701.768,3790.24C708.893,3792.14 714.127,3793.97 717.467,3795.75L723.147,3769.03C721.364,3768.36 718.857,3767.58 715.631,3766.69C712.399,3765.81 708.668,3764.97 704.44,3764.19C700.205,3763.41 695.641,3762.74 690.742,3762.18C687.871,3761.86 685,3761.64 682.132,3761.5L682.132,3733.62L660.27,3733.62L660.27,3762.46C647.949,3764.3 637.721,3768.43 629.609,3774.88C618.249,3783.89 612.571,3796.09 612.571,3811.46C612.571,3819.26 613.906,3825.82 616.579,3831.17C619.254,3836.51 622.813,3841.08 627.272,3844.86C631.722,3848.65 637.008,3851.94 643.138,3854.72C649.264,3857.51 655.664,3860.23 662.347,3862.9C676.152,3868.48 686.064,3873.48 692.08,3877.94C698.092,3882.4 701.1,3888.4 701.1,3895.98C701.1,3903.33 698.034,3908.67 691.914,3912.01C685.784,3915.35 676.377,3917.02 663.685,3917.02C650.765,3917.02 640.41,3915.69 632.617,3913.01C624.817,3910.34 619.137,3908.34 615.579,3907L609.899,3933.72C613.014,3935.06 618.919,3937.02 627.604,3939.57C635.983,3942.04 647.497,3943.31 662.09,3943.4L662.09,3972.02L683.952,3972.02L683.952,3942.04C696.436,3940.21 706.67,3936.56 714.629,3931.05C726.54,3922.82 732.503,3910.68 732.503,3894.64C732.503,3886.41 731.276,3879.44 728.828,3873.76Z" style="fill:rgb(254,193,29);fill-rule:nonzero;"/>
            <path d="M891.318,3730.41C889.678,3726.62 887.337,3723.39 884.29,3720.7C881.237,3718.03 877.555,3715.68 873.242,3713.68C868.926,3711.67 864.017,3709.62 858.516,3707.54C854.346,3706.05 850.778,3704.64 847.803,3703.3C844.824,3701.96 842.334,3700.51 840.325,3698.95C838.32,3697.39 836.833,3695.64 835.862,3693.7C834.896,3691.77 834.414,3689.54 834.414,3687.01C834.414,3682.1 836.569,3678.5 840.885,3676.18C845.198,3673.88 850.257,3672.73 856.058,3672.73C862.754,3672.73 868.479,3673.36 873.242,3674.62C878.001,3675.89 881.497,3677.12 883.73,3678.31L887.526,3660.46C886.331,3660.01 884.658,3659.49 882.503,3658.89C880.345,3658.3 877.852,3657.74 875.026,3657.22C872.2,3656.7 869.147,3656.25 865.879,3655.88C863.961,3655.66 862.041,3655.51 860.127,3655.43L860.127,3636.8L845.521,3636.8L845.521,3656.07C837.292,3657.3 830.462,3660.06 825.039,3664.36C817.454,3670.38 813.662,3678.53 813.662,3688.8C813.662,3694 814.554,3698.39 816.338,3701.96C818.125,3705.53 820.501,3708.58 823.479,3711.11C826.452,3713.64 829.987,3715.83 834.079,3717.7C838.167,3719.56 842.448,3721.37 846.911,3723.16C856.133,3726.88 862.754,3730.23 866.771,3733.2C870.788,3736.18 872.796,3740.2 872.796,3745.25C872.796,3750.16 870.749,3753.73 866.66,3755.96C862.565,3758.2 856.282,3759.31 847.803,3759.31C839.173,3759.31 832.256,3758.42 827.051,3756.63C821.839,3754.85 818.047,3753.51 815.667,3752.62L811.875,3770.47C813.955,3771.36 817.9,3772.66 823.704,3774.38C829.297,3776.02 836.992,3776.87 846.738,3776.93L846.738,3796.05L861.344,3796.05L861.344,3776.02C869.681,3774.8 876.517,3772.36 881.836,3768.68C889.792,3763.18 893.772,3755.07 893.772,3744.36C893.772,3738.85 892.952,3734.21 891.318,3730.41Z" style="fill:rgb(254,193,29);fill-rule:nonzero;"/>
            <path d="M695.062,3550.06C693.756,3547.04 691.888,3544.45 689.459,3542.32C687.028,3540.19 684.092,3538.32 680.654,3536.72C677.213,3535.12 673.301,3533.49 668.913,3531.83C665.592,3530.64 662.747,3529.52 660.374,3528.45C658.004,3527.38 656.019,3526.22 654.417,3524.98C652.815,3523.74 651.631,3522.34 650.859,3520.8C650.088,3519.26 649.704,3517.48 649.704,3515.46C649.704,3511.55 651.422,3508.67 654.863,3506.84C658.301,3505 662.334,3504.08 666.959,3504.08C672.295,3504.08 676.858,3504.58 680.654,3505.59C684.446,3506.6 687.233,3507.58 689.014,3508.52L692.038,3494.3C691.087,3493.94 689.752,3493.53 688.037,3493.05C686.315,3492.58 684.329,3492.14 682.077,3491.72C679.824,3491.3 677.389,3490.94 674.785,3490.65C673.255,3490.48 671.725,3490.36 670.202,3490.29L670.202,3475.44L658.555,3475.44L658.555,3490.8C651.999,3491.78 646.553,3493.98 642.233,3497.41C636.185,3502.21 633.164,3508.7 633.164,3516.89C633.164,3521.04 633.874,3524.53 635.296,3527.38C636.719,3530.23 638.613,3532.66 640.986,3534.67C643.359,3536.69 646.175,3538.44 649.437,3539.92C652.695,3541.41 656.106,3542.86 659.665,3544.28C667.015,3547.25 672.295,3549.91 675.495,3552.29C678.698,3554.65 680.296,3557.86 680.296,3561.89C680.296,3565.8 678.668,3568.65 675.407,3570.43C672.145,3572.21 667.135,3573.09 660.374,3573.09C653.496,3573.09 647.981,3572.38 643.834,3570.96C639.681,3569.54 636.657,3568.47 634.762,3567.76L631.738,3581.99C633.398,3582.7 636.54,3583.74 641.165,3585.1C645.625,3586.41 651.758,3587.09 659.528,3587.14L659.528,3602.38L671.168,3602.38L671.168,3586.41C677.815,3585.44 683.262,3583.5 687.503,3580.57C693.844,3576.18 697.018,3569.71 697.018,3561.18C697.018,3556.79 696.367,3553.09 695.062,3550.06Z" style="fill:rgb(254,193,29);fill-rule:nonzero;"/>
            <path d="M821.481,3428.09C820.657,3426.18 819.482,3424.56 817.949,3423.22C816.416,3421.87 814.567,3420.69 812.399,3419.68C810.231,3418.67 807.767,3417.64 805,3416.6C802.91,3415.85 801.116,3415.14 799.619,3414.47C798.125,3413.8 796.872,3413.07 795.862,3412.29C794.856,3411.5 794.108,3410.63 793.623,3409.65C793.138,3408.68 792.894,3407.56 792.894,3406.29C792.894,3403.81 793.978,3402 796.143,3400.85C798.313,3399.69 800.853,3399.11 803.77,3399.11C807.132,3399.11 810.006,3399.43 812.399,3400.06C814.792,3400.7 816.546,3401.31 817.669,3401.91L819.573,3392.94C818.975,3392.72 818.135,3392.46 817.054,3392.16C815.97,3391.86 814.717,3391.58 813.297,3391.31C811.875,3391.06 810.345,3390.83 808.701,3390.64C807.737,3390.54 806.771,3390.47 805.811,3390.42L805.811,3381.06L798.477,3381.06L798.477,3390.74C794.342,3391.36 790.908,3392.75 788.184,3394.91C784.375,3397.94 782.467,3402.02 782.467,3407.18C782.467,3409.8 782.917,3412 783.812,3413.8C784.71,3415.59 785.905,3417.12 787.399,3418.39C788.896,3419.67 790.67,3420.77 792.725,3421.7C794.782,3422.64 796.927,3423.55 799.173,3424.45C803.805,3426.31 807.132,3427.99 809.147,3429.49C811.165,3430.99 812.174,3433.01 812.174,3435.55C812.174,3438.01 811.146,3439.8 809.095,3440.92C807.038,3442.04 803.88,3442.6 799.619,3442.6C795.283,3442.6 791.81,3442.16 789.192,3441.26C786.579,3440.36 784.671,3439.69 783.477,3439.24L781.572,3448.21C782.617,3448.66 784.6,3449.32 787.513,3450.18C790.325,3451 794.186,3451.43 799.085,3451.46L799.085,3461.06L806.422,3461.06L806.422,3451C810.608,3450.39 814.043,3449.17 816.715,3447.32C820.713,3444.55 822.711,3440.48 822.711,3435.1C822.711,3432.33 822.305,3430 821.481,3428.09Z" style="fill:rgb(254,193,29);fill-rule:nonzero;"/>
        </g>
    </g>
</svg>
