<?xml version="1.0" standalone="no"?>
<!DOCTYPE svg PUBLIC "-//W3C//DTD SVG 1.1//EN" "http://www.w3.org/Graphics/SVG/1.1/DTD/svg11.dtd">
<svg width="100%" height="100%" viewBox="0 0 300 405" version="1.1" xmlns="http://www.w3.org/2000/svg" xmlns:xlink="http://www.w3.org/1999/xlink" xml:space="preserve" style="fill-rule:evenodd;clip-rule:evenodd;stroke-linejoin:round;stroke-miterlimit:1.41421;">
    <g transform="matrix(1,0,0,1,-87.2954,-49.5707)">
        <g>
            <g transform="matrix(0.280306,1.61778e-32,1.61778e-32,0.280306,-1331.54,-1766.13)">
                <path d="M6132,7200C6132,7493.81 5893.81,7732 5600,7732C5306.18,7732 5068,7493.81 5068,7200C5068,6906.18 5306.18,6668 5600,6668C5893.81,6668 6132,6906.18 6132,7200Z" style="fill:rgb(88,200,224);fill-rule:nonzero;"/>
            </g>
            <g transform="matrix(0.280306,1.61778e-32,1.61778e-32,0.280306,-1331.54,-1766.13)">
                <path d="M5633.46,6596.76C5624.8,6596.55 5548.11,6597.07 5547.98,6683.08C5547.93,6716.95 5594.76,6787.11 5594.76,6787.11L5672.17,6787.11C5672.17,6787.11 5719,6716.95 5718.94,6683.08C5718.83,6597.07 5642.13,6596.55 5633.46,6596.76Z" style="fill:rgb(251,241,100);fill-rule:nonzero;"/>
            </g>
            <g transform="matrix(0.280306,1.61778e-32,1.61778e-32,0.280306,-1331.54,-1766.13)">
                <path d="M5617.43,6722.54C5617.89,6722.68 5618.63,6722.82 5619.57,6722.9C5618.7,6722.28 5618.07,6722.17 5617.73,6722.29C5617.6,6722.34 5617.5,6722.43 5617.43,6722.54ZM5644.26,6789.45C5644.22,6789.3 5640.73,6773.39 5640.46,6743.77C5640.39,6735.21 5641.09,6728.7 5642.56,6724.3C5640.66,6724.63 5638.48,6724.69 5636.08,6724.25C5634.26,6723.92 5633.11,6723.18 5632.39,6722.38C5630.35,6723.91 5627.65,6724.77 5624.9,6725.16C5625.17,6725.55 5625.46,6725.98 5625.75,6726.43C5631.82,6735.81 5627.99,6787.1 5627.82,6789.28L5625.42,6789.09C5626.52,6774.48 5628.39,6734.96 5623.72,6727.75C5623.12,6726.82 5622.56,6726.04 5622.04,6725.38C5621.44,6725.4 5620.87,6725.39 5620.3,6725.36C5615.26,6725.14 5615.03,6723.72 5614.95,6723.26C5614.75,6722.12 5615.42,6720.6 5616.86,6720.04C5618.2,6719.52 5620.29,6719.74 5623.12,6722.9C5624.79,6722.78 5626.6,6722.46 5628.28,6721.83C5629.49,6721.39 5630.48,6720.83 5631.26,6720.17L5631.24,6720.05C5630.71,6717.38 5632.21,6714.42 5633.44,6713.64C5634.04,6713.25 5634.73,6713.24 5635.25,6713.63C5636.08,6714.23 5636.18,6715.42 5635.59,6717.72C5635.3,6718.85 5634.79,6719.84 5634.13,6720.69C5634.61,6721.28 5635.4,6721.67 5636.51,6721.87C5639.29,6722.37 5641.72,6722.12 5643.72,6721.56C5644.54,6720.02 5645.52,6718.92 5646.65,6718.24C5648.62,6717.06 5650.56,6717.5 5651.39,6717.96L5652.81,6718.74L5651.67,6719.88C5651.52,6720.03 5649.27,6722.23 5645.43,6723.56C5644.02,6726.74 5642.79,6732.68 5642.88,6743.75C5643.15,6773.11 5646.58,6788.77 5646.61,6788.92L5644.26,6789.45Z" style="fill:rgb(79,78,80);fill-rule:nonzero;"/>
            </g>
            <g transform="matrix(0.280306,1.61778e-32,1.61778e-32,0.280306,-1331.54,-1766.13)">
                <path d="M5594.76,6787.11L5594.76,6827.97C5594.76,6833.31 5598.89,6837.64 5603.98,6837.64L5662.94,6837.64C5668.05,6837.64 5672.17,6833.31 5672.17,6827.97L5672.17,6787.11L5594.76,6787.11Z" style="fill:rgb(29,47,71);fill-rule:nonzero;"/>
            </g>
            <g transform="matrix(0.280306,1.61778e-32,1.61778e-32,0.280306,-1331.54,-1766.13)">
                <path d="M5669.24,6795.98L5597.7,6795.98C5596.07,6795.98 5594.76,6794.8 5594.76,6793.36C5594.76,6791.91 5596.07,6790.74 5597.7,6790.74L5669.24,6790.74C5670.86,6790.74 5672.17,6791.91 5672.17,6793.36C5672.17,6794.8 5670.86,6795.98 5669.24,6795.98Z" style="fill:rgb(54,68,90);fill-rule:nonzero;"/>
            </g>
            <g transform="matrix(0.280306,1.61778e-32,1.61778e-32,0.280306,-1331.54,-1766.13)">
                <path d="M5669.24,6806.47L5597.7,6806.47C5596.07,6806.47 5594.76,6805.29 5594.76,6803.84C5594.76,6802.4 5596.07,6801.22 5597.7,6801.22L5669.24,6801.22C5670.86,6801.22 5672.17,6802.4 5672.17,6803.84C5672.17,6805.29 5670.86,6806.47 5669.24,6806.47Z" style="fill:rgb(54,68,90);fill-rule:nonzero;"/>
            </g>
            <g transform="matrix(0.280306,1.61778e-32,1.61778e-32,0.280306,-1331.54,-1766.13)">
                <path d="M5669.24,6816.95L5597.7,6816.95C5596.07,6816.95 5594.76,6815.77 5594.76,6814.33C5594.76,6812.88 5596.07,6811.7 5597.7,6811.7L5669.24,6811.7C5670.86,6811.7 5672.17,6812.88 5672.17,6814.33C5672.17,6815.77 5670.86,6816.95 5669.24,6816.95Z" style="fill:rgb(54,68,90);fill-rule:nonzero;"/>
            </g>
            <g transform="matrix(0.280306,1.61778e-32,1.61778e-32,0.280306,-1331.54,-1766.13)">
                <path d="M5669.24,6827.43L5597.7,6827.43C5596.07,6827.43 5594.76,6826.26 5594.76,6824.81C5594.76,6823.36 5596.07,6822.19 5597.7,6822.19L5669.24,6822.19C5670.86,6822.19 5672.17,6823.36 5672.17,6824.81C5672.17,6826.26 5670.86,6827.43 5669.24,6827.43Z" style="fill:rgb(54,68,90);fill-rule:nonzero;"/>
            </g>
            <g transform="matrix(0.280306,1.61778e-32,1.61778e-32,0.280306,-1331.54,-1766.13)">
                <path d="M5669.24,6801.22L5597.7,6801.22C5596.07,6801.22 5594.76,6800.05 5594.76,6798.6C5594.76,6797.15 5596.07,6795.98 5597.7,6795.98L5669.24,6795.98C5670.86,6795.98 5672.17,6797.15 5672.17,6798.6C5672.17,6800.05 5670.86,6801.22 5669.24,6801.22Z" style="fill:rgb(25,41,63);fill-rule:nonzero;"/>
            </g>
            <g transform="matrix(0.280306,1.61778e-32,1.61778e-32,0.280306,-1331.54,-1766.13)">
                <path d="M5669.24,6811.7L5597.7,6811.7C5596.07,6811.7 5594.76,6810.53 5594.76,6809.08C5594.76,6807.64 5596.07,6806.47 5597.7,6806.47L5669.24,6806.47C5670.86,6806.47 5672.17,6807.64 5672.17,6809.08C5672.17,6810.53 5670.86,6811.7 5669.24,6811.7Z" style="fill:rgb(25,41,63);fill-rule:nonzero;"/>
            </g>
            <g transform="matrix(0.280306,1.61778e-32,1.61778e-32,0.280306,-1331.54,-1766.13)">
                <path d="M5669.24,6822.19L5597.7,6822.19C5596.07,6822.19 5594.76,6821.02 5594.76,6819.57C5594.76,6818.13 5596.07,6816.95 5597.7,6816.95L5669.24,6816.95C5670.86,6816.95 5672.17,6818.13 5672.17,6819.57C5672.17,6821.02 5670.86,6822.19 5669.24,6822.19Z" style="fill:rgb(25,41,63);fill-rule:nonzero;"/>
            </g>
            <g transform="matrix(0.280306,1.61778e-32,1.61778e-32,0.280306,-1331.54,-1766.13)">
                <path d="M5595.51,6831.81C5595.04,6831.34 5594.76,6830.73 5594.76,6830.05C5594.76,6829.82 5594.79,6829.59 5594.86,6829.38C5594.97,6830.23 5595.2,6831.04 5595.51,6831.81ZM5671.42,6831.81C5671.73,6831.04 5671.96,6830.23 5672.08,6829.38C5672.14,6829.59 5672.17,6829.82 5672.17,6830.05C5672.17,6830.73 5671.89,6831.34 5671.42,6831.81Z" style="fill:rgb(58,190,211);fill-rule:nonzero;"/>
            </g>
            <g transform="matrix(0.280306,1.61778e-32,1.61778e-32,0.280306,-1331.54,-1766.13)">
                <path d="M5669.24,6832.68L5597.7,6832.68C5596.83,6832.68 5596.05,6832.34 5595.51,6831.81C5595.2,6831.04 5594.97,6830.23 5594.86,6829.38C5595.19,6828.26 5596.33,6827.43 5597.7,6827.43L5669.24,6827.43C5670.6,6827.43 5671.74,6828.26 5672.08,6829.38C5671.96,6830.23 5671.73,6831.04 5671.42,6831.81C5670.88,6832.34 5670.11,6832.68 5669.24,6832.68Z" style="fill:rgb(25,41,63);fill-rule:nonzero;"/>
            </g>
            <g transform="matrix(0.280306,1.61778e-32,1.61778e-32,0.280306,-1331.54,-1766.13)">
                <path d="M5672.17,6787.26L5672.17,6787.11L5655.52,6787.11L5672.17,6787.11C5672.17,6787.11 5718.9,6717.09 5718.94,6683.18C5718.94,6683.2 5718.94,6683.21 5718.94,6683.23C5719,6717.1 5672.17,6787.26 5672.17,6787.26Z" style="fill:rgb(58,190,211);fill-rule:nonzero;"/>
            </g>
            <g transform="matrix(0.280306,1.61778e-32,1.61778e-32,0.280306,-1331.54,-1766.13)">
                <path d="M5672.17,6787.11L5655.52,6787.11C5698.48,6707.62 5669.77,6626.97 5657.55,6599.61C5683,6605.59 5718.85,6624.42 5718.94,6683.18C5718.9,6717.09 5672.17,6787.11 5672.17,6787.11Z" style="fill:rgb(229,216,90);fill-rule:nonzero;"/>
            </g>
            <g transform="matrix(0.280306,1.61778e-32,1.61778e-32,0.280306,-1331.54,-1766.13)">
                <path d="M5672.17,6787.26L5655.44,6787.26C5655.47,6787.21 5655.5,6787.16 5655.52,6787.11L5672.17,6787.11L5672.17,6787.26Z" style="fill:rgb(25,41,63);fill-rule:nonzero;"/>
            </g>
            <g transform="matrix(0.280306,1.61778e-32,1.61778e-32,0.280306,-1331.54,-1766.13)">
                <path d="M5576.75,6680.88C5572.3,6680.88 5568.65,6679.08 5567.53,6675.92C5565.92,6671.35 5570.25,6665.67 5577.18,6663.23C5579.32,6662.48 5581.45,6662.12 5583.43,6662.12C5587.88,6662.12 5591.54,6663.92 5592.65,6667.08C5594.26,6671.65 5589.93,6677.33 5582.99,6679.77C5580.86,6680.52 5578.73,6680.88 5576.75,6680.88Z" style="fill:rgb(252,246,164);fill-rule:nonzero;"/>
            </g>
            <g transform="matrix(0.280306,1.61778e-32,1.61778e-32,0.280306,-1331.54,-1766.13)">
                <path d="M5590.99,6655.37C5582.41,6655.37 5575.35,6651.9 5573.2,6645.8C5570.1,6636.99 5578.44,6626.02 5591.82,6621.31C5595.94,6619.87 5600.06,6619.18 5603.88,6619.18C5612.46,6619.18 5619.52,6622.65 5621.67,6628.75C5624.77,6637.56 5616.43,6648.53 5603.05,6653.24C5598.93,6654.69 5594.81,6655.37 5590.99,6655.37Z" style="fill:rgb(252,246,164);fill-rule:nonzero;"/>
            </g>
            <g transform="matrix(0.280306,1.61778e-32,1.61778e-32,0.280306,-1331.54,-1766.13)">
                <path d="M5502.25,6523.37L5504.92,6521L5577.04,6594.37L5574.38,6596.74L5502.25,6523.37Z" style="fill:rgb(251,241,100);fill-rule:nonzero;"/>
            </g>
            <g transform="matrix(0.280306,1.61778e-32,1.61778e-32,0.280306,-1331.54,-1766.13)">
                <path d="M5424.17,6626.91L5424.66,6623.44L5528.46,6636.75L5527.97,6640.22L5424.17,6626.91Z" style="fill:rgb(251,241,100);fill-rule:nonzero;"/>
            </g>
            <g transform="matrix(0.280306,1.61778e-32,1.61778e-32,0.280306,-1331.54,-1766.13)">
                <path d="M5428.28,6725.04L5427.54,6721.6L5530.16,6701.65L5530.9,6705.08L5428.28,6725.04Z" style="fill:rgb(251,241,100);fill-rule:nonzero;"/>
            </g>
            <g transform="matrix(0.280306,1.61778e-32,1.61778e-32,0.280306,-1331.54,-1766.13)">
                <path d="M5756.34,6523.37L5753.67,6521L5681.55,6594.37L5684.22,6596.74L5756.34,6523.37Z" style="fill:rgb(251,241,100);fill-rule:nonzero;"/>
            </g>
            <g transform="matrix(0.280306,1.61778e-32,1.61778e-32,0.280306,-1331.54,-1766.13)">
                <path d="M5841.6,6632.36L5841.11,6628.89L5737.31,6642.19L5737.81,6645.67L5841.6,6632.36Z" style="fill:rgb(251,241,100);fill-rule:nonzero;"/>
            </g>
            <g transform="matrix(0.280306,1.61778e-32,1.61778e-32,0.280306,-1331.54,-1766.13)">
                <path d="M5834.57,6716.83L5835.31,6713.4L5732.7,6693.44L5731.95,6696.88L5834.57,6716.83Z" style="fill:rgb(251,241,100);fill-rule:nonzero;"/>
            </g>
            <g transform="matrix(0.280306,1.61778e-32,1.61778e-32,0.280306,-1331.54,-1766.13)">
                <path d="M5635.9,6577.15L5632.21,6577.21L5630.25,6477.66L5633.93,6477.59L5635.9,6577.15Z" style="fill:rgb(251,241,100);fill-rule:nonzero;"/>
            </g>
            <g transform="matrix(0.280306,1.61778e-32,1.61778e-32,0.280306,-1331.54,-1766.13)">
                <path d="M5498.87,7270.3C5496.88,7270.3 5494.47,7266.5 5491.87,7264.1C5489.27,7261.7 5475.34,7264.77 5472.01,7264.77C5468.67,7264.77 5466.94,7263.3 5463.87,7261.43C5460.81,7259.56 5457.47,7261.83 5455.07,7262.36C5452.67,7262.9 5451.6,7260.77 5453.07,7258.1C5454.54,7255.43 5448.14,7256.1 5443.34,7257.03C5438.54,7257.97 5440.4,7260.36 5436.54,7259.04C5432.68,7257.7 5441.07,7253.3 5443.87,7249.97C5446.67,7246.63 5443.34,7241.04 5441.74,7240.5C5440.14,7239.97 5437.07,7235.16 5432.27,7231.43C5427.47,7227.7 5423.87,7230.5 5418.14,7230.5C5412.41,7230.5 5411.07,7227.97 5408.4,7225.96C5405.74,7223.96 5406.54,7219.97 5395.87,7214.36C5388.65,7210.57 5388.4,7210.75 5389.19,7210.93C5389.57,7211.02 5390.19,7211.11 5390.4,7210.77C5391.07,7209.69 5392.14,7209.83 5388.4,7208.1C5384.67,7206.37 5381.6,7210.1 5377.87,7211.56C5374.14,7213.03 5369.61,7212.63 5368.01,7212.23C5366.41,7211.83 5364.54,7207.97 5362.67,7207.16C5360.81,7206.37 5359.2,7204.63 5358.01,7202.77C5356.81,7200.9 5352.94,7201.69 5353.07,7205.16C5353.2,7208.63 5351.2,7210.63 5347.47,7212.1C5343.74,7213.57 5345.34,7207.97 5345.34,7206.23C5345.34,7204.5 5348.67,7202.77 5348.94,7200.1C5349.21,7197.43 5345.61,7202.63 5342.14,7206.37C5339.94,7208.74 5338.17,7208.2 5335.46,7207.67C5333.91,7207.36 5332.04,7207.05 5329.61,7207.3C5322.94,7207.97 5326.14,7214.9 5326.14,7218.76C5326.14,7222.63 5320.54,7223.96 5319.61,7223.03C5318.67,7222.1 5318.67,7219.97 5316.67,7219.97C5314.67,7219.97 5314.14,7216.76 5313.61,7215.57C5313.07,7214.36 5306.27,7213.16 5303.74,7217.97C5301.2,7222.77 5298.54,7218.89 5295.47,7217.97C5292.41,7217.03 5286.41,7205.03 5287.73,7202.9C5289.08,7200.77 5289.08,7199.83 5287.6,7198.37C5286.14,7196.9 5286.81,7195.83 5288.01,7193.57C5289.21,7191.3 5292.41,7189.17 5286,7185.03C5281.83,7182.34 5276.14,7182.93 5271.19,7183.52C5268.55,7183.84 5266.13,7184.15 5264.27,7183.97C5258.94,7183.43 5263.2,7179.56 5264.27,7178.5C5265.34,7177.43 5267.47,7173.7 5268.54,7170.5C5269.61,7167.3 5267.6,7167.03 5269.47,7162.77C5271.34,7158.5 5270.81,7155.57 5266.54,7155.3C5262.27,7155.03 5258.27,7158.23 5258.01,7164.36C5257.74,7170.49 5251.6,7170.23 5237.47,7169.17C5223.34,7168.1 5224.67,7156.9 5223.07,7147.83C5221.47,7138.76 5226,7131.03 5226.27,7126.5C5226.54,7121.97 5232.13,7116.9 5237.47,7112.9C5242.8,7108.9 5250.4,7109.92 5250.4,7109.92C5250.4,7109.92 5260.67,7112.1 5263.87,7111.83C5267.07,7111.56 5264.41,7109.17 5264.67,7105.96C5264.93,7102.77 5280.4,7104.89 5283.07,7104.89C5285.74,7104.89 5285.21,7107.03 5288.14,7109.92C5289.83,7111.59 5290.37,7110.36 5291.09,7109.13C5291.61,7108.23 5292.23,7107.34 5293.47,7107.56C5296.41,7108.1 5294.01,7109.97 5298.27,7116.9C5302.54,7123.83 5301.74,7126.23 5303.07,7132.1C5304.41,7137.97 5307.34,7135.03 5309.2,7130.23C5311.07,7125.43 5307.07,7109.97 5306,7101.97C5304.94,7093.97 5312.13,7096.9 5319.07,7089.43C5326,7081.97 5333.2,7081.43 5336.41,7076.1C5339.61,7070.77 5336.14,7061.97 5338.01,7066.76C5339.87,7071.56 5340.14,7064.9 5340.4,7059.83C5340.67,7054.77 5343.34,7052.63 5344.67,7055.57C5346,7058.5 5347.6,7056.37 5348.67,7051.3C5349.74,7046.24 5354.27,7041.03 5356.41,7038.5C5358.54,7035.96 5362.81,7038.36 5368.67,7038.5C5374.54,7038.63 5368.94,7037.43 5367.21,7031.56C5365.47,7025.7 5370.94,7023.7 5373.2,7023.7C5375.47,7023.7 5385.21,7018.5 5387.34,7017.16C5389.48,7015.83 5392.27,7015.96 5396,7018.76C5399.74,7021.56 5392.54,7019.43 5390.14,7023.57C5387.74,7027.7 5393.61,7028.23 5396.14,7024.5C5398.67,7020.77 5404.27,7022.5 5409.07,7017.7C5413.87,7012.9 5403.61,7014.63 5401.34,7013.96C5399.07,7013.3 5397.67,7007.69 5397.87,7005.9C5398.07,7004.09 5396.47,6999.5 5394.08,6997.5C5391.67,6995.49 5385.47,6997.69 5380.07,6999.9C5374.67,7002.09 5373.07,7004.09 5373.47,7001.5C5373.87,6998.89 5382.87,6992.9 5385.27,6992.5C5387.67,6992.1 5394.47,6989.3 5397.67,6985.7C5400.87,6982.1 5410.07,6986.3 5414.27,6986.69C5418.47,6987.09 5424.47,6989.5 5426.67,6986.5C5428.87,6983.5 5430.67,6983.5 5435.07,6982.9C5439.47,6982.3 5440.27,6975.9 5437.27,6973.1C5434.27,6970.3 5429.87,6960.1 5423.67,6956.89C5417.47,6953.7 5419.87,6951.69 5421.88,6949.1C5423.87,6946.5 5415.6,6940.1 5412.94,6933.43C5410.27,6926.76 5413.2,6925.16 5410.01,6924.9C5406.81,6924.63 5408.94,6929.69 5407.34,6934.23C5405.74,6938.76 5399.07,6936.37 5398.01,6936.09C5396.94,6935.83 5393.2,6931.29 5393.47,6927.03C5393.74,6922.77 5394.8,6919.03 5393.47,6917.69C5392.14,6916.37 5389.21,6917.43 5387.6,6915.83C5386,6914.23 5383.87,6909.43 5381.47,6907.3C5379.99,6905.97 5377.38,6905.98 5374.72,6905.99C5373.08,6905.99 5371.43,6906 5370.01,6905.7C5366.27,6904.9 5362.81,6906.23 5363.61,6908.63C5364.41,6911.03 5363.87,6914.23 5362.54,6922.77C5361.65,6928.41 5360.19,6928.33 5358.68,6928.25C5357.91,6928.21 5357.13,6928.17 5356.41,6928.89C5354.27,6931.03 5357.74,6931.56 5359.61,6937.7C5361.47,6943.83 5357.21,6948.37 5355.34,6950.23C5353.48,6952.1 5347.34,6953.43 5343.34,6954.76C5339.34,6956.09 5343.61,6961.17 5344.14,6965.43C5344.67,6969.7 5340.67,6975.83 5338.54,6976.63C5336.41,6977.43 5329.47,6968.63 5328.94,6963.57C5328.4,6958.5 5333.2,6952.9 5331.07,6951.29C5328.94,6949.69 5320.67,6949.69 5312.94,6943.29C5305.21,6936.89 5295.87,6933.43 5292.67,6925.7C5289.47,6917.96 5295.87,6911.03 5298.54,6905.43C5301.2,6899.83 5306.54,6900.63 5315.07,6897.43C5323.61,6894.23 5318.27,6891.29 5320.4,6891.29C5322.54,6891.29 5329.47,6890.23 5331.07,6888.1C5332.67,6885.96 5336.41,6883.83 5339.87,6881.97C5343.34,6880.1 5344.14,6876.37 5345.47,6874.23C5346.22,6873.03 5347.73,6874.11 5349.67,6875.18C5351.17,6876.02 5352.94,6876.86 5354.8,6876.63C5356.16,6876.46 5357.06,6876.48 5357.85,6876.5C5359.52,6876.54 5360.67,6876.58 5364.67,6874.77C5370.54,6872.09 5365.47,6870.49 5364.94,6867.56C5364.41,6864.63 5368.67,6865.43 5367.34,6862.23C5366,6859.03 5360.14,6855.83 5356.27,6856.37C5352.41,6856.9 5357.47,6860.63 5353.47,6864.36C5349.47,6868.1 5350.27,6870.49 5348.94,6871.03C5347.6,6871.56 5341.75,6869.69 5341.75,6867.83C5341.75,6865.96 5344.41,6864.36 5345.47,6863.57C5346.54,6862.77 5344.67,6858.76 5344.14,6857.43C5343.61,6856.09 5341.2,6859.03 5340.67,6861.69C5340.14,6864.36 5337.21,6864.63 5338.01,6862.23C5338.8,6859.83 5335.87,6856.89 5333.74,6853.96C5331.6,6851.03 5335.87,6851.29 5338.27,6847.56C5340.67,6843.83 5339.87,6842.23 5336.67,6840.36C5333.47,6838.5 5329.74,6841.43 5326,6845.43C5322.27,6849.43 5323.61,6849.17 5324.93,6854.23C5325.61,6856.8 5325.6,6856.76 5325.53,6856.73C5325.47,6856.69 5325.34,6856.66 5325.74,6859.03C5326.54,6863.83 5319.61,6863.29 5319.61,6863.29C5319.61,6863.29 5316.14,6863.03 5314.8,6862.5C5313.48,6861.96 5314.8,6860.1 5311.87,6859.03C5308.94,6857.97 5307.6,6862.77 5307.6,6862.77C5307.6,6862.77 5299.61,6862.5 5296.41,6862.5C5293.2,6862.5 5288.67,6860.9 5287.87,6859.56C5287.07,6858.23 5283.07,6855.57 5279.61,6855.57C5276.14,6855.57 5274.8,6858.5 5274.8,6861.96C5274.8,6865.43 5268.94,6865.7 5269.2,6864.09C5269.47,6862.5 5268.4,6856.89 5268.4,6856.89L5265.21,6858.76C5265.21,6858.76 5256.41,6858.23 5253.47,6857.97C5250.54,6857.69 5251.6,6853.96 5251.6,6853.96L5257.47,6853.43L5258.27,6852.1C5258.27,6852.1 5256.67,6850.49 5255.07,6849.97C5253.47,6849.43 5246.54,6848.1 5246.54,6848.1L5244.41,6845.16C5244.41,6845.16 5241.2,6845.16 5239.87,6845.16C5238.54,6845.16 5236.41,6847.83 5235.34,6847.83C5234.27,6847.83 5234.27,6844.9 5234.27,6844.9L5234.8,6842.5L5232.13,6843.83C5229.47,6845.16 5228.4,6844.09 5228.4,6844.09L5229.47,6841.43L5229.74,6838.5C5229.74,6838.5 5228.14,6836.63 5228.14,6837.97C5228.14,6839.3 5225.47,6842.23 5223.07,6841.97C5221.98,6841.84 5221.06,6842.27 5220.05,6842.7C5218.83,6843.22 5217.5,6843.73 5215.61,6843.29C5212.14,6842.5 5205.47,6844.9 5201.74,6848.1C5198.01,6851.29 5195.6,6852.36 5196.41,6848.63C5197.21,6844.9 5186,6845.43 5184.14,6844.63C5182.27,6843.83 5177.47,6843.29 5172.94,6842.77C5168.4,6842.23 5167.34,6838.5 5167.34,6838.5L5165.49,6831.91C5142.18,6844.62 5120.66,6860.18 5101.37,6878.1C5103.96,6882.83 5106.51,6887.24 5107.34,6887.83C5109.21,6889.17 5111.07,6887.83 5111.07,6887.83C5111.07,6887.83 5103.61,6892.9 5091.6,6903.49C5079.61,6914.08 5083.61,6915.3 5083.61,6919.3C5083.61,6923.29 5086,6921.69 5086,6921.69C5086,6921.69 5076.67,6931.29 5074.01,6933.96C5071.34,6936.63 5066.54,6940.36 5066.54,6940.36L5061.74,6946.23L5063.87,6947.03L5092.87,6922.7C5092.87,6922.7 5094.67,6922.3 5094.87,6921.3C5095.07,6920.3 5096.67,6916.89 5097.27,6916.69C5097.87,6916.5 5100.47,6912.3 5100.47,6912.3C5100.47,6912.3 5102.27,6911.5 5104.47,6909.5C5106.67,6907.5 5108.87,6904.5 5110.67,6904.3C5112.47,6904.09 5110.67,6906.89 5107.47,6909.5C5104.27,6912.09 5100.47,6917.69 5100.47,6917.69C5100.47,6917.69 5111.07,6912.09 5114.67,6909.69C5118.27,6907.3 5117.07,6903.7 5118.47,6903.5C5119.87,6903.29 5123.07,6906.29 5124.08,6909.3C5124.68,6911.13 5125.37,6910.5 5127.04,6909.87C5128.11,6909.47 5129.57,6909.06 5131.67,6909.3C5137.07,6909.9 5133.47,6914.09 5135.47,6916.89C5137.47,6919.69 5137.47,6920.49 5142.67,6919.3C5147.87,6918.1 5140.67,6930.49 5140.67,6930.49L5140.27,6934.5C5140.27,6934.5 5142.27,6937.3 5142.27,6937.7C5142.27,6938.1 5139.87,6945.3 5139.87,6945.3L5143.87,6945.3C5143.87,6945.3 5142.27,6947.3 5140.27,6948.5C5138.27,6949.69 5140.67,6952.9 5142.67,6954.5C5144.67,6956.09 5142.67,6954.5 5139.87,6960.9C5137.07,6967.3 5139.87,6965.3 5143.07,6969.69C5146.28,6974.09 5148.27,6976.09 5150.67,6978.89C5153.07,6981.69 5150.67,6988.1 5148.27,6988.5C5145.87,6988.89 5140.67,6984.9 5140.67,6984.9C5140.94,7026.22 5139.13,7020.11 5137.33,7014C5136.51,7011.24 5135.69,7008.48 5135.07,7010.1C5133.07,7015.3 5130.27,7018.1 5130.27,7021.29C5130.27,7024.5 5130.27,7029.3 5127.07,7033.7C5123.87,7038.1 5126.67,7048.1 5127.07,7049.3C5127.47,7050.49 5130.01,7055.7 5130.01,7055.7C5130.01,7055.7 5130.01,7066.76 5130.01,7072.1C5130.01,7077.43 5139.61,7080.1 5142.81,7084.63C5146,7089.16 5145.21,7097.97 5145.47,7099.43C5145.74,7100.9 5147.73,7104.5 5149.61,7106.23C5151.47,7107.96 5151.6,7110.9 5153.07,7113.57C5154.54,7116.23 5150.81,7115.3 5150.4,7118.76C5150,7122.23 5153.74,7122.36 5155.74,7123.16C5157.73,7123.96 5159.74,7125.16 5158.67,7128.89C5157.6,7132.63 5158.14,7131.29 5160.14,7133.43C5162.14,7135.56 5161.2,7134.23 5162.27,7138.23C5163.34,7142.23 5166,7140.49 5166,7140.49C5166,7140.49 5166,7142.23 5166,7142.9C5166,7143.57 5168.4,7144.23 5168.4,7144.23L5170.01,7141.83C5170.01,7141.83 5168.8,7141.3 5168.8,7140.9C5168.8,7140.49 5168.54,7138.5 5168.54,7138.5L5164.94,7137.03C5164.94,7137.03 5164.41,7135.03 5164.41,7134.23C5164.41,7133.43 5164.41,7131.29 5164.41,7130.77C5164.41,7130.23 5163.07,7129.83 5163.07,7129.83C5163.07,7129.83 5162.94,7126.23 5162.94,7124.09C5162.94,7121.97 5159.47,7119.97 5159.34,7119.03C5159.21,7118.1 5158.94,7115.03 5157.6,7113.03C5156.28,7111.03 5153.07,7106.76 5153.2,7102.23C5153.34,7097.69 5152.13,7094.76 5153.87,7094.76C5155.6,7094.76 5158.54,7099.17 5159.34,7099.97C5160.14,7100.77 5159.47,7106.09 5162.81,7111.03C5166.14,7115.96 5174.77,7126.09 5173.97,7126.89C5173.17,7127.7 5170.97,7127.4 5172.17,7130.4C5173.37,7133.4 5176.27,7134.09 5178.47,7134.69C5180.67,7135.3 5184.27,7147.5 5186.67,7151.5C5189.08,7155.49 5186.07,7155.49 5185.47,7158.1C5184.87,7160.7 5185.67,7162.1 5189.67,7163.89C5193.67,7165.7 5192.87,7170.1 5197.47,7171.5C5202.07,7172.9 5211.07,7178.76 5213.47,7179.3C5215.87,7179.83 5215.61,7181.96 5218.8,7182.26C5222,7182.55 5222.54,7183.57 5224.14,7184.63C5225.74,7185.7 5231.34,7183.57 5232.41,7182.77C5233.47,7181.96 5234.54,7182.23 5237.47,7182.77C5240.4,7183.3 5248.94,7192.36 5251.6,7195.03C5253.12,7196.55 5254.47,7195.99 5255.75,7195.42C5256.71,7195 5257.63,7194.57 5258.54,7195.03C5260.68,7196.09 5264.67,7198.5 5266.27,7198.23C5267.87,7197.96 5267.87,7196.63 5268.94,7196.63C5270.01,7196.63 5269.2,7198.76 5273.2,7203.83C5277.21,7208.89 5276.41,7209.97 5276.41,7210.77C5276.41,7211.56 5278.27,7215.57 5280.94,7215.03C5283.61,7214.5 5286.28,7217.28 5286.28,7217.28L5286.28,7221.69C5286.28,7221.69 5295.34,7222.23 5297.19,7222.77C5299.05,7223.3 5299.34,7227.3 5300.14,7227.83C5300.94,7228.36 5304.14,7224.63 5303.61,7222.5C5303.07,7220.36 5307.07,7219.3 5308.67,7217.7C5310.27,7216.09 5312.41,7219.56 5313.74,7221.16C5315.07,7222.77 5318.01,7226.76 5318.01,7229.97C5318.01,7233.16 5317.74,7237.97 5317.74,7243.03C5317.74,7248.1 5313.74,7250.5 5310.81,7253.96C5307.87,7257.44 5305.21,7259.03 5303.87,7260.63C5302.54,7262.23 5301.47,7267.3 5302,7270.23C5302.54,7273.16 5306.27,7270.5 5306.27,7273.96C5306.27,7277.43 5302.81,7275.57 5298.8,7278.76C5294.81,7281.97 5299.34,7282.23 5300.67,7284.89C5302,7287.56 5298.8,7285.43 5298.8,7288.63C5298.8,7291.83 5303.61,7291.3 5308.14,7292.63C5312.67,7293.96 5317.47,7305.7 5320.14,7311.83C5322.81,7317.97 5325.47,7323.3 5328.14,7324.36C5330.81,7325.44 5331.07,7327.83 5336.67,7329.17C5342.27,7330.5 5346.67,7334.9 5349.82,7334.9C5352.96,7334.9 5352.87,7340.3 5351.87,7342.5C5350.87,7344.7 5351.67,7345.3 5352.47,7353.3C5353.27,7361.3 5350.67,7379.3 5349.82,7381.3C5348.96,7383.3 5349.21,7382.9 5350.67,7384.36C5352.14,7385.83 5348.27,7392.23 5348.14,7394.23C5348.01,7396.23 5344.27,7397.43 5343.5,7399.3C5342.73,7401.16 5345.34,7401.16 5345.87,7402.9C5346.41,7404.63 5344.81,7408.9 5346.41,7410.5C5348.01,7412.09 5349.47,7411.56 5349.88,7414.1C5350.3,7416.63 5348.4,7419.03 5345.74,7419.03C5343.07,7419.03 5343.07,7421.83 5344.27,7420.9C5345.47,7419.97 5347.07,7420.9 5347.07,7420.9L5349.21,7424.67C5355.74,7424 5362.21,7423.11 5368.62,7422.06C5369.99,7420.47 5371.18,7419.19 5372.14,7419.04C5375.34,7418.5 5373.74,7415.3 5371.88,7408.63C5370.7,7404.43 5372.8,7405.1 5375.52,7405.77C5377.11,7406.16 5378.92,7406.55 5380.4,7405.96C5384.41,7404.36 5383.07,7399.04 5388.67,7398.23C5394.27,7397.44 5400.4,7392.36 5402.81,7388.63C5405.21,7384.9 5401.74,7383.03 5410.54,7384.1C5419.34,7385.17 5427.34,7373.97 5434.27,7365.7C5441.2,7357.44 5435.07,7354.77 5447.34,7347.03C5459.61,7339.3 5479.47,7318.3 5480.67,7311.7C5481.88,7305.1 5478.47,7304.9 5485.47,7300.3C5492.47,7295.7 5501.28,7282.9 5502.07,7279.3C5502.87,7275.7 5500.87,7270.3 5498.87,7270.3Z" style="fill:rgb(226,226,226);fill-rule:nonzero;"/>
            </g>
            <g transform="matrix(0.280306,1.61778e-32,1.61778e-32,0.280306,-1331.54,-1766.13)">
                <path d="M5431.34,6831.56C5421.2,6831.56 5419.08,6841.69 5428.14,6843.29C5437.21,6844.9 5455.87,6844.9 5459.07,6858.23C5462.27,6871.56 5449.47,6875.3 5459.07,6881.69C5468.67,6888.1 5456.94,6895.03 5456.94,6904.09C5456.94,6913.16 5461.2,6920.63 5467.6,6925.43C5474.01,6930.23 5480.4,6936.63 5480.94,6940.36C5481.47,6944.09 5487.87,6943.03 5487.87,6943.03C5487.87,6943.03 5487.34,6940.9 5487.87,6937.7C5488.4,6934.5 5493.74,6930.76 5493.74,6921.69C5493.74,6912.63 5498.5,6913.16 5502.25,6913.7C5504.13,6913.96 5506.94,6913.83 5509.54,6913.7C5512.14,6913.56 5514.54,6913.43 5515.6,6913.7C5517.74,6914.23 5530.54,6914.23 5531.6,6907.83C5532.67,6901.43 5523.07,6891.83 5523.07,6891.83C5523.07,6891.83 5528.46,6882.9 5528.4,6878.83C5528.4,6878.01 5527.84,6876.08 5526.91,6873.49C5501.19,6850.61 5471.72,6831.84 5439.52,6818.26C5439.51,6823.29 5438.4,6831.56 5431.34,6831.56Z" style="fill:rgb(226,226,226);fill-rule:nonzero;"/>
            </g>
            <g transform="matrix(0.280306,1.61778e-32,1.61778e-32,0.280306,-1331.54,-1766.13)">
                <path d="M5620.68,7092.09C5602.27,7076.89 5590.27,7076.89 5588.67,7080.9C5587.07,7084.9 5601.47,7099.3 5588.67,7116.89C5575.87,7134.5 5566.28,7141.69 5571.07,7156.09C5575.87,7170.49 5550.96,7183.29 5569.82,7196.09C5588.67,7208.89 5584.67,7208.89 5598.27,7208.1C5611.64,7207.31 5609.89,7228.45 5608.91,7231.36C5624.47,7193.97 5633.07,7152.96 5633.07,7109.92C5633.07,7108.61 5633.04,7107.3 5633.02,7105.99C5630.77,7102.24 5627.33,7097.59 5620.68,7092.09Z" style="fill:rgb(226,226,226);fill-rule:nonzero;"/>
            </g>
            <g transform="matrix(0.280306,1.61778e-32,1.61778e-32,0.280306,-1331.54,-1766.13)">
                <path d="M5345.95,7424.96C5346.9,7424.63 5347.86,7424.29 5348.8,7423.95L5349.2,7424.65C5348.12,7424.76 5347.03,7424.86 5345.95,7424.96ZM5368.62,7422.05C5370,7420.47 5371.18,7419.19 5372.14,7419.04C5372.24,7419.02 5372.33,7419 5372.42,7418.98L5372.42,7421.4C5371.16,7421.63 5369.89,7421.84 5368.62,7422.05Z" style="fill:rgb(31,176,172);fill-rule:nonzero;"/>
            </g>
            <g transform="matrix(0.280306,1.61778e-32,1.61778e-32,0.280306,-1331.54,-1766.13)">
                <path d="M5349.2,7424.65L5348.8,7423.95C5356.97,7421.02 5364.84,7417.82 5372.42,7414.39L5372.42,7418.98C5372.33,7419 5372.24,7419.02 5372.14,7419.04C5371.18,7419.19 5370,7420.47 5368.62,7422.05C5362.21,7423.11 5355.73,7423.98 5349.2,7424.65Z" style="fill:rgb(207,207,207);fill-rule:nonzero;"/>
            </g>
            <g transform="matrix(0.280306,1.61778e-32,1.61778e-32,0.280306,-1331.54,-1766.13)">
                <path d="M5630.81,7147.99C5630.81,7147.98 5630.81,7147.98 5630.81,7147.97L5630.81,7147.99ZM5630.86,7147.51C5630.86,7147.5 5630.86,7147.52 5630.86,7147.51ZM5630.92,7147.04C5630.92,7147.03 5630.92,7147.05 5630.92,7147.04ZM5631.52,7141.44C5631.52,7141.43 5631.52,7141.41 5631.53,7141.4C5631.52,7141.41 5631.52,7141.43 5631.52,7141.44ZM5631.56,7141C5631.57,7140.97 5631.57,7140.94 5631.57,7140.91C5631.57,7140.94 5631.57,7140.97 5631.56,7141ZM5631.61,7140.55C5631.61,7140.5 5631.62,7140.47 5631.62,7140.41C5631.62,7140.46 5631.61,7140.5 5631.61,7140.55ZM5631.65,7140.08C5631.66,7140.02 5631.66,7139.98 5631.67,7139.93C5631.66,7139.98 5631.66,7140.03 5631.65,7140.08ZM5631.7,7139.61C5631.7,7139.55 5631.71,7139.5 5631.71,7139.44C5631.71,7139.5 5631.7,7139.55 5631.7,7139.61ZM5631.74,7139.12C5631.75,7139.07 5631.75,7139.02 5631.76,7138.97C5631.75,7139.02 5631.75,7139.07 5631.74,7139.12ZM5631.79,7138.63C5631.79,7138.59 5631.79,7138.54 5631.8,7138.5C5631.79,7138.55 5631.79,7138.58 5631.79,7138.63ZM5631.83,7138.14C5631.83,7138.1 5631.84,7138.07 5631.84,7138.03C5631.84,7138.07 5631.83,7138.1 5631.83,7138.14ZM5631.87,7137.67C5631.88,7137.62 5631.88,7137.59 5631.88,7137.55C5631.88,7137.59 5631.88,7137.63 5631.87,7137.67ZM5631.91,7137.19C5631.92,7137.14 5631.92,7137.11 5631.92,7137.07C5631.92,7137.11 5631.92,7137.15 5631.91,7137.19ZM5631.95,7136.71C5631.96,7136.67 5631.96,7136.63 5631.96,7136.59C5631.96,7136.64 5631.96,7136.66 5631.95,7136.71ZM5632.18,7133.92C5632.18,7133.89 5632.18,7133.87 5632.18,7133.84C5632.18,7133.87 5632.18,7133.89 5632.18,7133.92ZM5632.21,7133.48C5632.21,7133.44 5632.21,7133.39 5632.22,7133.35C5632.21,7133.4 5632.21,7133.43 5632.21,7133.48ZM5632.24,7133.03C5632.25,7132.97 5632.25,7132.91 5632.25,7132.85C5632.25,7132.91 5632.25,7132.97 5632.24,7133.03ZM5632.28,7132.55C5632.28,7132.5 5632.28,7132.42 5632.29,7132.37C5632.28,7132.43 5632.28,7132.49 5632.28,7132.55ZM5632.31,7132.06C5632.31,7132 5632.32,7131.95 5632.32,7131.88C5632.32,7131.94 5632.31,7132 5632.31,7132.06ZM5632.34,7131.58C5632.35,7131.52 5632.35,7131.45 5632.35,7131.39C5632.35,7131.45 5632.35,7131.52 5632.34,7131.58ZM5632.37,7131.1C5632.38,7131.04 5632.38,7130.96 5632.39,7130.89C5632.38,7130.96 5632.38,7131.03 5632.37,7131.1ZM5632.41,7130.62C5632.41,7130.55 5632.42,7130.48 5632.42,7130.41C5632.41,7130.48 5632.41,7130.55 5632.41,7130.62ZM5632.44,7130.12C5632.44,7130.06 5632.45,7129.99 5632.45,7129.93C5632.45,7129.99 5632.44,7130.06 5632.44,7130.12ZM5632.47,7129.64C5632.47,7129.56 5632.48,7129.5 5632.48,7129.43C5632.48,7129.5 5632.47,7129.57 5632.47,7129.64ZM5632.5,7129.16C5632.5,7129.08 5632.51,7129.01 5632.51,7128.92C5632.51,7129 5632.5,7129.08 5632.5,7129.16ZM5632.53,7128.66C5632.53,7128.6 5632.53,7128.52 5632.54,7128.46C5632.53,7128.53 5632.53,7128.59 5632.53,7128.66ZM5632.55,7128.17C5632.56,7128.11 5632.56,7128.03 5632.57,7127.96C5632.56,7128.03 5632.56,7128.11 5632.55,7128.17ZM5632.58,7127.69C5632.59,7127.61 5632.59,7127.55 5632.59,7127.48C5632.59,7127.55 5632.59,7127.62 5632.58,7127.69ZM5632.61,7127.2L5632.61,7127.19L5632.61,7127.2ZM5632.66,7126.27C5632.66,7126.26 5632.66,7126.25 5632.66,7126.24C5632.66,7126.25 5632.66,7126.26 5632.66,7126.27ZM5632.67,7125.93C5632.68,7125.87 5632.68,7125.8 5632.68,7125.74C5632.68,7125.81 5632.68,7125.86 5632.67,7125.93ZM5632.7,7125.5C5632.7,7125.41 5632.7,7125.33 5632.71,7125.24C5632.7,7125.33 5632.7,7125.41 5632.7,7125.5ZM5632.72,7124.99C5632.72,7124.9 5632.73,7124.84 5632.73,7124.76C5632.73,7124.84 5632.72,7124.91 5632.72,7124.99ZM5632.74,7124.5C5632.75,7124.43 5632.75,7124.34 5632.75,7124.26C5632.75,7124.34 5632.75,7124.42 5632.74,7124.5ZM5632.76,7123.99C5632.77,7123.92 5632.77,7123.86 5632.77,7123.78C5632.77,7123.85 5632.77,7123.92 5632.76,7123.99ZM5632.79,7123.51C5632.79,7123.44 5632.79,7123.35 5632.79,7123.28C5632.79,7123.36 5632.79,7123.43 5632.79,7123.51ZM5632.81,7123.03C5632.81,7122.94 5632.81,7122.87 5632.82,7122.78C5632.81,7122.86 5632.81,7122.95 5632.81,7123.03ZM5632.83,7122.54C5632.83,7122.46 5632.83,7122.37 5632.83,7122.29C5632.83,7122.38 5632.83,7122.46 5632.83,7122.54ZM5632.84,7122.04C5632.85,7121.96 5632.85,7121.86 5632.85,7121.79C5632.85,7121.87 5632.85,7121.96 5632.84,7122.04ZM5632.86,7121.56C5632.86,7121.47 5632.87,7121.39 5632.87,7121.3C5632.87,7121.38 5632.86,7121.48 5632.86,7121.56ZM5632.88,7121.05C5632.88,7120.97 5632.89,7120.88 5632.89,7120.81C5632.89,7120.89 5632.88,7120.97 5632.88,7121.05ZM5632.9,7120.57C5632.9,7120.48 5632.9,7120.39 5632.9,7120.3C5632.9,7120.39 5632.9,7120.48 5632.9,7120.57ZM5632.91,7120.07C5632.92,7119.97 5632.92,7119.86 5632.92,7119.77C5632.92,7119.87 5632.92,7119.97 5632.91,7120.07ZM5632.93,7119.59C5632.93,7119.48 5632.93,7119.38 5632.94,7119.28C5632.93,7119.38 5632.93,7119.49 5632.93,7119.59ZM5632.94,7119.08C5632.95,7118.92 5632.95,7118.76 5632.96,7118.6C5632.95,7118.76 5632.95,7118.92 5632.94,7119.08ZM5632.96,7118.6C5632.96,7118.46 5632.96,7118.33 5632.97,7118.19C5632.96,7118.32 5632.96,7118.47 5632.96,7118.6ZM5632.97,7117.87C5632.98,7117.79 5632.98,7117.69 5632.98,7117.6C5632.98,7117.69 5632.98,7117.78 5632.97,7117.87ZM5632.99,7117.39C5632.99,7117.29 5632.99,7117.21 5632.99,7117.12C5632.99,7117.21 5632.99,7117.3 5632.99,7117.39ZM5633,7116.88C5633,7116.79 5633,7116.7 5633,7116.61C5633,7116.7 5633,7116.79 5633,7116.88ZM5633.01,7116.38C5633.01,7116.29 5633.01,7116.21 5633.01,7116.12C5633.01,7116.2 5633.01,7116.3 5633.01,7116.38ZM5633.07,7109.92C5633.07,7109.76 5633.07,7109.59 5633.07,7109.43C5633.07,7109.59 5633.07,7109.76 5633.07,7109.92ZM5633.07,7109.29C5633.07,7109.18 5633.07,7109.06 5633.07,7108.95C5633.07,7109.06 5633.07,7109.17 5633.07,7109.29ZM5633.07,7108.76C5633.07,7108.65 5633.07,7108.56 5633.07,7108.46C5633.07,7108.55 5633.07,7108.66 5633.07,7108.76ZM5633.07,7108.27C5633.07,7108.17 5633.07,7108.07 5633.07,7107.97C5633.07,7108.07 5633.07,7108.17 5633.07,7108.27ZM5633.06,7107.77C5633.06,7107.67 5633.06,7107.57 5633.06,7107.48C5633.06,7107.58 5633.06,7107.66 5633.06,7107.77ZM5633.06,7107.29C5633.06,7107.18 5633.06,7107.09 5633.06,7106.98C5633.06,7107.08 5633.06,7107.18 5633.06,7107.29ZM5633.06,7106.8C5633.06,7106.69 5633.05,7106.57 5633.05,7106.46C5633.05,7106.57 5633.06,7106.69 5633.06,7106.8ZM5633.05,7106.31C5633.05,7106.19 5633.05,7106.06 5633.05,7105.93C5633.05,7106.07 5633.05,7106.18 5633.05,7106.31ZM5633.05,7105.82C5633.04,7105.65 5633.04,7105.51 5633.04,7105.34C5633.04,7105.5 5633.04,7105.66 5633.05,7105.82ZM5633.04,7105.21C5633.04,7105.08 5633.03,7104.98 5633.03,7104.85C5633.03,7104.98 5633.04,7105.09 5633.04,7105.21ZM5633.03,7104.68C5633.03,7104.57 5633.03,7104.47 5633.02,7104.36C5633.03,7104.46 5633.03,7104.58 5633.03,7104.68ZM5633.02,7104.18C5633.02,7104.08 5633.02,7103.98 5633.02,7103.89C5633.02,7103.99 5633.02,7104.07 5633.02,7104.18ZM5633.01,7103.67C5633.01,7103.59 5633.01,7103.48 5633.01,7103.4C5633.01,7103.49 5633.01,7103.58 5633.01,7103.67ZM5633,7103.19C5633,7103.09 5633,7103 5633,7102.91C5633,7103 5633,7103.09 5633,7103.19ZM5632.99,7102.71C5632.99,7102.61 5632.99,7102.51 5632.98,7102.42C5632.99,7102.51 5632.99,7102.61 5632.99,7102.71ZM5632.98,7102.21C5632.98,7102.13 5632.98,7102.04 5632.97,7101.95C5632.98,7102.04 5632.98,7102.13 5632.98,7102.21ZM5632.97,7101.73C5632.96,7101.57 5632.96,7101.42 5632.96,7101.26C5632.96,7101.41 5632.96,7101.57 5632.97,7101.73ZM5632.95,7101.11C5632.95,7100.99 5632.95,7100.9 5632.94,7100.78C5632.95,7100.89 5632.95,7101 5632.95,7101.11ZM5632.94,7100.57C5632.93,7100.48 5632.93,7100.39 5632.93,7100.29C5632.93,7100.39 5632.93,7100.48 5632.94,7100.57ZM5632.92,7100.08C5632.92,7100 5632.92,7099.9 5632.91,7099.82C5632.92,7099.9 5632.92,7100 5632.92,7100.08ZM5632.91,7099.59C5632.9,7099.49 5632.9,7099.42 5632.9,7099.32C5632.9,7099.41 5632.9,7099.49 5632.91,7099.59ZM5632.89,7099.12C5632.89,7099.02 5632.88,7098.93 5632.88,7098.84C5632.88,7098.93 5632.89,7099.03 5632.89,7099.12ZM5632.87,7098.62C5632.87,7098.54 5632.87,7098.43 5632.86,7098.35C5632.87,7098.44 5632.87,7098.53 5632.87,7098.62ZM5632.86,7098.15C5632.85,7098.06 5632.85,7097.95 5632.85,7097.87C5632.85,7097.96 5632.85,7098.05 5632.86,7098.15ZM5632.84,7097.65C5632.83,7097.34 5632.81,7097.02 5632.8,7096.71C5632.81,7097.03 5632.83,7097.33 5632.84,7097.65ZM5632.79,7096.54C5632.79,7096.43 5632.79,7096.32 5632.78,7096.22C5632.79,7096.32 5632.79,7096.44 5632.79,7096.54ZM5632.77,7096.03C5632.77,7095.92 5632.76,7095.84 5632.76,7095.74C5632.76,7095.83 5632.77,7095.94 5632.77,7096.03ZM5632.75,7095.55C5632.75,7095.45 5632.74,7095.34 5632.74,7095.25C5632.74,7095.34 5632.75,7095.45 5632.75,7095.55ZM5632.73,7095.05C5632.72,7094.96 5632.72,7094.88 5632.72,7094.78C5632.72,7094.88 5632.72,7094.96 5632.73,7095.05ZM5632.71,7094.56C5632.7,7094.48 5632.7,7094.38 5632.69,7094.3C5632.7,7094.38 5632.7,7094.48 5632.71,7094.56ZM5632.68,7094.07C5632.68,7093.99 5632.67,7093.92 5632.67,7093.84C5632.67,7093.91 5632.68,7094 5632.68,7094.07ZM5632.66,7093.59C5632.65,7093.51 5632.65,7093.44 5632.65,7093.36C5632.65,7093.43 5632.65,7093.52 5632.66,7093.59ZM5632.62,7092.9C5632.62,7092.82 5632.61,7092.74 5632.61,7092.66C5632.61,7092.73 5632.62,7092.83 5632.62,7092.9ZM5632.6,7092.43C5632.59,7092.35 5632.59,7092.26 5632.58,7092.18C5632.59,7092.26 5632.59,7092.35 5632.6,7092.43ZM5632.57,7091.96C5632.57,7091.87 5632.56,7091.79 5632.56,7091.69C5632.56,7091.79 5632.57,7091.87 5632.57,7091.96ZM5632.54,7091.47C5632.54,7091.39 5632.53,7091.3 5632.53,7091.22C5632.53,7091.3 5632.54,7091.38 5632.54,7091.47ZM5632.52,7091C5632.51,7090.91 5632.5,7090.81 5632.5,7090.73C5632.5,7090.82 5632.51,7090.9 5632.52,7091ZM5632.49,7090.51C5632.48,7090.43 5632.48,7090.33 5632.47,7090.25C5632.48,7090.34 5632.48,7090.42 5632.49,7090.51ZM5632.46,7090.04C5632.45,7089.94 5632.45,7089.87 5632.44,7089.77C5632.45,7089.87 5632.45,7089.94 5632.46,7090.04ZM5632.43,7089.54C5632.42,7089.46 5632.41,7089.36 5632.41,7089.27C5632.41,7089.36 5632.42,7089.46 5632.43,7089.54ZM5632.4,7089.08C5632.39,7088.92 5632.38,7088.77 5632.37,7088.61C5632.38,7088.77 5632.39,7088.92 5632.4,7089.08ZM5632.36,7088.47C5632.35,7088.35 5632.34,7088.24 5632.33,7088.13C5632.34,7088.24 5632.35,7088.36 5632.36,7088.47ZM5632.32,7087.94C5632.31,7087.84 5632.31,7087.75 5632.3,7087.66C5632.31,7087.75 5632.31,7087.84 5632.32,7087.94ZM5632.28,7087.42C5632.28,7087.34 5632.27,7087.27 5632.27,7087.19C5632.27,7087.27 5632.28,7087.34 5632.28,7087.42ZM5632.25,7086.94C5632.24,7086.86 5632.24,7086.79 5632.23,7086.71C5632.24,7086.79 5632.24,7086.86 5632.25,7086.94ZM5632.22,7086.47C5632.21,7086.4 5632.2,7086.31 5632.2,7086.23C5632.21,7086.32 5632.21,7086.38 5632.22,7086.47ZM5632.18,7085.98C5632.17,7085.91 5632.17,7085.85 5632.17,7085.79C5632.17,7085.86 5632.17,7085.91 5632.18,7085.98ZM5632.14,7085.5C5632.14,7085.44 5632.13,7085.39 5632.13,7085.32C5632.13,7085.38 5632.14,7085.44 5632.14,7085.5ZM5632.11,7085.03C5632.1,7084.94 5632.09,7084.86 5632.09,7084.76C5632.09,7084.85 5632.1,7084.95 5632.11,7085.03ZM5632.06,7084.41C5632.05,7084.3 5632.04,7084.22 5632.03,7084.11C5632.04,7084.22 5632.05,7084.31 5632.06,7084.41ZM5632.01,7083.86C5632.01,7083.79 5632,7083.71 5632,7083.64C5632,7083.71 5632.01,7083.79 5632.01,7083.86ZM5631.98,7083.39C5631.97,7083.32 5631.96,7083.23 5631.96,7083.16C5631.96,7083.24 5631.97,7083.31 5631.98,7083.39ZM5631.94,7082.94C5631.93,7082.84 5631.92,7082.77 5631.92,7082.67C5631.92,7082.75 5631.93,7082.85 5631.94,7082.94ZM5631.9,7082.46C5631.89,7082.37 5631.88,7082.28 5631.87,7082.2C5631.88,7082.28 5631.89,7082.37 5631.9,7082.46ZM5631.85,7081.98C5631.85,7081.9 5631.84,7081.81 5631.83,7081.73C5631.84,7081.81 5631.85,7081.9 5631.85,7081.98ZM5631.81,7081.49C5631.8,7081.4 5631.8,7081.33 5631.79,7081.23C5631.8,7081.33 5631.8,7081.4 5631.81,7081.49ZM5631.77,7081.03C5631.76,7080.92 5631.75,7080.8 5631.74,7080.68C5631.75,7080.79 5631.76,7080.92 5631.77,7081.03ZM5631.73,7080.55C5631.71,7080.39 5631.7,7080.25 5631.68,7080.08C5631.7,7080.24 5631.71,7080.4 5631.73,7080.55ZM5631.67,7079.93C5631.66,7079.82 5631.65,7079.73 5631.64,7079.63C5631.65,7079.73 5631.66,7079.83 5631.67,7079.93ZM5631.62,7079.39C5631.61,7079.32 5631.6,7079.22 5631.59,7079.15C5631.6,7079.22 5631.61,7079.31 5631.62,7079.39ZM5631.57,7078.9C5631.56,7078.83 5631.56,7078.76 5631.55,7078.69C5631.56,7078.76 5631.56,7078.83 5631.57,7078.9ZM5631.52,7078.43C5631.52,7078.36 5631.51,7078.27 5631.5,7078.21C5631.51,7078.29 5631.52,7078.35 5631.52,7078.43ZM5631.48,7077.95C5631.47,7077.89 5631.46,7077.82 5631.46,7077.76C5631.46,7077.82 5631.47,7077.89 5631.48,7077.95ZM5631.43,7077.48C5631.42,7077.42 5631.42,7077.35 5631.41,7077.29C5631.42,7077.35 5631.42,7077.41 5631.43,7077.48ZM5631.38,7077.01C5631.38,7076.96 5631.37,7076.9 5631.36,7076.85C5631.37,7076.9 5631.38,7076.95 5631.38,7077.01ZM5631.25,7075.79C5631.25,7075.73 5631.24,7075.69 5631.24,7075.64C5631.24,7075.69 5631.25,7075.73 5631.25,7075.79ZM5631.2,7075.34C5631.2,7075.29 5631.19,7075.22 5631.19,7075.17C5631.19,7075.22 5631.2,7075.29 5631.2,7075.34ZM5631.16,7074.9C5631.15,7074.83 5631.14,7074.76 5631.13,7074.69C5631.14,7074.77 5631.15,7074.82 5631.16,7074.9ZM5631.1,7074.43C5631.1,7074.36 5631.09,7074.29 5631.08,7074.22C5631.09,7074.29 5631.1,7074.36 5631.1,7074.43ZM5631.05,7073.97C5631.04,7073.9 5631.04,7073.83 5631.03,7073.76C5631.04,7073.82 5631.04,7073.9 5631.05,7073.97ZM5631,7073.48C5630.99,7073.42 5630.98,7073.37 5630.98,7073.3C5630.98,7073.37 5630.99,7073.42 5631,7073.48ZM5630.94,7073.02C5630.94,7072.96 5630.93,7072.92 5630.92,7072.86C5630.93,7072.92 5630.94,7072.97 5630.94,7073.02ZM5630.74,7071.35C5630.74,7071.29 5630.73,7071.25 5630.72,7071.18C5630.73,7071.24 5630.74,7071.3 5630.74,7071.35ZM5630.69,7070.9C5630.68,7070.84 5630.67,7070.78 5630.67,7070.72C5630.67,7070.78 5630.68,7070.84 5630.69,7070.9ZM5630.63,7070.44C5630.62,7070.37 5630.62,7070.32 5630.61,7070.25C5630.62,7070.32 5630.63,7070.38 5630.63,7070.44ZM5630.57,7069.96C5630.57,7069.91 5630.56,7069.87 5630.55,7069.81C5630.56,7069.87 5630.57,7069.91 5630.57,7069.96ZM5630.51,7069.49C5630.51,7069.44 5630.5,7069.41 5630.5,7069.35C5630.5,7069.4 5630.51,7069.45 5630.51,7069.49ZM5630.46,7069.04C5630.45,7068.99 5630.44,7068.95 5630.44,7068.89C5630.44,7068.94 5630.45,7068.99 5630.46,7069.04ZM5630.4,7068.57C5630.39,7068.54 5630.39,7068.52 5630.38,7068.49C5630.39,7068.51 5630.39,7068.55 5630.4,7068.57ZM5630.24,7067.38C5630.23,7067.32 5630.22,7067.28 5630.21,7067.21C5630.22,7067.27 5630.23,7067.33 5630.24,7067.38ZM5630.18,7066.95C5630.17,7066.89 5630.16,7066.81 5630.15,7066.75C5630.16,7066.82 5630.17,7066.89 5630.18,7066.95ZM5630.11,7066.47C5630.1,7066.41 5630.1,7066.36 5630.09,7066.29C5630.1,7066.35 5630.11,7066.42 5630.11,7066.47ZM5630.05,7066C5630.04,7065.95 5630.03,7065.9 5630.03,7065.85C5630.04,7065.91 5630.04,7065.94 5630.05,7066ZM5629.98,7065.53C5629.98,7065.49 5629.97,7065.44 5629.96,7065.4C5629.97,7065.44 5629.98,7065.48 5629.98,7065.53ZM5629.92,7065.07C5629.91,7065.03 5629.91,7064.99 5629.9,7064.95C5629.91,7064.99 5629.91,7065.04 5629.92,7065.07ZM5629.85,7064.61C5629.85,7064.6 5629.85,7064.59 5629.85,7064.58C5629.85,7064.59 5629.85,7064.6 5629.85,7064.61ZM5629.6,7062.86L5629.59,7062.84L5629.6,7062.86ZM5629.53,7062.43C5629.53,7062.41 5629.53,7062.41 5629.53,7062.39C5629.53,7062.41 5629.53,7062.42 5629.53,7062.43ZM5629.47,7062C5629.46,7061.99 5629.46,7061.95 5629.46,7061.94C5629.46,7061.96 5629.46,7061.98 5629.47,7062ZM5629.4,7061.55C5629.39,7061.53 5629.39,7061.52 5629.39,7061.5C5629.39,7061.52 5629.4,7061.53 5629.4,7061.55ZM5629.33,7061.1C5629.33,7061.09 5629.33,7061.09 5629.32,7061.08C5629.33,7061.09 5629.33,7061.09 5629.33,7061.1ZM5628.84,7058.04L5628.84,7058.02C5628.84,7058.03 5628.84,7058.04 5628.84,7058.04ZM5628.77,7057.6L5628.76,7057.59L5628.77,7057.6Z" style="fill:rgb(62,194,214);fill-rule:nonzero;"/>
            </g>
            <g transform="matrix(0.280306,1.61778e-32,1.61778e-32,0.280306,-1331.54,-1766.13)">
                <path d="M5519.11,7255.96C5558.34,7149.92 5541.89,7020.46 5493.54,6924.6C5493.67,6923.7 5493.74,6922.73 5493.74,6921.69C5493.74,6914.77 5496.52,6913.45 5499.51,6913.45C5500.43,6913.45 5501.37,6913.57 5502.25,6913.7C5503.04,6913.81 5504,6913.85 5505.04,6913.85C5506.46,6913.85 5508.03,6913.77 5509.54,6913.7C5511.04,6913.62 5512.47,6913.54 5513.62,6913.54C5514.46,6913.54 5515.15,6913.58 5515.6,6913.7C5516.08,6913.82 5517.1,6913.91 5518.4,6913.91C5522.89,6913.91 5530.78,6912.8 5531.6,6907.83C5532.67,6901.43 5523.07,6891.83 5523.07,6891.83C5523.07,6891.83 5528.46,6882.9 5528.4,6878.83C5528.4,6878.01 5527.84,6876.08 5526.91,6873.49C5509.06,6857.62 5489.42,6843.72 5468.31,6832.17C5551.88,6877.89 5612.56,6960.22 5628.76,7057.59L5628.77,7057.6C5628.79,7057.74 5628.81,7057.87 5628.84,7058.02L5628.84,7058.04C5629,7059.05 5629.17,7060.07 5629.32,7061.08C5629.33,7061.09 5629.33,7061.09 5629.33,7061.1C5629.35,7061.23 5629.37,7061.36 5629.39,7061.5C5629.39,7061.52 5629.39,7061.53 5629.4,7061.55C5629.42,7061.68 5629.44,7061.82 5629.46,7061.94C5629.46,7061.95 5629.46,7061.99 5629.47,7062C5629.49,7062.12 5629.51,7062.26 5629.53,7062.39C5629.53,7062.41 5629.53,7062.41 5629.53,7062.43C5629.55,7062.57 5629.57,7062.71 5629.59,7062.84L5629.6,7062.86C5629.68,7063.43 5629.76,7064 5629.85,7064.58C5629.85,7064.59 5629.85,7064.6 5629.85,7064.61C5629.87,7064.72 5629.88,7064.83 5629.9,7064.95C5629.91,7064.99 5629.91,7065.03 5629.92,7065.07C5629.93,7065.18 5629.95,7065.29 5629.96,7065.4C5629.97,7065.44 5629.98,7065.49 5629.98,7065.53C5630,7065.63 5630.01,7065.75 5630.03,7065.85C5630.03,7065.9 5630.04,7065.95 5630.05,7066C5630.06,7066.1 5630.07,7066.19 5630.09,7066.29C5630.1,7066.36 5630.1,7066.41 5630.11,7066.47C5630.13,7066.56 5630.14,7066.66 5630.15,7066.75C5630.16,7066.81 5630.17,7066.89 5630.18,7066.95C5630.19,7067.04 5630.2,7067.12 5630.21,7067.21C5630.22,7067.28 5630.23,7067.32 5630.24,7067.38C5630.29,7067.75 5630.33,7068.12 5630.38,7068.49C5630.39,7068.52 5630.39,7068.54 5630.4,7068.57C5630.41,7068.69 5630.42,7068.78 5630.44,7068.89C5630.44,7068.95 5630.45,7068.99 5630.46,7069.04C5630.47,7069.15 5630.48,7069.24 5630.5,7069.35C5630.5,7069.41 5630.51,7069.44 5630.51,7069.49C5630.53,7069.59 5630.54,7069.71 5630.55,7069.81C5630.56,7069.87 5630.57,7069.91 5630.57,7069.96C5630.58,7070.06 5630.6,7070.16 5630.61,7070.25C5630.62,7070.32 5630.62,7070.37 5630.63,7070.44C5630.64,7070.54 5630.66,7070.63 5630.67,7070.72C5630.67,7070.78 5630.68,7070.84 5630.69,7070.9C5630.7,7071 5630.71,7071.08 5630.72,7071.18C5630.73,7071.25 5630.74,7071.29 5630.74,7071.35C5630.81,7071.85 5630.87,7072.36 5630.92,7072.86C5630.93,7072.92 5630.94,7072.96 5630.94,7073.02C5630.95,7073.11 5630.97,7073.21 5630.98,7073.3C5630.98,7073.37 5630.99,7073.42 5631,7073.48C5631.01,7073.58 5631.02,7073.67 5631.03,7073.76C5631.04,7073.83 5631.04,7073.9 5631.05,7073.97C5631.06,7074.05 5631.07,7074.14 5631.08,7074.22C5631.09,7074.29 5631.1,7074.36 5631.1,7074.43C5631.11,7074.51 5631.12,7074.61 5631.13,7074.69C5631.14,7074.76 5631.15,7074.83 5631.16,7074.9C5631.17,7074.99 5631.17,7075.07 5631.19,7075.17C5631.19,7075.22 5631.2,7075.29 5631.2,7075.34C5631.21,7075.44 5631.23,7075.54 5631.24,7075.64C5631.24,7075.69 5631.25,7075.73 5631.25,7075.79C5631.29,7076.14 5631.33,7076.5 5631.36,7076.85C5631.37,7076.9 5631.38,7076.96 5631.38,7077.01C5631.39,7077.1 5631.4,7077.2 5631.41,7077.29C5631.42,7077.35 5631.42,7077.42 5631.43,7077.48C5631.44,7077.57 5631.45,7077.66 5631.46,7077.76C5631.46,7077.82 5631.47,7077.89 5631.48,7077.95C5631.49,7078.04 5631.49,7078.13 5631.5,7078.21C5631.51,7078.27 5631.52,7078.36 5631.52,7078.43C5631.53,7078.51 5631.54,7078.61 5631.55,7078.69C5631.56,7078.76 5631.56,7078.83 5631.57,7078.9C5631.58,7078.99 5631.59,7079.06 5631.59,7079.15C5631.6,7079.22 5631.61,7079.32 5631.62,7079.39C5631.63,7079.47 5631.63,7079.54 5631.64,7079.63C5631.65,7079.73 5631.66,7079.82 5631.67,7079.93C5631.67,7079.98 5631.68,7080.04 5631.68,7080.08C5631.7,7080.25 5631.71,7080.39 5631.73,7080.55C5631.73,7080.6 5631.73,7080.64 5631.74,7080.68C5631.75,7080.8 5631.76,7080.92 5631.77,7081.03C5631.78,7081.1 5631.78,7081.17 5631.79,7081.23C5631.8,7081.33 5631.8,7081.4 5631.81,7081.49C5631.82,7081.57 5631.83,7081.65 5631.83,7081.73C5631.84,7081.81 5631.85,7081.9 5631.85,7081.98C5631.86,7082.05 5631.87,7082.12 5631.87,7082.2C5631.88,7082.28 5631.89,7082.37 5631.9,7082.46C5631.9,7082.53 5631.91,7082.6 5631.92,7082.67C5631.92,7082.77 5631.93,7082.84 5631.94,7082.94C5631.94,7083.01 5631.95,7083.08 5631.96,7083.16C5631.96,7083.23 5631.97,7083.32 5631.98,7083.39C5631.98,7083.47 5631.99,7083.56 5632,7083.64C5632,7083.71 5632.01,7083.79 5632.01,7083.86C5632.02,7083.94 5632.03,7084.04 5632.03,7084.11C5632.04,7084.22 5632.05,7084.3 5632.06,7084.41C5632.07,7084.53 5632.08,7084.64 5632.09,7084.76C5632.09,7084.86 5632.1,7084.94 5632.11,7085.03C5632.12,7085.14 5632.12,7085.22 5632.13,7085.32C5632.13,7085.39 5632.14,7085.44 5632.14,7085.5C5632.15,7085.59 5632.16,7085.7 5632.17,7085.79C5632.17,7085.85 5632.17,7085.91 5632.18,7085.98C5632.19,7086.06 5632.19,7086.15 5632.2,7086.23C5632.2,7086.31 5632.21,7086.4 5632.22,7086.47C5632.22,7086.54 5632.23,7086.64 5632.23,7086.71C5632.24,7086.79 5632.24,7086.86 5632.25,7086.94C5632.26,7087.02 5632.26,7087.1 5632.27,7087.19C5632.27,7087.27 5632.28,7087.34 5632.28,7087.42C5632.29,7087.5 5632.3,7087.58 5632.3,7087.66C5632.31,7087.75 5632.31,7087.84 5632.32,7087.94C5632.32,7088 5632.33,7088.06 5632.33,7088.13C5632.34,7088.24 5632.35,7088.35 5632.36,7088.47C5632.36,7088.52 5632.36,7088.56 5632.37,7088.61C5632.38,7088.77 5632.39,7088.92 5632.4,7089.08C5632.4,7089.14 5632.4,7089.21 5632.41,7089.27C5632.41,7089.36 5632.42,7089.46 5632.43,7089.54C5632.43,7089.62 5632.44,7089.7 5632.44,7089.77C5632.45,7089.87 5632.45,7089.94 5632.46,7090.04C5632.46,7090.1 5632.47,7090.18 5632.47,7090.25C5632.48,7090.33 5632.48,7090.43 5632.49,7090.51C5632.49,7090.58 5632.5,7090.66 5632.5,7090.73C5632.5,7090.81 5632.51,7090.91 5632.52,7091C5632.52,7091.07 5632.52,7091.14 5632.53,7091.22C5632.53,7091.3 5632.54,7091.39 5632.54,7091.47C5632.55,7091.53 5632.55,7091.63 5632.56,7091.69C5632.56,7091.79 5632.57,7091.87 5632.57,7091.96C5632.57,7092.04 5632.58,7092.1 5632.58,7092.18C5632.59,7092.26 5632.59,7092.35 5632.6,7092.43C5632.6,7092.51 5632.6,7092.58 5632.61,7092.66C5632.61,7092.74 5632.62,7092.82 5632.62,7092.9C5632.63,7093.06 5632.64,7093.2 5632.65,7093.36C5632.65,7093.44 5632.65,7093.51 5632.66,7093.59C5632.66,7093.68 5632.67,7093.75 5632.67,7093.84C5632.67,7093.92 5632.68,7093.99 5632.68,7094.07C5632.69,7094.15 5632.69,7094.22 5632.69,7094.3C5632.7,7094.38 5632.7,7094.48 5632.71,7094.56C5632.71,7094.64 5632.71,7094.71 5632.72,7094.78C5632.72,7094.88 5632.72,7094.96 5632.73,7095.05C5632.73,7095.12 5632.73,7095.18 5632.74,7095.25C5632.74,7095.34 5632.75,7095.45 5632.75,7095.55C5632.75,7095.61 5632.76,7095.67 5632.76,7095.74C5632.76,7095.84 5632.77,7095.92 5632.77,7096.03C5632.78,7096.1 5632.78,7096.15 5632.78,7096.22C5632.79,7096.32 5632.79,7096.43 5632.79,7096.54C5632.8,7096.6 5632.8,7096.65 5632.8,7096.71C5632.81,7097.02 5632.83,7097.34 5632.84,7097.65C5632.84,7097.72 5632.84,7097.8 5632.85,7097.87C5632.85,7097.95 5632.85,7098.06 5632.86,7098.15C5632.86,7098.21 5632.86,7098.28 5632.86,7098.35C5632.87,7098.43 5632.87,7098.54 5632.87,7098.62C5632.88,7098.69 5632.88,7098.77 5632.88,7098.84C5632.88,7098.93 5632.89,7099.02 5632.89,7099.12C5632.89,7099.19 5632.9,7099.25 5632.9,7099.32C5632.9,7099.42 5632.9,7099.49 5632.91,7099.59C5632.91,7099.66 5632.91,7099.74 5632.91,7099.82C5632.92,7099.9 5632.92,7100 5632.92,7100.08C5632.92,7100.16 5632.93,7100.22 5632.93,7100.29C5632.93,7100.39 5632.93,7100.48 5632.94,7100.57C5632.94,7100.64 5632.94,7100.71 5632.94,7100.78C5632.95,7100.9 5632.95,7100.99 5632.95,7101.11C5632.95,7101.16 5632.95,7101.21 5632.96,7101.26C5632.96,7101.42 5632.96,7101.57 5632.97,7101.73C5632.97,7101.8 5632.97,7101.88 5632.97,7101.95C5632.98,7102.04 5632.98,7102.13 5632.98,7102.21C5632.98,7102.29 5632.98,7102.34 5632.98,7102.42C5632.99,7102.51 5632.99,7102.61 5632.99,7102.71C5632.99,7102.77 5632.99,7102.84 5633,7102.91C5633,7103 5633,7103.09 5633,7103.19C5633,7103.25 5633,7103.33 5633.01,7103.4C5633.01,7103.48 5633.01,7103.59 5633.01,7103.67C5633.01,7103.74 5633.01,7103.82 5633.02,7103.89L5633.02,7104.36C5633.03,7104.47 5633.03,7104.57 5633.03,7104.68C5633.03,7104.74 5633.03,7104.8 5633.03,7104.85C5633.03,7104.98 5633.04,7105.08 5633.04,7105.21C5633.04,7105.25 5633.04,7105.3 5633.04,7105.34C5633.04,7105.51 5633.04,7105.65 5633.05,7105.82L5633.05,7106.46C5633.05,7106.57 5633.06,7106.69 5633.06,7106.8L5633.06,7107.77C5633.07,7107.83 5633.07,7107.91 5633.07,7107.97L5633.07,7109.92C5633.07,7108.61 5633.04,7107.3 5633.02,7105.99C5630.77,7102.24 5627.33,7097.59 5620.68,7092.09C5608.51,7082.05 5599.15,7078.64 5593.73,7078.64C5590.95,7078.64 5589.22,7079.54 5588.67,7080.9C5587.07,7084.9 5601.47,7099.3 5588.67,7116.89C5575.87,7134.5 5566.28,7141.69 5571.07,7156.09C5575.87,7170.49 5550.96,7183.29 5569.82,7196.09C5584.91,7206.34 5585.36,7208.38 5591.92,7208.38C5593.55,7208.38 5595.56,7208.26 5598.27,7208.1C5598.52,7208.08 5598.76,7208.08 5598.99,7208.08C5611.58,7208.08 5609.88,7228.5 5608.91,7231.36C5623.74,7195.72 5632.25,7156.79 5633.02,7115.96C5633.01,7116.02 5633.01,7116.07 5633.01,7116.12C5633.01,7116.21 5633.01,7116.29 5633.01,7116.38C5633.01,7116.46 5633,7116.53 5633,7116.61C5633,7116.7 5633,7116.79 5633,7116.88C5633,7116.96 5632.99,7117.04 5632.99,7117.12C5632.99,7117.21 5632.99,7117.29 5632.99,7117.39C5632.98,7117.46 5632.98,7117.53 5632.98,7117.6C5632.98,7117.69 5632.98,7117.79 5632.97,7117.87C5632.97,7117.98 5632.97,7118.08 5632.97,7118.19C5632.96,7118.33 5632.96,7118.46 5632.96,7118.6C5632.95,7118.76 5632.95,7118.92 5632.94,7119.08C5632.94,7119.15 5632.94,7119.21 5632.94,7119.28C5632.93,7119.38 5632.93,7119.48 5632.93,7119.59C5632.93,7119.65 5632.92,7119.71 5632.92,7119.77C5632.92,7119.86 5632.92,7119.97 5632.91,7120.07C5632.91,7120.15 5632.91,7120.22 5632.9,7120.3C5632.9,7120.39 5632.9,7120.48 5632.9,7120.57C5632.89,7120.65 5632.89,7120.73 5632.89,7120.81C5632.89,7120.88 5632.88,7120.97 5632.88,7121.05C5632.88,7121.14 5632.87,7121.21 5632.87,7121.3C5632.87,7121.39 5632.86,7121.47 5632.86,7121.56C5632.86,7121.64 5632.86,7121.71 5632.85,7121.79C5632.85,7121.86 5632.85,7121.96 5632.84,7122.04C5632.84,7122.13 5632.84,7122.21 5632.83,7122.29C5632.83,7122.37 5632.83,7122.46 5632.83,7122.54C5632.82,7122.62 5632.82,7122.7 5632.82,7122.78C5632.81,7122.87 5632.81,7122.94 5632.81,7123.03C5632.8,7123.12 5632.8,7123.19 5632.79,7123.28C5632.79,7123.35 5632.79,7123.44 5632.79,7123.51C5632.78,7123.6 5632.78,7123.69 5632.77,7123.78C5632.77,7123.86 5632.77,7123.92 5632.76,7123.99C5632.76,7124.08 5632.76,7124.17 5632.75,7124.26C5632.75,7124.34 5632.75,7124.43 5632.74,7124.5C5632.74,7124.58 5632.73,7124.68 5632.73,7124.76C5632.73,7124.84 5632.72,7124.9 5632.72,7124.99C5632.72,7125.07 5632.71,7125.16 5632.71,7125.24C5632.7,7125.33 5632.7,7125.41 5632.7,7125.5C5632.69,7125.58 5632.69,7125.66 5632.68,7125.74C5632.68,7125.8 5632.68,7125.87 5632.67,7125.93C5632.67,7126.03 5632.66,7126.14 5632.66,7126.24C5632.66,7126.25 5632.66,7126.26 5632.66,7126.27C5632.64,7126.58 5632.63,7126.88 5632.61,7127.19L5632.61,7127.2C5632.6,7127.29 5632.6,7127.39 5632.59,7127.48C5632.59,7127.55 5632.59,7127.61 5632.58,7127.69C5632.58,7127.79 5632.57,7127.86 5632.57,7127.96C5632.56,7128.03 5632.56,7128.11 5632.55,7128.17C5632.55,7128.26 5632.54,7128.37 5632.54,7128.46C5632.53,7128.52 5632.53,7128.6 5632.53,7128.66C5632.52,7128.75 5632.52,7128.83 5632.51,7128.92C5632.51,7129.01 5632.5,7129.08 5632.5,7129.16C5632.49,7129.25 5632.49,7129.34 5632.48,7129.43C5632.48,7129.5 5632.47,7129.56 5632.47,7129.64C5632.46,7129.74 5632.46,7129.83 5632.45,7129.93C5632.45,7129.99 5632.44,7130.06 5632.44,7130.12C5632.43,7130.22 5632.43,7130.31 5632.42,7130.41C5632.42,7130.48 5632.41,7130.55 5632.41,7130.62C5632.4,7130.71 5632.39,7130.8 5632.39,7130.89C5632.38,7130.96 5632.38,7131.04 5632.37,7131.1C5632.37,7131.2 5632.36,7131.29 5632.35,7131.39C5632.35,7131.45 5632.35,7131.52 5632.34,7131.58C5632.33,7131.69 5632.33,7131.77 5632.32,7131.88C5632.32,7131.95 5632.31,7132 5632.31,7132.06C5632.3,7132.16 5632.29,7132.27 5632.29,7132.37C5632.28,7132.42 5632.28,7132.5 5632.28,7132.55C5632.27,7132.65 5632.26,7132.75 5632.25,7132.85C5632.25,7132.91 5632.25,7132.97 5632.24,7133.03C5632.23,7133.14 5632.23,7133.24 5632.22,7133.35C5632.21,7133.39 5632.21,7133.44 5632.21,7133.48C5632.2,7133.59 5632.19,7133.73 5632.18,7133.84C5632.18,7133.87 5632.18,7133.89 5632.18,7133.92C5632.11,7134.81 5632.04,7135.7 5631.96,7136.59C5631.96,7136.63 5631.96,7136.67 5631.95,7136.71C5631.94,7136.83 5631.93,7136.95 5631.92,7137.07C5631.92,7137.11 5631.92,7137.14 5631.91,7137.19C5631.9,7137.3 5631.89,7137.43 5631.88,7137.55C5631.88,7137.59 5631.88,7137.62 5631.87,7137.67C5631.86,7137.78 5631.85,7137.91 5631.84,7138.03C5631.84,7138.07 5631.83,7138.1 5631.83,7138.14C5631.82,7138.26 5631.81,7138.38 5631.8,7138.5C5631.79,7138.54 5631.79,7138.59 5631.79,7138.63C5631.78,7138.74 5631.77,7138.86 5631.76,7138.97C5631.75,7139.02 5631.75,7139.07 5631.74,7139.12C5631.73,7139.23 5631.72,7139.33 5631.71,7139.44C5631.71,7139.5 5631.7,7139.55 5631.7,7139.61C5631.69,7139.72 5631.68,7139.82 5631.67,7139.93C5631.66,7139.98 5631.66,7140.02 5631.65,7140.08C5631.64,7140.18 5631.63,7140.31 5631.62,7140.41C5631.62,7140.47 5631.61,7140.5 5631.61,7140.55C5631.6,7140.67 5631.59,7140.79 5631.57,7140.91C5631.57,7140.94 5631.57,7140.97 5631.56,7141C5631.55,7141.14 5631.54,7141.26 5631.53,7141.4C5631.52,7141.41 5631.52,7141.43 5631.52,7141.44C5631.34,7143.31 5631.14,7145.18 5630.92,7147.04C5630.92,7147.05 5630.92,7147.03 5630.92,7147.04C5630.9,7147.2 5630.88,7147.35 5630.86,7147.51C5630.86,7147.52 5630.86,7147.5 5630.86,7147.51C5630.84,7147.67 5630.83,7147.81 5630.81,7147.97C5630.81,7147.98 5630.81,7147.98 5630.81,7147.99C5626.19,7186.51 5614.65,7222.9 5597.46,7255.88L5519.11,7255.96Z" style="fill:rgb(31,176,172);fill-rule:nonzero;"/>
            </g>
            <g transform="matrix(0.280306,1.61778e-32,1.61778e-32,0.280306,-1331.54,-1766.13)">
                <path d="M5633.02,7115.44C5633.03,7115.29 5633.03,7115.15 5633.03,7115L5633.03,7115.41C5633.03,7115.42 5633.02,7115.43 5633.02,7115.44Z" style="fill:rgb(31,176,172);fill-rule:nonzero;"/>
            </g>
            <g transform="matrix(0.280306,1.61778e-32,1.61778e-32,0.280306,-1331.54,-1766.13)">
                <path d="M5633.03,7114.9C5633.04,7114.8 5633.04,7114.72 5633.04,7114.62C5633.04,7114.71 5633.04,7114.81 5633.03,7114.9Z" style="fill:rgb(62,194,214);fill-rule:nonzero;"/>
            </g>
            <g transform="matrix(0.280306,1.61778e-32,1.61778e-32,0.280306,-1331.54,-1766.13)">
                <path d="M5633.03,7114.92C5633.04,7114.78 5633.04,7114.65 5633.04,7114.52C5633.04,7114.56 5633.04,7114.58 5633.04,7114.62C5633.04,7114.72 5633.04,7114.8 5633.03,7114.9C5633.03,7114.91 5633.03,7114.91 5633.03,7114.92Z" style="fill:rgb(31,176,172);fill-rule:nonzero;"/>
            </g>
            <g transform="matrix(0.280306,1.61778e-32,1.61778e-32,0.280306,-1331.54,-1766.13)">
                <path d="M5633.04,7114.41C5633.04,7114.28 5633.04,7114.16 5633.05,7114.03C5633.05,7114.07 5633.04,7114.09 5633.04,7114.13C5633.04,7114.22 5633.04,7114.31 5633.04,7114.4L5633.04,7114.41Z" style="fill:rgb(31,176,172);fill-rule:nonzero;"/>
            </g>
            <g transform="matrix(0.280306,1.61778e-32,1.61778e-32,0.280306,-1331.54,-1766.13)">
                <path d="M5633.05,7113.4L5633.05,7113.39C5633.05,7113.3 5633.06,7113.23 5633.06,7113.14C5633.06,7113.22 5633.05,7113.32 5633.05,7113.4Z" style="fill:rgb(62,194,214);fill-rule:nonzero;"/>
            </g>
            <g transform="matrix(0.280306,1.61778e-32,1.61778e-32,0.280306,-1331.54,-1766.13)">
                <path d="M5633.05,7113.39C5633.05,7113.28 5633.06,7113.18 5633.06,7113.07C5633.06,7113.09 5633.06,7113.12 5633.06,7113.14C5633.06,7113.23 5633.05,7113.3 5633.05,7113.39Z" style="fill:rgb(31,176,172);fill-rule:nonzero;"/>
            </g>
            <g transform="matrix(0.280306,1.61778e-32,1.61778e-32,0.280306,-1331.54,-1766.13)">
                <path d="M5458.5,6868.43C5451.97,6859.96 5445.14,6852.02 5438.02,6844.67C5446.86,6846.05 5456.82,6848.83 5459.07,6858.23C5460.09,6862.47 5459.49,6865.74 5458.5,6868.43ZM5425.77,6832.88C5408.94,6817.8 5390.77,6806 5371.59,6798.28C5395.24,6802.42 5417.99,6809.19 5439.52,6818.27C5439.5,6823.29 5438.4,6831.56 5431.34,6831.56C5429.07,6831.56 5427.2,6832.07 5425.77,6832.88Z" style="fill:rgb(31,176,172);fill-rule:nonzero;"/>
            </g>
            <g transform="matrix(0.280306,1.61778e-32,1.61778e-32,0.280306,-1331.54,-1766.13)">
                <path d="M5493.54,6924.6C5483.23,6904.16 5471.48,6885.26 5458.5,6868.43C5459.49,6865.74 5460.09,6862.47 5459.07,6858.23C5456.82,6848.83 5446.86,6846.05 5438.02,6844.67C5434.02,6840.55 5429.93,6836.61 5425.77,6832.88C5427.2,6832.07 5429.07,6831.56 5431.34,6831.56C5438.4,6831.56 5439.5,6823.29 5439.52,6818.27C5449.39,6822.43 5458.99,6827.07 5468.31,6832.17C5489.42,6843.72 5509.06,6857.62 5526.91,6873.49C5527.84,6876.08 5528.4,6878.01 5528.4,6878.83C5528.46,6882.9 5523.07,6891.83 5523.07,6891.83C5523.07,6891.83 5532.67,6901.43 5531.6,6907.83C5530.78,6912.8 5522.89,6913.91 5518.4,6913.91C5517.1,6913.91 5516.08,6913.82 5515.6,6913.7C5515.15,6913.58 5514.46,6913.54 5513.62,6913.54C5512.47,6913.54 5511.04,6913.62 5509.54,6913.7C5508.03,6913.77 5506.46,6913.85 5505.04,6913.85C5504,6913.85 5503.04,6913.81 5502.25,6913.7C5501.37,6913.57 5500.43,6913.45 5499.51,6913.45C5496.52,6913.45 5493.74,6914.77 5493.74,6921.69C5493.74,6922.73 5493.67,6923.7 5493.54,6924.6Z" style="fill:rgb(207,207,207);fill-rule:nonzero;"/>
            </g>
            <g transform="matrix(0.280306,1.61778e-32,1.61778e-32,0.280306,-1331.54,-1766.13)">
                <path d="M5608.91,7231.36C5609.88,7228.5 5611.58,7208.08 5598.99,7208.08C5598.76,7208.08 5598.52,7208.08 5598.27,7208.1C5595.56,7208.26 5593.55,7208.38 5591.92,7208.38C5585.36,7208.38 5584.91,7206.34 5569.82,7196.09C5550.96,7183.29 5575.87,7170.49 5571.07,7156.09C5566.28,7141.69 5575.87,7134.5 5588.67,7116.89C5601.47,7099.3 5587.07,7084.9 5588.67,7080.9C5589.22,7079.54 5590.95,7078.64 5593.73,7078.64C5599.15,7078.64 5608.51,7082.05 5620.68,7092.09C5627.33,7097.59 5630.77,7102.24 5633.02,7105.99C5633.04,7107.3 5633.07,7108.61 5633.07,7109.92L5633.07,7111.9C5633.07,7111.96 5633.06,7112.02 5633.06,7112.08L5633.06,7113.07C5633.06,7113.18 5633.05,7113.28 5633.05,7113.39L5633.05,7114.03C5633.04,7114.16 5633.04,7114.28 5633.04,7114.41C5633.04,7114.44 5633.04,7114.49 5633.04,7114.52C5633.04,7114.65 5633.04,7114.78 5633.03,7114.92C5633.03,7114.95 5633.03,7114.97 5633.03,7115C5633.03,7115.15 5633.03,7115.29 5633.02,7115.44L5633.02,7115.96C5632.25,7156.79 5623.74,7195.72 5608.91,7231.36Z" style="fill:rgb(207,207,207);fill-rule:nonzero;"/>
            </g>
            <g transform="matrix(0.280306,1.61778e-32,1.61778e-32,0.280306,-1331.54,-1766.13)">
                <path d="M5864.65,7575.75C5864.65,7611.22 5859.98,7609.19 5824.52,7609.19L5411.21,7609.19C5375.75,7609.19 5372.42,7605.87 5372.42,7570.4L5372.42,7293.52C5372.42,7258.06 5379.76,7256.07 5415.22,7256.07L5812.49,7255.66C5847.94,7255.66 5864.3,7248.6 5864.3,7284.07L5864.65,7575.75Z" style="fill:rgb(52,73,94);fill-rule:nonzero;"/>
            </g>
            <g transform="matrix(0.280306,1.61778e-32,1.61778e-32,0.280306,-1331.54,-1766.13)">
                <rect x="5402.94" y="7288.95" width="431.19" height="286.4" style="fill:rgb(237,238,238);fill-rule:nonzero;"/>
            </g>
            <g transform="matrix(0.280306,1.61778e-32,1.61778e-32,0.280306,-1331.54,-1766.13)">
                <path d="M5487.45,7534.28C5487.45,7549.06 5475.47,7561.04 5460.7,7561.04C5445.92,7561.04 5433.95,7549.06 5433.95,7534.28L5433.95,7334.99C5433.95,7320.21 5445.92,7308.23 5460.7,7308.23C5475.47,7308.23 5487.45,7320.21 5487.45,7334.99L5487.45,7534.28Z" style="fill:rgb(244,177,70);fill-rule:nonzero;"/>
            </g>
            <g transform="matrix(0.280306,1.61778e-32,1.61778e-32,0.280306,-1331.54,-1766.13)">
                <path d="M5809.14,7353.71L5734.91,7353.71L5734.91,7322.94L5809.14,7322.94L5809.14,7353.71ZM5729.56,7318.93L5729.56,7357.72L5815.16,7357.72L5815.16,7318.93L5729.56,7318.93Z" style="fill:rgb(29,47,71);fill-rule:nonzero;"/>
            </g>
            <g transform="matrix(0.280306,1.61778e-32,1.61778e-32,0.280306,-1331.54,-1766.13)">
                <rect x="5729.56" y="7386.7" width="85.6" height="38.79" style="fill:rgb(29,47,71);fill-rule:nonzero;"/>
            </g>
            <g transform="matrix(0.280306,1.61778e-32,1.61778e-32,0.280306,-1331.54,-1766.13)">
                <rect x="5729.56" y="7457.15" width="85.6" height="38.79" style="fill:rgb(29,47,71);fill-rule:nonzero;"/>
            </g>
            <g transform="matrix(0.280306,1.61778e-32,1.61778e-32,0.280306,-1331.54,-1766.13)">
                <rect x="5729.56" y="7512.21" width="85.6" height="38.79" style="fill:rgb(29,47,71);fill-rule:nonzero;"/>
            </g>
            <g transform="matrix(0.280306,1.61778e-32,1.61778e-32,0.280306,-1331.54,-1766.13)">
                <path d="M5695.99,7465.81C5695.99,7476.42 5687.4,7485.01 5676.79,7485.01L5549.86,7485.01C5539.25,7485.01 5530.66,7476.42 5530.66,7465.81L5530.66,7386.88C5530.66,7376.28 5539.25,7367.68 5549.86,7367.68L5676.79,7367.68C5687.4,7367.68 5695.99,7376.28 5695.99,7386.88L5695.99,7465.81Z" style="fill:rgb(240,73,83);fill-rule:nonzero;"/>
            </g>
            <g transform="matrix(0.280306,1.61778e-32,1.61778e-32,0.280306,-1331.54,-1766.13)">
                <path d="M5649.54,7427.42L5618.66,7445.25L5587.77,7463.09L5587.77,7427.42L5587.77,7391.74L5618.66,7409.58L5649.54,7427.42Z" style="fill:rgb(237,238,238);fill-rule:nonzero;"/>
            </g>
            <g transform="matrix(0.280306,1.61778e-32,1.61778e-32,0.280306,-1331.54,-1766.13)">
                <path d="M5222.6,7724.74L5248.02,7609.71C5248.02,7609.71 5249.36,7590.98 5282.8,7557.54C5316.24,7524.09 5372.42,7451.2 5372.42,7451.2L5372.42,7551.63L5347,7598.33L5417.89,7517.41C5417.89,7517.41 5466.05,7493.19 5458.32,7546.76C5458.32,7546.76 5397.83,7632.44 5396.5,7639.13C5395.16,7645.82 5393.81,7680.6 5367.06,7718.05C5340.31,7755.51 5338.98,7767.54 5338.98,7767.54L5333.63,7775.57L5222.6,7724.74Z" style="fill:rgb(249,187,162);fill-rule:nonzero;"/>
            </g>
            <g transform="matrix(0.280306,1.61778e-32,1.61778e-32,0.280306,-1331.54,-1766.13)">
                <path d="M5206.55,7719.39L5355.02,7775.57C5355.02,7775.57 5342.99,7833.09 5322.92,7882.58C5302.86,7932.06 5132.99,7918.69 5132.99,7918.69L5149.04,7865.18L5206.55,7719.39Z" style="fill:rgb(88,103,114);fill-rule:nonzero;"/>
            </g>
            <g transform="matrix(0.280306,1.61778e-32,1.61778e-32,0.280306,-1331.54,-1766.13)">
                <path d="M5355.02,7775.57L5206.55,7719.39L5193.36,7752.84L5346.55,7810.33C5352.03,7789.86 5355.02,7775.57 5355.02,7775.57Z" style="fill:rgb(31,182,129);fill-rule:nonzero;"/>
            </g>
            <g transform="matrix(0.280306,1.61778e-32,1.61778e-32,0.280306,-1331.54,-1766.13)">
                <path d="M5451.81,7551.63L5415.22,7524.67C5424.88,7519.45 5432.15,7517.36 5437.6,7517.36C5459.66,7517.36 5451.81,7551.63 5451.81,7551.63Z" style="fill:rgb(251,209,191);fill-rule:nonzero;"/>
            </g>
            <g transform="matrix(0.280306,1.61778e-32,1.61778e-32,0.280306,-1331.54,-1766.13)">
                <path d="M5322.73,7883.05C5322.73,7883.04 5322.74,7883.02 5322.74,7883.01C5322.74,7883.02 5322.73,7883.04 5322.73,7883.05ZM5322.79,7882.9C5322.8,7882.88 5322.81,7882.85 5322.82,7882.83C5322.81,7882.85 5322.8,7882.88 5322.79,7882.9ZM5322.86,7882.74C5322.88,7882.69 5322.9,7882.63 5322.92,7882.58C5322.9,7882.63 5322.88,7882.69 5322.86,7882.74ZM5354.96,7775.85C5354.99,7775.72 5355.01,7775.63 5355.02,7775.59L5355.02,7775.57C5355.02,7775.57 5355,7775.68 5354.96,7775.85ZM5355.02,7775.57L5337.94,7769.1L5355.02,7775.57Z" style="fill:rgb(14,146,175);fill-rule:nonzero;"/>
            </g>
            <g transform="matrix(0.280306,1.61778e-32,1.61778e-32,0.280306,-1331.54,-1766.13)">
                <path d="M5337.94,7769.1L5279.41,7746.96L5279.41,7746.95L5337.94,7769.1Z" style="fill:rgb(199,150,130);fill-rule:nonzero;"/>
            </g>
            <g transform="matrix(0.280306,1.61778e-32,1.61778e-32,0.280306,-1331.54,-1766.13)">
                <path d="M5216.11,7919.43L5267.1,7780.51L5346.55,7810.33C5349.91,7797.78 5352.34,7787.55 5353.71,7781.51C5350.1,7797.41 5339.13,7842.6 5322.92,7882.58C5322.9,7882.63 5322.88,7882.69 5322.86,7882.74C5322.84,7882.77 5322.83,7882.8 5322.82,7882.83C5322.81,7882.85 5322.8,7882.88 5322.79,7882.9C5322.77,7882.94 5322.76,7882.97 5322.74,7883.01C5322.74,7883.02 5322.73,7883.04 5322.73,7883.05C5311.94,7908.23 5262.03,7916.92 5216.11,7919.43ZM5354.96,7775.86C5354.99,7775.72 5355.01,7775.63 5355.02,7775.59C5355.01,7775.63 5354.99,7775.72 5354.96,7775.85L5354.96,7775.86ZM5355.02,7775.59L5355.02,7775.57L5355.02,7775.59Z" style="fill:rgb(70,83,90);fill-rule:nonzero;"/>
            </g>
            <g transform="matrix(0.280306,1.61778e-32,1.61778e-32,0.280306,-1331.54,-1766.13)">
                <path d="M5346.55,7810.33L5267.1,7780.51L5279.41,7746.95L5355.02,7775.57L5355.02,7775.59C5355.01,7775.63 5354.99,7775.72 5354.96,7775.86C5354.96,7775.88 5354.95,7775.9 5354.95,7775.92C5354.79,7776.65 5354.38,7778.58 5353.71,7781.51C5352.34,7787.55 5349.91,7797.78 5346.55,7810.33Z" style="fill:rgb(18,151,106);fill-rule:nonzero;"/>
            </g>
            <g transform="matrix(0.280306,1.61778e-32,1.61778e-32,0.280306,-1331.54,-1766.13)">
                <path d="M6014.47,7725.06L5989.05,7610.03C5989.05,7610.03 5987.71,7591.31 5954.27,7557.86C5920.83,7524.43 5864.65,7451.53 5864.65,7451.53L5864.65,7551.96L5890.06,7598.66L5819.17,7517.74C5819.17,7517.74 5770.06,7491.59 5778.7,7547.02C5778.7,7547.02 5839.24,7632.77 5840.57,7639.46C5841.91,7646.14 5843.25,7680.92 5870,7718.38C5896.75,7755.83 5898.09,7767.87 5898.09,7767.87L5903.44,7775.9L6014.47,7725.06Z" style="fill:rgb(249,187,162);fill-rule:nonzero;"/>
            </g>
            <g transform="matrix(0.280306,1.61778e-32,1.61778e-32,0.280306,-1331.54,-1766.13)">
                <path d="M6030.51,7719.71L5882.04,7775.9C5882.04,7775.9 5894.08,7833.41 5914.14,7882.9C5934.2,7932.39 6104.08,7919.02 6104.08,7919.02L6088.03,7865.51L6030.51,7719.71Z" style="fill:rgb(88,103,114);fill-rule:nonzero;"/>
            </g>
            <g transform="matrix(0.280306,1.61778e-32,1.61778e-32,0.280306,-1331.54,-1766.13)">
                <path d="M5882.04,7775.9L6030.51,7719.71L6043.7,7753.16L5890.51,7810.65C5885.03,7790.2 5882.04,7775.9 5882.04,7775.9Z" style="fill:rgb(31,182,129);fill-rule:nonzero;"/>
            </g>
            <g transform="matrix(0.280306,1.61778e-32,1.61778e-32,0.280306,-1331.54,-1766.13)">
                <path d="M5785.25,7551.96C5785.25,7551.96 5777.42,7517.7 5799.47,7517.7C5804.91,7517.7 5812.18,7519.79 5821.85,7525L5785.25,7551.96Z" style="fill:rgb(251,209,191);fill-rule:nonzero;"/>
            </g>
            <g transform="matrix(0.280306,1.61778e-32,1.61778e-32,0.280306,-1331.54,-1766.13)">
                <path d="M5928.41,7898.89C5928.4,7898.89 5928.39,7898.88 5928.38,7898.87C5928.39,7898.88 5928.4,7898.88 5928.41,7898.89ZM5928.27,7898.8C5928.24,7898.78 5928.22,7898.77 5928.19,7898.75C5928.22,7898.77 5928.24,7898.78 5928.27,7898.8ZM5928.1,7898.69C5928.06,7898.67 5928.03,7898.64 5928,7898.62C5928.03,7898.64 5928.06,7898.67 5928.1,7898.69ZM5927.93,7898.57C5927.8,7898.49 5927.68,7898.41 5927.56,7898.32C5927.68,7898.41 5927.8,7898.49 5927.93,7898.57ZM5927.53,7898.31C5927.48,7898.27 5927.42,7898.23 5927.36,7898.19C5927.42,7898.23 5927.48,7898.27 5927.53,7898.31ZM5927.34,7898.18C5922.06,7894.54 5917.95,7890.34 5915.35,7885.49C5917.95,7890.34 5922.06,7894.54 5927.34,7898.18ZM5915.34,7885.47C5915.32,7885.42 5915.29,7885.37 5915.26,7885.31C5915.29,7885.36 5915.32,7885.42 5915.34,7885.47ZM5915.25,7885.29C5915.19,7885.17 5915.13,7885.06 5915.07,7884.94C5915.13,7885.06 5915.19,7885.18 5915.25,7885.29ZM5915.06,7884.93C5915.04,7884.88 5915.01,7884.82 5914.98,7884.77C5915.01,7884.82 5915.04,7884.88 5915.06,7884.93ZM5914.97,7884.74C5914.94,7884.69 5914.92,7884.64 5914.89,7884.59C5914.92,7884.64 5914.94,7884.69 5914.97,7884.74ZM5914.88,7884.56C5914.82,7884.45 5914.77,7884.33 5914.71,7884.21C5914.77,7884.33 5914.82,7884.45 5914.88,7884.56ZM5914.7,7884.18C5914.68,7884.14 5914.66,7884.09 5914.64,7884.04C5914.66,7884.09 5914.68,7884.14 5914.7,7884.18ZM5914.61,7884C5914.59,7883.95 5914.58,7883.91 5914.56,7883.87C5914.57,7883.91 5914.59,7883.95 5914.61,7884ZM5914.53,7883.82C5914.51,7883.77 5914.49,7883.72 5914.46,7883.66C5914.49,7883.72 5914.51,7883.77 5914.53,7883.82ZM5914.46,7883.65C5914.43,7883.59 5914.41,7883.54 5914.38,7883.48C5914.41,7883.54 5914.43,7883.59 5914.46,7883.65ZM5914.36,7883.43C5914.34,7883.39 5914.33,7883.35 5914.31,7883.31C5914.33,7883.35 5914.34,7883.39 5914.36,7883.43ZM5914.28,7883.25C5914.27,7883.21 5914.25,7883.17 5914.23,7883.13C5914.25,7883.17 5914.27,7883.21 5914.28,7883.25ZM5914.21,7883.07C5914.19,7883.02 5914.16,7882.96 5914.14,7882.9C5894.95,7835.56 5883.1,7780.9 5882.11,7776.25C5882.07,7776.04 5882.04,7775.9 5882.04,7775.9C5882.04,7775.9 5882.05,7775.91 5882.05,7775.93C5882.2,7776.66 5885.18,7790.74 5890.51,7810.65L5890.52,7810.65C5896.04,7831.24 5904.08,7858.08 5914.14,7882.9C5914.16,7882.96 5914.19,7883.02 5914.21,7883.07ZM5882.04,7775.9L5899.13,7769.43L5882.04,7775.9Z" style="fill:rgb(14,146,175);fill-rule:nonzero;"/>
            </g>
            <g transform="matrix(0.280306,1.61778e-32,1.61778e-32,0.280306,-1331.54,-1766.13)">
                <path d="M5899.13,7769.43L5957.66,7747.28L5899.13,7769.43Z" style="fill:rgb(199,150,130);fill-rule:nonzero;"/>
            </g>
            <g transform="matrix(0.280306,1.61778e-32,1.61778e-32,0.280306,-1331.54,-1766.13)">
                <path d="M6020.96,7919.77C5986.39,7917.87 5949.56,7912.48 5928.86,7899.19C5928.71,7899.09 5928.56,7898.99 5928.41,7898.89C5928.4,7898.88 5928.39,7898.88 5928.38,7898.87C5928.34,7898.85 5928.31,7898.82 5928.27,7898.8C5928.24,7898.78 5928.22,7898.77 5928.19,7898.75C5928.16,7898.73 5928.13,7898.71 5928.1,7898.69C5928.06,7898.67 5928.03,7898.64 5928,7898.62C5927.97,7898.6 5927.95,7898.59 5927.93,7898.57C5927.8,7898.49 5927.68,7898.41 5927.56,7898.32C5927.55,7898.32 5927.54,7898.31 5927.53,7898.31C5927.48,7898.27 5927.42,7898.23 5927.36,7898.19C5927.36,7898.19 5927.35,7898.18 5927.34,7898.18C5922.06,7894.54 5917.95,7890.34 5915.35,7885.49C5915.35,7885.48 5915.35,7885.48 5915.34,7885.47C5915.32,7885.42 5915.29,7885.36 5915.26,7885.31C5915.26,7885.31 5915.25,7885.3 5915.25,7885.29C5915.19,7885.18 5915.13,7885.06 5915.07,7884.94L5915.06,7884.93C5915.04,7884.88 5915.01,7884.82 5914.98,7884.77C5914.98,7884.76 5914.97,7884.75 5914.97,7884.74C5914.94,7884.69 5914.92,7884.64 5914.89,7884.59C5914.89,7884.58 5914.89,7884.57 5914.88,7884.56C5914.82,7884.45 5914.77,7884.33 5914.71,7884.21C5914.71,7884.21 5914.7,7884.19 5914.7,7884.18C5914.68,7884.14 5914.66,7884.09 5914.64,7884.04C5914.63,7884.03 5914.62,7884.01 5914.61,7884C5914.59,7883.95 5914.57,7883.91 5914.56,7883.87C5914.55,7883.85 5914.54,7883.84 5914.53,7883.82C5914.51,7883.77 5914.49,7883.72 5914.46,7883.66L5914.46,7883.65C5914.43,7883.59 5914.41,7883.54 5914.38,7883.48C5914.38,7883.46 5914.37,7883.45 5914.36,7883.43C5914.34,7883.39 5914.33,7883.35 5914.31,7883.31C5914.3,7883.29 5914.29,7883.27 5914.28,7883.25C5914.27,7883.21 5914.25,7883.17 5914.23,7883.13C5914.23,7883.11 5914.22,7883.09 5914.21,7883.07C5914.19,7883.02 5914.16,7882.96 5914.14,7882.9C5904.08,7858.08 5896.04,7831.24 5890.52,7810.65L5969.97,7780.83L6020.96,7919.77ZM5882.05,7775.93C5882.05,7775.91 5882.04,7775.9 5882.04,7775.9C5882.04,7775.9 5882.05,7775.91 5882.05,7775.93Z" style="fill:rgb(70,83,90);fill-rule:nonzero;"/>
            </g>
            <g transform="matrix(0.280306,1.61778e-32,1.61778e-32,0.280306,-1331.54,-1766.13)">
                <path d="M5890.51,7810.65C5885.18,7790.74 5882.2,7776.66 5882.05,7775.93C5882.05,7775.91 5882.04,7775.9 5882.04,7775.9L5957.66,7747.28L5969.97,7780.83L5890.52,7810.65L5890.51,7810.65Z" style="fill:rgb(18,151,106);fill-rule:nonzero;"/>
            </g>
            <g transform="matrix(0.280306,1.61778e-32,1.61778e-32,0.280306,-1331.54,-1766.13)">
                <rect x="5652.81" y="7113.22" width="443.71" height="110.91" style="fill:rgb(244,177,70);"/>
            </g>
            <g transform="matrix(0.280306,1.61778e-32,1.61778e-32,0.280306,-1331.54,-1766.13)">
                <rect x="5698.92" y="7028.27" width="351.5" height="84.16" style="fill:rgb(241,89,89);"/>
            </g>
            <g transform="matrix(0.280306,1.61778e-32,1.61778e-32,0.280306,-1331.54,-1766.13)">
                <path d="M5773.1,6938.5L5999.65,6938.5C5999.65,6938.5 5960.21,6952.29 5961.2,6978.91C5962.19,7004.93 5999.65,7022.7 5999.65,7022.7L5773.1,7022.7C5749.95,7022.7 5731.01,7003.76 5731.01,6980.58C5731.01,6957.43 5749.95,6938.5 5773.1,6938.5Z" style="fill:rgb(230,230,230);"/>
            </g>
            <g transform="matrix(0.280306,1.61778e-32,1.61778e-32,0.280306,-1331.54,-1766.13)">
                <path d="M5773.1,6933.16L5999.65,6933.16C6000.18,6933.16 6000.75,6933.16 6001.32,6933.2L6001.32,6943.88C6000.75,6943.88 6000.18,6943.84 5999.65,6943.84L5773.1,6943.84C5762.98,6943.84 5753.81,6948.01 5747.15,6954.63C5740.48,6961.3 5736.35,6970.51 5736.35,6980.58C5736.35,6990.69 5740.48,6999.9 5747.15,7006.56C5753.81,7013.19 5762.98,7017.36 5773.1,7017.36L5999.65,7017.36C6000.18,7017.36 6000.75,7017.32 6001.32,7017.32L6001.32,7028C6000.75,7028.04 6000.18,7028.04 5999.65,7028.04L5773.1,7028.04C5760.06,7028.04 5748.17,7022.7 5739.57,7014.1C5731.01,7005.51 5725.66,6993.65 5725.66,6980.58C5725.66,6967.55 5731.01,6955.7 5739.57,6947.1C5748.17,6938.5 5760.06,6933.16 5773.1,6933.16Z" style="fill:rgb(29,47,71);fill-rule:nonzero;"/>
            </g>
            <g transform="matrix(0.280306,1.61778e-32,1.61778e-32,0.280306,-1331.54,-1766.13)">
                <rect x="5762.76" y="6960.88" width="177.07" height="1.67" style="fill:rgb(113,140,199);"/>
            </g>
            <g transform="matrix(0.280306,1.61778e-32,1.61778e-32,0.280306,-1331.54,-1766.13)">
                <rect x="5749.04" y="6973.08" width="177.08" height="1.67" style="fill:rgb(113,140,199);"/>
            </g>
            <g transform="matrix(0.280306,1.61778e-32,1.61778e-32,0.280306,-1331.54,-1766.13)">
                <rect x="5765.41" y="6985.43" width="177.08" height="1.7" style="fill:rgb(113,140,199);"/>
            </g>
            <g transform="matrix(0.280306,1.61778e-32,1.61778e-32,0.280306,-1331.54,-1766.13)">
                <path d="M5911.01,7017.36L5822.11,7017.36L5783.63,7007.51L5796.47,6999.82L5808.87,7007.51L5808.87,6987.13L5854.68,6987.13L5911.01,7017.36Z" style="fill:rgb(185,184,185);fill-rule:nonzero;"/>
            </g>
            <g transform="matrix(0.280306,1.61778e-32,1.61778e-32,0.280306,-1331.54,-1766.13)">
                <path d="M5851.51,6985.43L5808.87,6985.43L5808.87,6974.75L5831.59,6974.75L5851.51,6985.43ZM5828.49,6973.08L5808.87,6973.08L5808.87,6972.43L5808.87,6962.55L5828.49,6973.08Z" style="fill:rgb(185,184,185);fill-rule:nonzero;"/>
            </g>
            <g transform="matrix(0.280306,1.61778e-32,1.61778e-32,0.280306,-1331.54,-1766.13)">
                <path d="M5831.59,6974.75L5808.87,6974.75L5808.87,6973.08L5828.49,6973.08L5831.59,6974.75Z" style="fill:rgb(90,113,160);fill-rule:nonzero;"/>
            </g>
            <g transform="matrix(0.280306,1.61778e-32,1.61778e-32,0.280306,-1331.54,-1766.13)">
                <path d="M5854.68,6987.13L5808.87,6987.13L5808.87,6985.43L5851.51,6985.43L5854.68,6987.13Z" style="fill:rgb(90,113,160);fill-rule:nonzero;"/>
            </g>
            <g transform="matrix(0.280306,1.61778e-32,1.61778e-32,0.280306,-1331.54,-1766.13)">
                <rect x="5767.08" y="6999.82" width="184.61" height="1.67" style="fill:rgb(113,140,199);"/>
            </g>
            <g transform="matrix(0.280306,1.61778e-32,1.61778e-32,0.280306,-1331.54,-1766.13)">
                <path d="M5783.63,6962.55L5808.87,6962.55L5808.87,7007.51L5796.47,6999.82L5783.63,7007.51L5783.63,6962.55Z" style="fill:rgb(254,205,2);"/>
            </g>
            <g transform="matrix(0.280306,1.61778e-32,1.61778e-32,0.280306,-1331.54,-1766.13)">
                <path d="M5808.87,6972.43C5802.94,6970.58 5797.22,6969.94 5792.15,6969.94C5789.03,6969.94 5786.16,6970.19 5783.63,6970.53L5783.63,6962.55L5808.87,6962.55L5808.87,6972.43Z" style="fill:rgb(227,183,34);fill-rule:nonzero;"/>
            </g>
            <g transform="matrix(0.280306,1.61778e-32,1.61778e-32,0.280306,-1331.54,-1766.13)">
                <rect x="5698.92" y="7070.35" width="351.5" height="42.08" style="fill:rgb(220,79,80);fill-rule:nonzero;"/>
            </g>
            <g transform="matrix(0.280306,1.61778e-32,1.61778e-32,0.280306,-1331.54,-1766.13)">
                <rect x="5652.81" y="7172.97" width="443.71" height="51.16" style="fill:rgb(219,159,64);fill-rule:nonzero;"/>
            </g>
        </g>
    </g>
</svg>
