<?xml version="1.0" standalone="no"?>
<!DOCTYPE svg PUBLIC "-//W3C//DTD SVG 1.1//EN" "http://www.w3.org/Graphics/SVG/1.1/DTD/svg11.dtd">
<svg width="100%" height="100%" viewBox="0 0 300 298" version="1.1" xmlns="http://www.w3.org/2000/svg" xmlns:xlink="http://www.w3.org/1999/xlink" xml:space="preserve" style="fill-rule:evenodd;clip-rule:evenodd;stroke-linejoin:round;stroke-miterlimit:1.41421;">
    <g transform="matrix(1,0,0,1,-75.6193,-88.0312)">
        <g transform="matrix(0.6,-2.46519e-32,-3.69779e-32,0.6,74.544,90.5349)">
            <g transform="matrix(0.434608,0,-1.2326e-32,0.434608,-2877.32,-2206.76)">
                <path d="M7732,5600C7732,5893.81 7493.81,6132 7200,6132C6906.18,6132 6668,5893.81 6668,5600C6668,5306.18 6906.18,5068 7200,5068C7493.81,5068 7732,5306.18 7732,5600Z" style="fill:rgb(250,176,70);fill-rule:nonzero;"/>
            </g>
            <g transform="matrix(0.434608,0,-1.2326e-32,0.434608,-2877.32,-2206.76)">
                <path d="M7342.57,5670.49L7338.39,5659.64L7321.13,5666.29L7325.31,5677.13L7342.57,5670.49Z" style="fill:white;fill-rule:nonzero;"/>
            </g>
            <g transform="matrix(0.434608,0,-1.2326e-32,0.434608,-2877.32,-2206.76)">
                <path d="M7368.28,5660.58L7364.1,5649.73L7346.84,5656.39L7351.02,5667.23L7368.28,5660.58Z" style="fill:white;fill-rule:nonzero;"/>
            </g>
            <g transform="matrix(0.434608,0,-1.2326e-32,0.434608,-2877.32,-2206.76)">
                <path d="M7393.98,5650.68L7389.8,5639.83L7372.54,5646.48L7376.72,5657.32L7393.98,5650.68Z" style="fill:white;fill-rule:nonzero;"/>
            </g>
            <g transform="matrix(0.434608,0,-1.2326e-32,0.434608,-2877.32,-2206.76)">
                <path d="M7419.69,5640.77L7415.51,5629.93L7398.25,5636.58L7402.43,5647.42L7419.69,5640.77Z" style="fill:white;fill-rule:nonzero;"/>
            </g>
            <g transform="matrix(0.434608,0,-1.2326e-32,0.434608,-2877.32,-2206.76)">
                <path d="M7445.39,5630.86L7441.22,5620.02L7423.96,5626.67L7428.13,5637.51L7445.39,5630.86Z" style="fill:white;fill-rule:nonzero;"/>
            </g>
            <g transform="matrix(0.434608,0,-1.2326e-32,0.434608,-2877.32,-2206.76)">
                <path d="M7471.1,5620.96L7466.92,5610.12L7449.66,5616.76L7453.84,5627.6L7471.1,5620.96Z" style="fill:white;fill-rule:nonzero;"/>
            </g>
            <g transform="matrix(0.434608,0,-1.2326e-32,0.434608,-2877.32,-2206.76)">
                <path d="M7496.8,5611.05L7492.62,5600.21L7475.36,5606.86L7479.54,5617.7L7496.8,5611.05Z" style="fill:white;fill-rule:nonzero;"/>
            </g>
            <g transform="matrix(0.434608,0,-1.2326e-32,0.434608,-2877.32,-2206.76)">
                <path d="M7266.99,5582.32L7259.81,5573.18L7245.26,5584.6L7252.43,5593.74L7266.99,5582.32Z" style="fill:white;fill-rule:nonzero;"/>
            </g>
            <g transform="matrix(0.434608,0,-1.2326e-32,0.434608,-2877.32,-2206.76)">
                <path d="M7288.65,5565.31L7281.48,5556.17L7266.93,5567.59L7274.1,5576.73L7288.65,5565.31Z" style="fill:white;fill-rule:nonzero;"/>
            </g>
            <g transform="matrix(0.434608,0,-1.2326e-32,0.434608,-2877.32,-2206.76)">
                <path d="M7310.33,5548.31L7303.15,5539.17L7288.6,5550.59L7295.77,5559.73L7310.33,5548.31Z" style="fill:white;fill-rule:nonzero;"/>
            </g>
            <g transform="matrix(0.434608,0,-1.2326e-32,0.434608,-2877.32,-2206.76)">
                <path d="M7332,5531.3L7324.82,5522.16L7310.27,5533.57L7317.45,5542.72L7332,5531.3Z" style="fill:white;fill-rule:nonzero;"/>
            </g>
            <g transform="matrix(0.434608,0,-1.2326e-32,0.434608,-2877.32,-2206.76)">
                <path d="M7353.67,5514.3L7346.5,5505.16L7331.95,5516.57L7339.12,5525.72L7353.67,5514.3Z" style="fill:white;fill-rule:nonzero;"/>
            </g>
            <g transform="matrix(0.434608,0,-1.2326e-32,0.434608,-2877.32,-2206.76)">
                <path d="M7375.34,5497.29L7368.17,5488.14L7353.62,5499.56L7360.79,5508.7L7375.34,5497.29Z" style="fill:white;fill-rule:nonzero;"/>
            </g>
            <g transform="matrix(0.434608,0,-1.2326e-32,0.434608,-2877.32,-2206.76)">
                <path d="M7397.01,5480.28L7389.84,5471.14L7375.29,5482.56L7382.46,5491.7L7397.01,5480.28Z" style="fill:white;fill-rule:nonzero;"/>
            </g>
            <g transform="matrix(0.434608,0,-1.2326e-32,0.434608,-2877.32,-2206.76)">
                <path d="M7207.99,5498.78L7197.86,5493.09L7188.8,5509.21L7198.93,5514.91L7207.99,5498.78Z" style="fill:white;fill-rule:nonzero;"/>
            </g>
            <g transform="matrix(0.434608,0,-1.2326e-32,0.434608,-2877.32,-2206.76)">
                <path d="M7221.5,5474.77L7211.37,5469.08L7202.3,5485.2L7212.43,5490.9L7221.5,5474.77Z" style="fill:white;fill-rule:nonzero;"/>
            </g>
            <g transform="matrix(0.434608,0,-1.2326e-32,0.434608,-2877.32,-2206.76)">
                <path d="M7235,5450.76L7224.87,5445.06L7215.8,5461.18L7225.93,5466.88L7235,5450.76Z" style="fill:white;fill-rule:nonzero;"/>
            </g>
            <g transform="matrix(0.434608,0,-1.2326e-32,0.434608,-2877.32,-2206.76)">
                <path d="M7248.5,5426.74L7238.37,5421.05L7229.3,5437.17L7239.43,5442.86L7248.5,5426.74Z" style="fill:white;fill-rule:nonzero;"/>
            </g>
            <g transform="matrix(0.434608,0,-1.2326e-32,0.434608,-2877.32,-2206.76)">
                <path d="M7262,5402.73L7251.88,5397.04L7242.81,5413.16L7252.94,5418.86L7262,5402.73Z" style="fill:white;fill-rule:nonzero;"/>
            </g>
            <g transform="matrix(0.434608,0,-1.2326e-32,0.434608,-2877.32,-2206.76)">
                <path d="M7275.5,5378.72L7265.37,5373.03L7256.31,5389.15L7266.44,5394.84L7275.5,5378.72Z" style="fill:white;fill-rule:nonzero;"/>
            </g>
            <g transform="matrix(0.434608,0,-1.2326e-32,0.434608,-2877.32,-2206.76)">
                <path d="M7289,5354.71L7278.87,5349.02L7269.8,5365.14L7279.93,5370.83L7289,5354.71Z" style="fill:white;fill-rule:nonzero;"/>
            </g>
            <g transform="matrix(0.434608,0,-1.2326e-32,0.434608,-2877.32,-2206.76)">
                <path d="M6833.25,5799.92L6824.82,5807.55C6824.82,5807.55 6829.17,5812.41 6833.81,5817C6836.14,5819.31 6838.5,5821.57 6840.33,5823.24C6841.26,5824.07 6842.04,5824.76 6842.58,5825.25C6843.13,5825.72 6843.44,5825.98 6843.44,5825.98L6850.86,5817.36C6850.86,5817.36 6850.57,5817.11 6850.05,5816.67C6849.56,5816.22 6848.85,5815.59 6847.99,5814.83C6846.29,5813.28 6844.04,5811.13 6841.84,5808.95C6837.42,5804.57 6833.25,5799.92 6833.25,5799.92Z" style="fill:rgb(237,238,238);fill-rule:nonzero;"/>
            </g>
            <g transform="matrix(0.434608,0,-1.2326e-32,0.434608,-2877.32,-2206.76)">
                <path d="M6810.55,5770.62L6801.04,5776.86C6801.04,5776.86 6801.26,5777.19 6801.65,5777.8C6802.04,5778.4 6802.58,5779.26 6803.29,5780.25C6804.71,5782.26 6806.52,5784.98 6808.5,5787.58C6812.34,5792.86 6816.5,5797.88 6816.5,5797.88L6825.29,5790.67C6825.29,5790.67 6821.31,5785.87 6817.65,5780.83C6815.76,5778.35 6814.04,5775.76 6812.7,5773.85C6812.02,5772.9 6811.5,5772.09 6811.13,5771.52C6810.76,5770.94 6810.55,5770.62 6810.55,5770.62Z" style="fill:rgb(237,238,238);fill-rule:nonzero;"/>
            </g>
            <g transform="matrix(0.434608,0,-1.2326e-32,0.434608,-2877.32,-2206.76)">
                <path d="M6793.4,5738.31L6782.68,5742.17C6782.68,5742.17 6783.24,5743.72 6784.28,5745.98C6785.31,5748.23 6786.56,5751.29 6788.09,5754.23C6788.83,5755.71 6789.56,5757.19 6790.25,5758.57C6791,5759.93 6791.69,5761.2 6792.29,5762.29C6793.48,5764.47 6794.28,5765.92 6794.28,5765.92L6804.19,5760.34C6804.19,5760.34 6803.45,5759 6802.34,5756.98C6801.79,5755.97 6801.15,5754.79 6800.46,5753.53C6799.81,5752.25 6799.13,5750.87 6798.44,5749.5C6797.02,5746.78 6795.85,5743.94 6794.9,5741.85C6793.93,5739.76 6793.4,5738.31 6793.4,5738.31Z" style="fill:rgb(237,238,238);fill-rule:nonzero;"/>
            </g>
            <g transform="matrix(0.434608,0,-1.2326e-32,0.434608,-2877.32,-2206.76)">
                <path d="M6783.91,5703.13L6772.49,5704.23C6772.49,5704.23 6772.73,5705.87 6773.09,5708.32C6773.36,5710.79 6774.17,5714 6774.81,5717.24C6775.11,5718.87 6775.55,5720.46 6775.96,5721.95C6776.37,5723.45 6776.74,5724.84 6777.07,5726.04C6777.38,5727.25 6777.68,5728.23 6777.92,5728.91C6778.15,5729.6 6778.28,5729.99 6778.28,5729.99L6789.31,5727.02C6789.31,5727.02 6789.19,5726.66 6788.98,5726.02C6788.75,5725.39 6788.47,5724.47 6788.18,5723.36C6787.88,5722.25 6787.53,5720.96 6787.15,5719.57C6786.76,5718.18 6786.35,5716.71 6786.07,5715.2C6785.47,5712.19 6784.71,5709.21 6784.46,5706.92C6784.13,5704.64 6783.91,5703.13 6783.91,5703.13Z" style="fill:rgb(237,238,238);fill-rule:nonzero;"/>
            </g>
            <g transform="matrix(0.434608,0,-1.2326e-32,0.434608,-2877.32,-2206.76)">
                <path d="M6784.57,5666.72L6773.22,5665.02C6773.22,5665.02 6772.99,5666.65 6772.66,5669.11C6772.48,5670.34 6772.28,5671.77 6772.07,5673.31C6771.84,5674.84 6771.83,5676.5 6771.69,5678.14C6771.59,5679.79 6771.48,5681.44 6771.39,5682.99C6771.32,5684.53 6771.39,5685.98 6771.38,5687.22C6771.41,5689.7 6771.42,5691.35 6771.42,5691.35L6782.89,5691.17C6782.89,5691.17 6782.88,5689.63 6782.86,5687.34C6782.86,5686.18 6782.8,5684.84 6782.86,5683.4C6782.95,5681.97 6783.05,5680.44 6783.14,5678.91C6783.27,5677.38 6783.28,5675.84 6783.5,5674.42C6783.69,5672.99 6783.88,5671.67 6784.04,5670.53C6784.36,5668.25 6784.57,5666.72 6784.57,5666.72Z" style="fill:rgb(237,238,238);fill-rule:nonzero;"/>
            </g>
            <g transform="matrix(0.434608,0,-1.2326e-32,0.434608,-2877.32,-2206.76)">
                <path d="M6796.27,5632.24L6785.76,5627.83C6785.76,5627.83 6785.04,5629.32 6783.97,5631.56C6783.44,5632.68 6782.81,5633.98 6782.15,5635.38C6781.59,5636.82 6780.99,5638.37 6780.39,5639.9C6779.79,5641.45 6779.2,5642.99 6778.63,5644.43C6778.07,5645.87 6777.73,5647.29 6777.35,5648.46C6776.64,5650.84 6776.16,5652.42 6776.16,5652.42L6787.31,5655.04C6787.31,5655.04 6787.75,5653.57 6788.42,5651.37C6788.78,5650.27 6789.09,5648.96 6789.62,5647.62C6790.14,5646.29 6790.7,5644.86 6791.26,5643.43C6791.82,5642 6792.38,5640.57 6792.9,5639.23C6793.52,5637.94 6794.11,5636.72 6794.6,5635.69C6795.61,5633.62 6796.27,5632.24 6796.27,5632.24Z" style="fill:rgb(237,238,238);fill-rule:nonzero;"/>
            </g>
            <g transform="matrix(0.434608,0,-1.2326e-32,0.434608,-2877.32,-2206.76)">
                <path d="M6814.21,5599.57L6804.35,5593.91C6804.35,5593.91 6801.18,5599.47 6798.02,5605.04C6794.89,5610.71 6791.76,5616.37 6791.76,5616.37L6801.86,5621.61C6801.86,5621.61 6804.9,5616.11 6807.94,5610.61C6811.07,5605.09 6814.21,5599.57 6814.21,5599.57Z" style="fill:rgb(237,238,238);fill-rule:nonzero;"/>
            </g>
            <g transform="matrix(0.434608,0,-1.2326e-32,0.434608,-2877.32,-2206.76)">
                <path d="M6833.42,5566.86L6823.65,5561.04L6810.64,5583.06L6820.46,5588.79L6833.42,5566.86Z" style="fill:rgb(237,238,238);fill-rule:nonzero;"/>
            </g>
            <g transform="matrix(0.434608,0,-1.2326e-32,0.434608,-2877.32,-2206.76)">
                <path d="M6852.83,5534.13L6843.02,5528.38L6830.04,5550.31L6839.82,5556.13L6852.83,5534.13Z" style="fill:rgb(237,238,238);fill-rule:nonzero;"/>
            </g>
            <g transform="matrix(0.434608,0,-1.2326e-32,0.434608,-2877.32,-2206.76)">
                <path d="M6871.65,5500.87L6861.64,5495.47C6861.64,5495.47 6858.58,5501.02 6855.52,5506.58C6852.43,5512.12 6849.26,5517.62 6849.26,5517.62L6859.12,5523.28C6859.12,5523.28 6862.32,5517.73 6865.45,5512.12C6867.03,5509.34 6868.55,5506.5 6869.72,5504.39C6870.87,5502.27 6871.65,5500.87 6871.65,5500.87Z" style="fill:rgb(237,238,238);fill-rule:nonzero;"/>
            </g>
            <g transform="matrix(0.434608,0,-1.2326e-32,0.434608,-2877.32,-2206.76)">
                <path d="M6888.79,5466.48L6878.44,5461.8C6878.44,5461.8 6877.78,5463.24 6876.79,5465.38C6875.83,5467.53 6874.46,5470.38 6873.07,5473.21C6871.71,5476.05 6870.3,5478.88 6869.21,5480.98C6868.13,5483.09 6867.42,5484.5 6867.42,5484.5L6877.53,5489.71C6877.53,5489.71 6878.25,5488.28 6879.36,5486.13C6880.46,5483.98 6881.9,5481.09 6883.29,5478.18C6884.72,5475.29 6886.12,5472.38 6887.11,5470.16C6888.13,5467.96 6888.79,5466.48 6888.79,5466.48Z" style="fill:rgb(237,238,238);fill-rule:nonzero;"/>
            </g>
            <g transform="matrix(0.434608,0,-1.2326e-32,0.434608,-2877.32,-2206.76)">
                <path d="M6902.76,5430.4L6891.91,5427C6891.91,5427 6891.43,5428.48 6890.7,5430.71C6890.01,5432.94 6888.96,5435.89 6887.86,5438.83C6886.83,5441.78 6885.67,5444.69 6884.79,5446.88C6883.91,5449.06 6883.33,5450.51 6883.33,5450.51L6893.85,5454.86C6893.85,5454.86 6894.45,5453.35 6895.35,5451.08C6896.26,5448.83 6897.47,5445.81 6898.55,5442.73C6899.67,5439.69 6900.77,5436.62 6901.5,5434.28C6902.26,5431.95 6902.76,5430.4 6902.76,5430.4Z" style="fill:rgb(237,238,238);fill-rule:nonzero;"/>
            </g>
            <g transform="matrix(0.434608,0,-1.2326e-32,0.434608,-2877.32,-2206.76)">
                <path d="M6911.11,5392.23L6899.82,5390.94C6899.82,5390.94 6899.78,5391.33 6899.71,5392C6899.61,5392.66 6899.47,5393.62 6899.3,5394.76C6898.95,5397.06 6898.59,5400.12 6897.93,5403.16C6897.34,5406.2 6896.76,5409.24 6896.17,5411.5C6895.62,5413.76 6895.25,5415.27 6895.25,5415.27L6906.27,5418.08C6906.27,5418.08 6906.65,5416.48 6907.23,5414.1C6907.86,5411.72 6908.48,5408.49 6909.11,5405.26C6909.8,5402.05 6910.19,5398.76 6910.57,5396.32C6910.75,5395.1 6910.9,5394.08 6911,5393.36C6911.07,5392.64 6911.11,5392.23 6911.11,5392.23Z" style="fill:rgb(237,238,238);fill-rule:nonzero;"/>
            </g>
            <g transform="matrix(0.434608,0,-1.2326e-32,0.434608,-2877.32,-2206.76)">
                <path d="M6910.57,5352.82L6899.32,5354.5C6899.32,5354.5 6899.54,5356.02 6899.88,5358.29C6900.16,5360.56 6900.33,5363.62 6900.61,5366.67C6900.73,5369.73 6900.75,5372.8 6900.81,5375.1C6900.74,5377.4 6900.68,5378.93 6900.68,5378.93L6912.04,5379.32C6912.04,5379.32 6912.1,5377.66 6912.19,5375.18C6912.12,5372.69 6912.1,5369.37 6911.96,5366.05C6911.67,5362.73 6911.47,5359.41 6911.17,5356.94C6910.81,5354.47 6910.57,5352.82 6910.57,5352.82Z" style="fill:rgb(237,238,238);fill-rule:nonzero;"/>
            </g>
            <g transform="matrix(0.434608,0,-1.2326e-32,0.434608,-2877.32,-2206.76)">
                <path d="M7117.51,5786.98L7107.13,5790.02C7107.13,5790.02 7104.77,5784.22 7102.78,5778.3C7101.78,5775.35 7100.83,5772.37 7100.18,5770.11C7099.86,5768.97 7099.59,5768.01 7099.4,5767.35C7099.22,5766.69 7099.13,5766.31 7099.13,5766.31L7109.93,5764.56C7109.93,5764.56 7110.02,5764.92 7110.18,5765.54C7110.36,5766.14 7110.6,5767.02 7110.9,5768.06C7111.5,5770.17 7112.4,5772.99 7113.36,5775.8C7115.25,5781.43 7117.51,5786.98 7117.51,5786.98Z" style="fill:rgb(237,238,238);fill-rule:nonzero;"/>
            </g>
            <g transform="matrix(0.434608,0,-1.2326e-32,0.434608,-2877.32,-2206.76)">
                <path d="M7133.25,5819.17L7123.62,5823.74C7123.62,5823.74 7123.42,5823.4 7123.06,5822.8C7122.7,5822.21 7122.19,5821.35 7121.63,5820.31C7120.49,5818.22 7118.9,5815.47 7117.49,5812.64C7114.54,5807.04 7111.96,5801.3 7111.96,5801.3L7122.13,5797.77C7122.13,5797.77 7124.6,5803.26 7127.4,5808.6C7128.75,5811.29 7130.27,5813.91 7131.35,5815.9C7131.89,5816.9 7132.38,5817.71 7132.71,5818.28C7133.05,5818.85 7133.25,5819.17 7133.25,5819.17Z" style="fill:rgb(237,238,238);fill-rule:nonzero;"/>
            </g>
            <g transform="matrix(0.434608,0,-1.2326e-32,0.434608,-2877.32,-2206.76)">
                <path d="M7154.05,5848.38L7145.98,5855.08C7145.98,5855.08 7144.86,5853.88 7143.34,5851.96C7141.81,5850.06 7139.68,5847.58 7137.78,5844.95C7136.8,5843.65 7135.83,5842.36 7134.92,5841.13C7134.05,5839.89 7133.24,5838.72 7132.54,5837.73C7131.16,5835.73 7130.25,5834.4 7130.25,5834.4L7139.47,5829.19C7139.47,5829.19 7140.32,5830.43 7141.61,5832.28C7142.25,5833.21 7143,5834.29 7143.8,5835.44C7144.65,5836.57 7145.55,5837.79 7146.46,5838.99C7148.21,5841.43 7150.2,5843.73 7151.61,5845.5C7153.01,5847.28 7154.05,5848.38 7154.05,5848.38Z" style="fill:rgb(237,238,238);fill-rule:nonzero;"/>
            </g>
            <g transform="matrix(0.434608,0,-1.2326e-32,0.434608,-2877.32,-2206.76)">
                <path d="M7180.73,5872.9L7174.77,5881.46C7174.77,5881.46 7173.44,5880.48 7171.44,5879.01C7169.39,5877.61 7166.93,5875.42 7164.38,5873.35C7163.09,5872.32 7161.88,5871.21 7160.75,5870.16C7159.61,5869.11 7158.56,5868.14 7157.66,5867.3C7156.74,5866.48 7156,5865.77 7155.51,5865.25C7155.01,5864.73 7154.73,5864.44 7154.73,5864.44L7162.15,5857.09C7162.15,5857.09 7162.42,5857.36 7162.88,5857.84C7163.34,5858.32 7164.02,5858.98 7164.87,5859.75C7165.71,5860.53 7166.69,5861.43 7167.74,5862.4C7168.78,5863.38 7169.9,5864.41 7171.1,5865.36C7173.48,5867.29 7175.75,5869.34 7177.64,5870.64C7179.49,5872 7180.73,5872.9 7180.73,5872.9Z" style="fill:rgb(237,238,238);fill-rule:nonzero;"/>
            </g>
            <g transform="matrix(0.434608,0,-1.2326e-32,0.434608,-2877.32,-2206.76)">
                <path d="M7212.92,5889.91L7209.45,5899.77C7209.45,5899.77 7207.91,5899.16 7205.61,5898.25C7204.46,5897.79 7203.12,5897.27 7201.68,5896.7C7200.24,5896.13 7198.78,5895.35 7197.28,5894.66C7195.79,5893.95 7194.3,5893.24 7192.9,5892.58C7191.51,5891.88 7190.27,5891.13 7189.19,5890.54C7187.02,5889.32 7185.58,5888.52 7185.58,5888.52L7190.76,5879.47C7190.76,5879.47 7192.1,5880.22 7194.11,5881.34C7195.12,5881.89 7196.27,5882.6 7197.55,5883.24C7198.85,5883.85 7200.23,5884.52 7201.62,5885.18C7203.01,5885.81 7204.36,5886.55 7205.7,5887.06C7207.04,5887.59 7208.29,5888.08 7209.36,5888.5C7211.49,5889.35 7212.92,5889.91 7212.92,5889.91Z" style="fill:rgb(237,238,238);fill-rule:nonzero;"/>
            </g>
            <g transform="matrix(0.434608,0,-1.2326e-32,0.434608,-2877.32,-2206.76)">
                <path d="M7248.26,5897.21L7247.52,5907.7C7247.52,5907.7 7245.9,5907.55 7243.48,5907.33C7242.26,5907.21 7240.85,5907.08 7239.32,5906.94C7237.81,5906.69 7236.2,5906.43 7234.59,5906.16C7232.98,5905.9 7231.37,5905.63 7229.86,5905.38C7228.35,5905.13 7226.96,5904.71 7225.76,5904.46C7223.37,5903.88 7221.77,5903.5 7221.77,5903.5L7224.36,5893.36C7224.36,5893.36 7225.84,5893.71 7228.06,5894.24C7229.18,5894.48 7230.46,5894.87 7231.86,5895.09C7233.27,5895.32 7234.77,5895.56 7236.26,5895.81C7237.75,5896.05 7239.25,5896.29 7240.65,5896.52C7242.06,5896.65 7243.38,5896.77 7244.5,5896.88C7246.76,5897.08 7248.26,5897.21 7248.26,5897.21Z" style="fill:rgb(237,238,238);fill-rule:nonzero;"/>
            </g>
            <g transform="matrix(0.434608,0,-1.2326e-32,0.434608,-2877.32,-2206.76)">
                <path d="M7284.74,5898.66L7285.39,5909.24C7285.39,5909.24 7279.12,5909.08 7272.85,5908.92C7266.52,5908.68 7260.2,5908.44 7260.2,5908.44L7260.01,5897.88C7260.01,5897.88 7266.17,5898.11 7272.32,5898.34C7278.53,5898.5 7284.74,5898.66 7284.74,5898.66Z" style="fill:rgb(237,238,238);fill-rule:nonzero;"/>
            </g>
            <g transform="matrix(0.434608,0,-1.2326e-32,0.434608,-2877.32,-2206.76)">
                <path d="M7321.81,5899.13L7322.63,5909.71L7297.64,5909.46L7296.91,5898.88L7321.81,5899.13Z" style="fill:rgb(237,238,238);fill-rule:nonzero;"/>
            </g>
            <g transform="matrix(0.434608,0,-1.2326e-32,0.434608,-2877.32,-2206.76)">
                <path d="M7359,5899.44L7359.73,5910.03L7334.83,5909.79L7334.01,5899.21L7359,5899.44Z" style="fill:rgb(237,238,238);fill-rule:nonzero;"/>
            </g>
            <g transform="matrix(0.434608,0,-1.2326e-32,0.434608,-2877.32,-2206.76)">
                <path d="M7396.37,5900.48L7396.72,5911.05C7396.72,5911.05 7390.52,5910.81 7384.32,5910.57C7378.11,5910.36 7371.89,5910.24 7371.89,5910.24L7371.25,5899.66C7371.25,5899.66 7377.51,5899.79 7383.79,5900C7386.94,5900.08 7390.08,5900.23 7392.44,5900.32C7394.8,5900.42 7396.37,5900.48 7396.37,5900.48Z" style="fill:rgb(237,238,238);fill-rule:nonzero;"/>
            </g>
            <g transform="matrix(0.434608,0,-1.2326e-32,0.434608,-2877.32,-2206.76)">
                <path d="M7434.01,5903.39L7433.58,5913.9C7433.58,5913.9 7432.04,5913.74 7429.73,5913.48C7427.42,5913.22 7424.32,5912.93 7421.24,5912.68C7418.15,5912.39 7415.06,5912.15 7412.73,5912C7410.41,5911.84 7408.87,5911.73 7408.87,5911.73L7408.72,5901.18C7408.72,5901.18 7410.3,5901.29 7412.67,5901.45C7415.03,5901.6 7418.19,5901.84 7421.35,5902.13C7424.52,5902.4 7427.68,5902.69 7430.05,5902.97C7432.43,5903.22 7434.01,5903.39 7434.01,5903.39Z" style="fill:rgb(237,238,238);fill-rule:nonzero;"/>
            </g>
            <g transform="matrix(0.434608,0,-1.2326e-32,0.434608,-2877.32,-2206.76)">
                <path d="M7471.74,5909.65L7469.98,5919.93C7469.98,5919.93 7468.46,5919.61 7466.2,5919.11C7463.93,5918.59 7460.89,5918.01 7457.84,5917.46C7454.8,5916.86 7451.74,5916.38 7449.44,5916.04C7447.15,5915.68 7445.61,5915.44 7445.61,5915.44L7446.41,5904.97C7446.41,5904.97 7448,5905.22 7450.38,5905.59C7452.75,5905.96 7455.92,5906.45 7459.09,5907.07C7462.26,5907.64 7465.43,5908.24 7467.79,5908.79C7470.16,5909.32 7471.74,5909.65 7471.74,5909.65Z" style="fill:rgb(237,238,238);fill-rule:nonzero;"/>
            </g>
            <g transform="matrix(0.434608,0,-1.2326e-32,0.434608,-2877.32,-2206.76)">
                <path d="M7508.85,5921.39L7505.03,5931.01C7505.03,5931.01 7504.68,5930.86 7504.06,5930.59C7503.44,5930.34 7502.54,5929.99 7501.46,5929.58C7499.3,5928.76 7496.45,5927.56 7493.51,5926.63C7490.59,5925.63 7487.66,5924.62 7485.42,5924.02C7483.2,5923.37 7481.72,5922.93 7481.72,5922.93L7484.08,5912.8C7484.08,5912.8 7485.64,5913.26 7487.99,5913.95C7490.35,5914.6 7493.45,5915.66 7496.56,5916.72C7499.67,5917.71 7502.72,5918.98 7505.03,5919.86C7506.18,5920.31 7507.13,5920.68 7507.81,5920.94C7508.47,5921.23 7508.85,5921.39 7508.85,5921.39Z" style="fill:rgb(237,238,238);fill-rule:nonzero;"/>
            </g>
            <g transform="matrix(0.434608,0,-1.2326e-32,0.434608,-2877.32,-2206.76)">
                <path d="M7543.14,5940.82L7536.74,5948.96C7536.74,5948.96 7535.52,5948.05 7533.67,5946.7C7531.8,5945.38 7529.2,5943.76 7526.65,5942.08C7524.02,5940.51 7521.34,5939.01 7519.36,5937.85C7517.3,5936.81 7515.94,5936.11 7515.94,5936.11L7520.57,5926.88C7520.57,5926.88 7522.04,5927.63 7524.26,5928.76C7526.41,5930.01 7529.32,5931.63 7532.16,5933.33C7534.94,5935.16 7537.76,5936.92 7539.8,5938.36C7541.81,5939.83 7543.14,5940.82 7543.14,5940.82Z" style="fill:rgb(237,238,238);fill-rule:nonzero;"/>
            </g>
            <g transform="matrix(0.434608,0,-1.2326e-32,0.434608,-2877.32,-2206.76)">
                <path d="M7019.4,6140.47L6927.58,6209.26L6838.49,6011.36L6892.42,5970.96L7019.4,6140.47Z" style="fill:rgb(20,79,120);fill-rule:nonzero;"/>
            </g>
            <g transform="matrix(0.434608,0,-1.2326e-32,0.434608,-2877.32,-2206.76)">
                <path d="M6984.79,6166.4L6867.56,6009.92L6905.95,5989.02L7019.4,6140.47L6984.79,6166.4Z" style="fill:rgb(15,63,96);"/>
            </g>
            <g transform="matrix(0.434608,0,-1.2326e-32,0.434608,-2877.32,-2206.76)">
                <path d="M7311.76,5725.75C7322.61,5740.24 7319.67,5760.79 7305.18,5771.64L6749.17,6074.39C6718.56,6088.21 6708.12,6074.28 6697.27,6059.79L6635.58,5977.44C6624.72,5962.94 6617.93,5946.28 6634.88,5927.89L7097.71,5494.7C7112.2,5483.85 7132.75,5486.8 7143.61,5501.28L7311.76,5725.75Z" style="fill:white;fill-rule:nonzero;"/>
            </g>
            <g transform="matrix(0.434608,0,-1.2326e-32,0.434608,-2877.32,-2206.76)">
                <path d="M6653.27,5910.68L6634.88,5927.89C6617.93,5946.28 6624.72,5962.94 6635.58,5977.44L6697.27,6059.79C6708.12,6074.28 6718.56,6088.21 6749.17,6074.39L6768.16,6064.05L6653.27,5910.68Z" style="fill:rgb(20,79,120);fill-rule:nonzero;"/>
            </g>
            <g transform="matrix(0.434608,0,-1.2326e-32,0.434608,-2877.32,-2206.76)">
                <path d="M7097.71,5494.7L7067.53,5522.95L7268.7,5791.5L7305.18,5771.64C7319.67,5760.79 7322.61,5740.24 7311.76,5725.75L7143.61,5501.28C7132.75,5486.8 7112.2,5483.85 7097.71,5494.7Z" style="fill:rgb(20,79,120);fill-rule:nonzero;"/>
            </g>
            <g transform="matrix(0.434608,0,-1.2326e-32,0.434608,-2877.32,-2206.76)">
                <path d="M6727.11,6080.07C6727.13,6080.07 6727.15,6080.07 6727.18,6080.07C6727.15,6080.07 6727.13,6080.07 6727.11,6080.07ZM6768.16,6064.05L6710.71,5987.36L7162.11,5649.22L7268.7,5791.5L7305.18,5771.64L6905.95,5989.02L6867.56,6009.92L6843.69,6022.92L6768.16,6064.05Z" style="fill:rgb(205,204,204);fill-rule:nonzero;"/>
            </g>
            <g transform="matrix(0.434608,0,-1.2326e-32,0.434608,-2877.32,-2206.76)">
                <path d="M6727.11,6080.07C6712.47,6080.07 6704.97,6070.07 6697.27,6059.79L6667.35,6019.85L6710.71,5987.36L6768.16,6064.05L6749.17,6074.39C6740.31,6078.38 6733.15,6080.06 6727.18,6080.07C6727.15,6080.07 6727.13,6080.07 6727.11,6080.07Z" style="fill:rgb(15,63,96);fill-rule:nonzero;"/>
            </g>
            <g transform="matrix(0.434608,0,-1.2326e-32,0.434608,-2877.32,-2206.76)">
                <path d="M7268.7,5791.5L7162.11,5649.22L7221.24,5604.92L7311.76,5725.75C7316.17,5731.63 7318.3,5738.52 7318.3,5745.35C7318.31,5755.33 7313.78,5765.2 7305.18,5771.64L7268.7,5791.5Z" style="fill:rgb(15,63,96);fill-rule:nonzero;"/>
            </g>
            <g transform="matrix(0.434608,0,-1.2326e-32,0.434608,-2877.32,-2206.76)">
                <path d="M7501.68,6129.73C7501.68,6135.16 7497.27,6139.58 7491.83,6139.58L7356.08,6139.58C7350.64,6139.58 7346.23,6135.16 7346.23,6129.73L7346.23,5983.03C7346.23,5977.58 7350.64,5973.18 7356.08,5973.18L7491.83,5973.18C7497.27,5973.18 7501.68,5977.58 7501.68,5983.03L7501.68,6129.73Z" style="fill:rgb(239,67,35);fill-rule:nonzero;"/>
            </g>
            <g transform="matrix(0.434608,0,-1.2326e-32,0.434608,-2877.32,-2206.76)">
                <path d="M7486.76,6064.36L7486.76,6056.37L7501.68,6056.37L7486.76,6064.36ZM7361.15,6062.76L7349.76,6056.37L7361.15,6056.37L7361.15,6062.76Z" style="fill:rgb(110,36,17);fill-rule:nonzero;"/>
            </g>
            <g transform="matrix(0.434608,0,-1.2326e-32,0.434608,-2877.32,-2206.76)">
                <rect x="7361.15" y="5987" width="125.61" height="137.52" style="fill:rgb(232,232,230);fill-rule:nonzero;"/>
            </g>
            <g transform="matrix(0.434608,0,-1.2326e-32,0.434608,-2877.32,-2206.76)">
                <path d="M7349.76,6056.37L7346.23,6056.37L7346.23,6129.73C7346.23,6135.16 7350.64,6139.58 7356.08,6139.58L7491.83,6139.58C7497.27,6139.58 7501.68,6135.16 7501.68,6129.73L7501.68,6056.37L7423.96,6097.97L7349.76,6056.37Z" style="fill:rgb(95,193,151);fill-rule:nonzero;"/>
            </g>
            <g transform="matrix(0.434608,0,-1.2326e-32,0.434608,-2877.32,-2206.76)">
                <path d="M7491.83,6139.58L7356.08,6139.58C7356.04,6139.58 7355.99,6139.57 7355.95,6139.57L7355.68,6139.57C7355.68,6139.57 7355.67,6139.57 7355.66,6139.57C7355.62,6139.56 7355.59,6139.56 7355.55,6139.56L7355.54,6139.56C7355.5,6139.56 7355.46,6139.56 7355.42,6139.55L7355.41,6139.55C7352.83,6139.38 7350.52,6138.2 7348.86,6136.41L7423.96,6097.97L7501.68,6056.37L7501.68,6129.73C7501.68,6135.16 7497.27,6139.58 7491.83,6139.58Z" style="fill:rgb(30,182,131);fill-rule:nonzero;"/>
            </g>
            <g transform="matrix(0.434608,0,-1.2326e-32,0.434608,-2877.32,-2206.76)">
                <rect x="7376.33" y="6000.14" width="100.99" height="3.69" style="fill:rgb(167,167,166);fill-rule:nonzero;"/>
            </g>
            <g transform="matrix(0.434608,0,-1.2326e-32,0.434608,-2877.32,-2206.76)">
                <rect x="7376.33" y="6006.7" width="100.99" height="3.7" style="fill:rgb(167,167,166);fill-rule:nonzero;"/>
            </g>
            <g transform="matrix(0.434608,0,-1.2326e-32,0.434608,-2877.32,-2206.76)">
                <rect x="7376.33" y="6013.68" width="100.99" height="3.7" style="fill:rgb(167,167,166);fill-rule:nonzero;"/>
            </g>
            <g transform="matrix(0.434608,0,-1.2326e-32,0.434608,-2877.32,-2206.76)">
                <rect x="7376.33" y="6020.46" width="100.99" height="3.69" style="fill:rgb(167,167,166);fill-rule:nonzero;"/>
            </g>
            <g transform="matrix(0.434608,0,-1.2326e-32,0.434608,-2877.32,-2206.76)">
                <rect x="7376.33" y="6029.08" width="100.99" height="3.69" style="fill:rgb(167,167,166);fill-rule:nonzero;"/>
            </g>
            <g transform="matrix(0.434608,0,-1.2326e-32,0.434608,-2877.32,-2206.76)">
                <rect x="7376.33" y="6039.34" width="100.99" height="3.69" style="fill:rgb(167,167,166);fill-rule:nonzero;"/>
            </g>
            <g transform="matrix(0.434608,0,-1.2326e-32,0.434608,-2877.32,-2206.76)">
                <rect x="7376.33" y="6046.52" width="100.99" height="3.7" style="fill:rgb(167,167,166);fill-rule:nonzero;"/>
            </g>
            <g transform="matrix(0.434608,0,-1.2326e-32,0.434608,-2877.32,-2206.76)">
                <rect x="7376.33" y="6053.29" width="100.99" height="3.7" style="fill:rgb(167,167,166);fill-rule:nonzero;"/>
            </g>
            <g transform="matrix(0.434608,0,-1.2326e-32,0.434608,-2877.32,-2206.76)">
                <rect x="7376.33" y="6061.09" width="100.99" height="3.7" style="fill:rgb(167,167,166);fill-rule:nonzero;"/>
            </g>
            <g transform="matrix(0.434608,0,-1.2326e-32,0.434608,-2877.32,-2206.76)">
                <path d="M7775.08,5976.9C7775.08,5986.24 7767.5,5993.81 7758.16,5993.81L7525.2,5993.81C7515.86,5993.81 7508.29,5986.24 7508.29,5976.9L7508.29,5725.15C7508.29,5715.81 7515.86,5708.24 7525.2,5708.24L7758.16,5708.24C7767.5,5708.24 7775.08,5715.81 7775.08,5725.15L7775.08,5976.9Z" style="fill:rgb(239,67,35);fill-rule:nonzero;"/>
            </g>
            <g transform="matrix(0.434608,0,-1.2326e-32,0.434608,-2877.32,-2206.76)">
                <path d="M7749.48,5864.73L7749.48,5851.03L7775.08,5851.03L7749.48,5864.73ZM7533.89,5861.98L7514.34,5851.03L7533.89,5851.03L7533.89,5861.98Z" style="fill:rgb(110,36,17);fill-rule:nonzero;"/>
            </g>
            <g transform="matrix(0.434608,0,-1.2326e-32,0.434608,-2877.32,-2206.76)">
                <rect x="7533.89" y="5731.96" width="215.59" height="236.02" style="fill:rgb(232,232,230);fill-rule:nonzero;"/>
            </g>
            <g transform="matrix(0.434608,0,-1.2326e-32,0.434608,-2877.32,-2206.76)">
                <path d="M7514.34,5851.03L7508.29,5851.03L7508.29,5976.9C7508.29,5986.24 7515.86,5993.81 7525.2,5993.81L7758.16,5993.81C7767.5,5993.81 7775.08,5986.24 7775.08,5976.9L7775.08,5851.03L7641.68,5922.41L7514.34,5851.03Z" style="fill:rgb(95,193,151);fill-rule:nonzero;"/>
            </g>
            <g transform="matrix(0.434608,0,-1.2326e-32,0.434608,-2877.32,-2206.76)">
                <path d="M7557.68,5993.81L7525.2,5993.81L7557.68,5993.81ZM7525.09,5993.81C7525.08,5993.81 7525.07,5993.81 7525.06,5993.81C7525.07,5993.81 7525.08,5993.81 7525.09,5993.81ZM7524.98,5993.81C7524.96,5993.81 7524.95,5993.81 7524.94,5993.81C7524.95,5993.81 7524.96,5993.81 7524.98,5993.81ZM7524.86,5993.81C7524.85,5993.81 7524.85,5993.81 7524.84,5993.81C7524.85,5993.81 7524.85,5993.81 7524.86,5993.81ZM7524.75,5993.81C7524.74,5993.81 7524.73,5993.81 7524.73,5993.81C7524.73,5993.81 7524.74,5993.81 7524.75,5993.81ZM7524.63,5993.8L7524.62,5993.8L7524.63,5993.8ZM7524.52,5993.8L7524.51,5993.8L7524.52,5993.8Z" style="fill:rgb(200,142,53);fill-rule:nonzero;"/>
            </g>
            <g transform="matrix(0.434608,0,-1.2326e-32,0.434608,-2877.32,-2206.76)">
                <path d="M7758.16,5993.81L7557.68,5993.81L7525.2,5993.81L7524.86,5993.81C7524.85,5993.81 7524.85,5993.81 7524.84,5993.81C7524.81,5993.81 7524.78,5993.81 7524.75,5993.81C7524.74,5993.81 7524.73,5993.81 7524.73,5993.81C7524.69,5993.81 7524.66,5993.8 7524.63,5993.8L7524.62,5993.8C7524.59,5993.8 7524.55,5993.8 7524.52,5993.8L7524.51,5993.8C7519.88,5993.61 7515.75,5991.56 7512.81,5988.37L7641.68,5922.41L7775.08,5851.03L7775.08,5976.9C7775.08,5986.24 7767.5,5993.81 7758.16,5993.81Z" style="fill:rgb(30,182,131);fill-rule:nonzero;"/>
            </g>
            <g transform="matrix(0.434608,0,-1.2326e-32,0.434608,-2877.32,-2206.76)">
                <rect x="7559.96" y="5754.5" width="173.31" height="6.35" style="fill:rgb(167,167,166);fill-rule:nonzero;"/>
            </g>
            <g transform="matrix(0.434608,0,-1.2326e-32,0.434608,-2877.32,-2206.76)">
                <rect x="7559.96" y="5765.78" width="173.31" height="6.33" style="fill:rgb(167,167,166);fill-rule:nonzero;"/>
            </g>
            <g transform="matrix(0.434608,0,-1.2326e-32,0.434608,-2877.32,-2206.76)">
                <rect x="7559.96" y="5777.75" width="173.31" height="6.34" style="fill:rgb(167,167,166);fill-rule:nonzero;"/>
            </g>
            <g transform="matrix(0.434608,0,-1.2326e-32,0.434608,-2877.32,-2206.76)">
                <rect x="7559.96" y="5789.38" width="173.31" height="6.34" style="fill:rgb(167,167,166);fill-rule:nonzero;"/>
            </g>
            <g transform="matrix(0.434608,0,-1.2326e-32,0.434608,-2877.32,-2206.76)">
                <rect x="7559.96" y="5804.18" width="173.31" height="6.33" style="fill:rgb(167,167,166);fill-rule:nonzero;"/>
            </g>
            <g transform="matrix(0.434608,0,-1.2326e-32,0.434608,-2877.32,-2206.76)">
                <rect x="7559.96" y="5821.79" width="173.31" height="6.34" style="fill:rgb(167,167,166);fill-rule:nonzero;"/>
            </g>
            <g transform="matrix(0.434608,0,-1.2326e-32,0.434608,-2877.32,-2206.76)">
                <rect x="7559.96" y="5834.11" width="173.31" height="6.35" style="fill:rgb(167,167,166);fill-rule:nonzero;"/>
            </g>
            <g transform="matrix(0.434608,0,-1.2326e-32,0.434608,-2877.32,-2206.76)">
                <rect x="7559.96" y="5845.74" width="173.31" height="6.34" style="fill:rgb(167,167,166);fill-rule:nonzero;"/>
            </g>
            <g transform="matrix(0.434608,0,-1.2326e-32,0.434608,-2877.32,-2206.76)">
                <rect x="7559.96" y="5859.13" width="173.31" height="6.34" style="fill:rgb(167,167,166);fill-rule:nonzero;"/>
            </g>
            <g transform="matrix(0.434608,0,-1.2326e-32,0.434608,-2877.32,-2206.76)">
                <path d="M7462.06,5184.39C7462.27,5184.4 7462.46,5184.41 7462.68,5184.42C7462.46,5184.41 7462.27,5184.4 7462.06,5184.39ZM7459.82,5184.23C7460.06,5184.26 7460.27,5184.28 7460.51,5184.3C7460.27,5184.28 7460.06,5184.26 7459.82,5184.23ZM7457.96,5183.98C7458.18,5184.02 7458.37,5184.06 7458.6,5184.1C7458.37,5184.06 7458.18,5184.02 7457.96,5183.98ZM7456.38,5183.64C7456.56,5183.69 7456.73,5183.74 7456.93,5183.79C7456.73,5183.74 7456.56,5183.69 7456.38,5183.64ZM7455.02,5183.23C7455.18,5183.28 7455.31,5183.35 7455.47,5183.4C7455.31,5183.35 7455.18,5183.28 7455.02,5183.23ZM7453.87,5182.74C7453.99,5182.8 7454.1,5182.87 7454.24,5182.93C7454.11,5182.87 7453.99,5182.8 7453.87,5182.74ZM7452.89,5182.19C7452.99,5182.25 7453.08,5182.32 7453.18,5182.38C7453.08,5182.32 7452.99,5182.25 7452.89,5182.19ZM7452.08,5181.58L7452.3,5181.77L7452.08,5181.58ZM7450.88,5180.23L7450.97,5180.37L7450.88,5180.23ZM7450.45,5179.51L7450.48,5179.59L7450.45,5179.51ZM7451.42,5180.92L7451.57,5181.1L7451.42,5180.92ZM7440.28,5166.22L7440.26,5166.22L7440.28,5166.22ZM7573.46,5165.86L7436.4,5165.86C7435.81,5165.84 7435.23,5165.81 7434.58,5165.81C7404.26,5165.81 7373.94,5165.81 7343.63,5165.81C7335.9,5165.81 7329.57,5172.15 7329.57,5179.87L7329.57,5309.75C7329.57,5317.47 7335.9,5323.8 7343.63,5323.8L7566.22,5323.8C7573.94,5323.8 7580.27,5317.47 7580.27,5309.75L7580.27,5184.43L7580.27,5172.66C7580.27,5168.91 7577.21,5165.86 7573.46,5165.86Z" style="fill:rgb(239,67,35);"/>
            </g>
            <g transform="matrix(0.434608,0,-1.2326e-32,0.434608,-2877.32,-2206.76)">
                <path d="M7454.24,5182.93C7454.11,5182.88 7454.01,5182.81 7453.9,5182.76C7454.01,5182.81 7454.12,5182.88 7454.24,5182.93ZM7453.9,5182.76C7453.89,5182.75 7453.88,5182.74 7453.87,5182.74C7453.88,5182.74 7453.89,5182.75 7453.9,5182.76Z" style="fill:rgb(225,158,63);fill-rule:nonzero;"/>
            </g>
            <g transform="matrix(0.434608,0,-1.2326e-32,0.434608,-2877.32,-2206.76)">
                <path d="M7464.07,5184.44C7440.01,5184.44 7456.99,5168.9 7440.27,5166.22L7440.28,5166.22L7440.27,5166.22C7439.14,5166.04 7437.86,5165.91 7436.4,5165.86L7573.46,5165.86C7577.21,5165.86 7580.27,5168.91 7580.27,5172.66L7580.27,5184.43L7465.13,5184.43C7464.77,5184.44 7464.41,5184.44 7464.07,5184.44ZM7462.06,5184.39C7462.27,5184.4 7462.46,5184.41 7462.68,5184.42C7462.46,5184.41 7462.27,5184.4 7462.06,5184.39ZM7459.82,5184.23C7460.06,5184.26 7460.27,5184.28 7460.51,5184.3C7460.27,5184.28 7460.06,5184.26 7459.82,5184.23ZM7457.96,5183.98C7458.18,5184.02 7458.37,5184.06 7458.6,5184.1C7458.37,5184.06 7458.18,5184.02 7457.96,5183.98ZM7456.38,5183.64C7456.56,5183.69 7456.73,5183.74 7456.93,5183.79C7456.73,5183.74 7456.56,5183.69 7456.38,5183.64ZM7455.02,5183.23C7455.18,5183.28 7455.31,5183.35 7455.47,5183.4C7455.31,5183.35 7455.18,5183.28 7455.02,5183.23ZM7453.9,5182.76C7454.01,5182.81 7454.11,5182.88 7454.24,5182.93C7454.12,5182.88 7454.01,5182.81 7453.9,5182.76C7453.89,5182.75 7453.88,5182.74 7453.87,5182.74C7453.88,5182.74 7453.89,5182.75 7453.9,5182.76ZM7452.89,5182.19C7452.99,5182.25 7453.08,5182.32 7453.18,5182.38C7453.08,5182.32 7452.99,5182.25 7452.89,5182.19ZM7452.08,5181.58L7452.3,5181.77L7452.08,5181.58ZM7451.42,5180.92L7451.57,5181.1L7451.42,5180.92ZM7450.88,5180.23L7450.97,5180.37L7450.88,5180.23ZM7450.45,5179.51L7450.48,5179.59L7450.45,5179.51Z" style="fill:rgb(229,60,37);fill-rule:nonzero;"/>
            </g>
            <g transform="matrix(0.434608,0,-1.2326e-32,0.434608,-2877.32,-2206.76)">
                <path d="M7465.13,5184.43L7567.57,5184.43C7565.43,5177.21 7558.72,5171.89 7550.83,5171.89L7448.46,5171.89C7450.34,5177.44 7447.68,5184.75 7465.13,5184.43Z" style="fill:rgb(249,190,18);"/>
            </g>
            <g transform="matrix(0.434608,0,-1.2326e-32,0.434608,-2877.32,-2206.76)">
                <rect x="7399.45" y="5210.25" width="110.92" height="64.56" style="fill:rgb(230,232,232);"/>
            </g>
            <g transform="matrix(0.434608,0,-1.2326e-32,0.434608,-2877.32,-2206.76)">
                <rect x="7409.33" y="5232.15" width="91.16" height="4.3" style="fill:rgb(3,4,4);"/>
            </g>
            <g transform="matrix(0.434608,0,-1.2326e-32,0.434608,-2877.32,-2206.76)">
                <rect x="7409.33" y="5239.33" width="91.16" height="4.3" style="fill:rgb(3,4,4);"/>
            </g>
            <g transform="matrix(0.434608,0,-1.2326e-32,0.434608,-2877.32,-2206.76)">
                <rect x="7409.33" y="5246.5" width="91.16" height="4.3" style="fill:rgb(3,4,4);"/>
            </g>
            <g transform="matrix(0.434608,0,-1.2326e-32,0.434608,-2877.32,-2206.76)">
                <rect x="7409.33" y="5253.68" width="91.16" height="4.29" style="fill:rgb(3,4,4);"/>
            </g>
            <g transform="matrix(0.434608,0,-1.2326e-32,0.434608,-2877.32,-2206.76)">
                <path d="M7537.48,5249.63C7537.73,5249.63 7537.97,5249.65 7538.23,5249.66C7537.97,5249.65 7537.73,5249.63 7537.48,5249.63ZM7534.81,5249.45C7535.08,5249.48 7535.33,5249.51 7535.62,5249.53C7535.33,5249.51 7535.08,5249.48 7534.81,5249.45ZM7532.57,5249.17C7532.82,5249.21 7533.07,5249.26 7533.34,5249.3C7533.07,5249.26 7532.82,5249.21 7532.57,5249.17ZM7530.68,5248.79C7530.9,5248.84 7531.09,5248.91 7531.33,5248.95C7531.09,5248.91 7530.9,5248.84 7530.68,5248.79ZM7529.05,5248.32C7529.23,5248.38 7529.4,5248.45 7529.6,5248.51C7529.4,5248.45 7529.23,5248.38 7529.05,5248.32ZM7527.66,5247.77C7527.81,5247.84 7527.95,5247.92 7528.11,5247.98C7527.95,5247.92 7527.81,5247.84 7527.66,5247.77ZM7526.5,5247.15C7526.61,5247.23 7526.72,5247.3 7526.85,5247.37C7526.72,5247.3 7526.61,5247.23 7526.5,5247.15ZM7525.53,5246.46C7525.61,5246.54 7525.69,5246.61 7525.78,5246.68C7525.69,5246.61 7525.61,5246.54 7525.53,5246.46ZM7524.08,5244.95L7524.19,5245.1L7524.08,5244.95ZM7523.57,5244.14L7523.61,5244.22L7523.57,5244.14ZM7524.73,5245.73L7524.91,5245.92L7524.73,5245.73ZM7511.37,5229.19L7511.36,5229.19L7511.37,5229.19ZM7509.2,5228.93L7509.19,5228.93L7509.2,5228.93ZM7671.02,5228.78L7506.73,5228.78C7506.02,5228.76 7505.32,5228.74 7504.55,5228.74C7468.21,5228.74 7431.87,5228.74 7395.53,5228.74C7386.27,5228.74 7378.68,5235.86 7378.68,5244.54L7378.68,5390.63C7378.68,5399.32 7386.27,5406.44 7395.53,5406.44L7662.32,5406.44C7671.57,5406.44 7679.17,5399.32 7679.17,5390.63L7679.17,5249.67L7679.17,5236.44C7679.17,5232.22 7675.5,5228.78 7671.02,5228.78Z" style="fill:rgb(247,217,89);"/>
            </g>
            <g transform="matrix(0.434608,0,-1.2326e-32,0.434608,-2877.32,-2206.76)">
                <path d="M7539.89,5249.69C7511.06,5249.69 7531.39,5232.21 7511.37,5229.19C7510.01,5228.98 7508.47,5228.84 7506.73,5228.78L7671.02,5228.78C7675.5,5228.78 7679.17,5232.22 7679.17,5236.44L7679.17,5249.67L7541.16,5249.67C7540.73,5249.68 7540.3,5249.69 7539.89,5249.69ZM7537.48,5249.63C7537.73,5249.63 7537.97,5249.65 7538.23,5249.66C7537.97,5249.65 7537.73,5249.63 7537.48,5249.63ZM7534.81,5249.45C7535.08,5249.48 7535.33,5249.51 7535.62,5249.53C7535.33,5249.51 7535.08,5249.48 7534.81,5249.45ZM7532.57,5249.17C7532.82,5249.21 7533.07,5249.26 7533.34,5249.3C7533.07,5249.26 7532.82,5249.21 7532.57,5249.17ZM7530.68,5248.79C7530.9,5248.84 7531.09,5248.91 7531.33,5248.95C7531.09,5248.91 7530.9,5248.84 7530.68,5248.79ZM7529.05,5248.32C7529.23,5248.38 7529.4,5248.45 7529.6,5248.51C7529.4,5248.45 7529.23,5248.38 7529.05,5248.32ZM7527.66,5247.77C7527.81,5247.84 7527.95,5247.92 7528.11,5247.98C7527.95,5247.92 7527.81,5247.84 7527.66,5247.77ZM7526.5,5247.15C7526.61,5247.23 7526.72,5247.3 7526.85,5247.37C7526.72,5247.3 7526.61,5247.23 7526.5,5247.15ZM7525.53,5246.46C7525.61,5246.54 7525.69,5246.61 7525.78,5246.68C7525.69,5246.61 7525.61,5246.54 7525.53,5246.46ZM7524.73,5245.73L7524.91,5245.92L7524.73,5245.73ZM7524.08,5244.95L7524.19,5245.1L7524.08,5244.95ZM7523.57,5244.14L7523.61,5244.22L7523.57,5244.14Z" style="fill:rgb(221,195,79);fill-rule:nonzero;"/>
            </g>
            <g transform="matrix(0.434608,0,-1.2326e-32,0.434608,-2877.32,-2206.76)">
                <path d="M7541.17,5249.67L7663.95,5249.67C7661.39,5241.55 7653.34,5235.56 7643.87,5235.56L7521.18,5235.56C7523.44,5241.81 7520.25,5250.03 7541.17,5249.67Z" style="fill:rgb(242,98,64);"/>
            </g>
            <g transform="matrix(0.434608,0,-1.2326e-32,0.434608,-2877.32,-2206.76)">
                <rect x="7462.45" y="5278.72" width="132.94" height="72.61" style="fill:rgb(230,232,232);"/>
            </g>
            <g transform="matrix(0.434608,0,-1.2326e-32,0.434608,-2877.32,-2206.76)">
                <rect x="7474.28" y="5303.35" width="109.27" height="4.83" style="fill:rgb(239,67,35);"/>
            </g>
            <g transform="matrix(0.434608,0,-1.2326e-32,0.434608,-2877.32,-2206.76)">
                <rect x="7474.28" y="5311.43" width="109.27" height="4.82" style="fill:rgb(239,67,35);"/>
            </g>
            <g transform="matrix(0.434608,0,-1.2326e-32,0.434608,-2877.32,-2206.76)">
                <rect x="7474.28" y="5319.5" width="109.27" height="4.83" style="fill:rgb(239,67,35);"/>
            </g>
            <g transform="matrix(0.434608,0,-1.2326e-32,0.434608,-2877.32,-2206.76)">
                <rect x="7474.28" y="5327.56" width="109.27" height="4.84" style="fill:rgb(239,67,35);"/>
            </g>
            <g transform="matrix(0.434608,0,-1.2326e-32,0.434608,-2877.32,-2206.76)">
                <path d="M6985.16,5192.03C7067.7,5192.03 7134.61,5243.25 7134.61,5306.43C7134.61,5350.52 7102,5388.76 7054.26,5407.86C7059.61,5419.67 7069.58,5434.66 7087.9,5445.79C7087.9,5445.79 7054.69,5431.86 7037.25,5413.68C7021.02,5418.3 7003.48,5420.83 6985.16,5420.83C6902.62,5420.83 6835.7,5369.61 6835.7,5306.43C6835.7,5243.25 6902.62,5192.03 6985.16,5192.03Z" style="fill:rgb(239,67,35);fill-rule:nonzero;"/>
            </g>
            <g transform="matrix(0.434608,0,-1.2326e-32,0.434608,-2877.32,-2206.76)">
                <path d="M7087.9,5306.43L7066.9,5306.43C7068.51,5302.54 7069.86,5298.56 7070.93,5294.5C7072.27,5294.02 7073.72,5293.76 7075.22,5293.76C7082.23,5293.76 7087.9,5299.43 7087.9,5306.43Z" style="fill:rgb(229,60,37);fill-rule:nonzero;"/>
            </g>
            <g transform="matrix(0.434608,0,-1.2326e-32,0.434608,-2877.32,-2206.76)">
                <path d="M7087.9,5445.79C7087.9,5445.79 7054.69,5431.86 7037.25,5413.68C7021.02,5418.3 7003.48,5420.83 6985.16,5420.83C6957.41,5420.83 6931.44,5415.05 6909.17,5404.96C6905.54,5403.32 6902,5401.56 6898.58,5399.69C6888.38,5394.13 6879.12,5387.61 6871.04,5380.31C6871.49,5379.87 6871.92,5379.43 6872.35,5378.98C6888.57,5383.61 6906.12,5386.14 6924.44,5386.14C6988.21,5386.14 7042.65,5355.57 7064.11,5312.53C7066.27,5316.45 7070.43,5319.11 7075.22,5319.11C7082.23,5319.11 7087.9,5313.44 7087.9,5306.43L7134.61,5306.43C7134.6,5350.43 7102.13,5388.61 7054.54,5407.75C7054.45,5407.79 7054.36,5407.83 7054.26,5407.86C7059.61,5419.67 7069.58,5434.66 7087.9,5445.79Z" style="fill:rgb(229,60,37);fill-rule:nonzero;"/>
            </g>
            <g transform="matrix(0.434608,0,-1.2326e-32,0.434608,-2877.32,-2206.76)">
                <path d="M7075.22,5319.11C7070.43,5319.11 7066.27,5316.45 7064.11,5312.53C7065.11,5310.53 7066.04,5308.49 7066.9,5306.43L7087.9,5306.43C7087.9,5313.44 7082.23,5319.11 7075.22,5319.11Z" style="fill:rgb(206,55,39);fill-rule:nonzero;"/>
            </g>
            <g transform="matrix(0.434608,0,-1.2326e-32,0.434608,-2877.32,-2206.76)">
                <path d="M6924.44,5157.34C6841.9,5157.34 6774.99,5208.55 6774.99,5271.74C6774.99,5315.83 6807.6,5354.07 6855.33,5373.17C6849.98,5384.98 6840.01,5399.97 6821.69,5411.1C6821.69,5411.1 6854.9,5397.17 6872.35,5378.98C6888.57,5383.61 6906.12,5386.14 6924.44,5386.14C7006.98,5386.14 7073.89,5334.92 7073.89,5271.74C7073.89,5208.55 7006.98,5157.34 6924.44,5157.34Z" style="fill:white;fill-rule:nonzero;"/>
            </g>
            <g transform="matrix(0.434608,0,-1.2326e-32,0.434608,-2877.32,-2206.76)">
                <path d="M6847.04,5271.74L6821.69,5271.74C6821.69,5264.74 6827.37,5259.06 6834.38,5259.06C6841.37,5259.06 6847.04,5264.74 6847.04,5271.74Z" style="fill:rgb(229,229,229);fill-rule:nonzero;"/>
            </g>
            <g transform="matrix(0.434608,0,-1.2326e-32,0.434608,-2877.32,-2206.76)">
                <path d="M6895.43,5271.74L6870.07,5271.74C6870.07,5264.74 6875.75,5259.06 6882.75,5259.06C6889.75,5259.06 6895.43,5264.74 6895.43,5271.74Z" style="fill:rgb(229,229,229);fill-rule:nonzero;"/>
            </g>
            <g transform="matrix(0.434608,0,-1.2326e-32,0.434608,-2877.32,-2206.76)">
                <path d="M6940.46,5271.74L6915.1,5271.74C6915.1,5264.74 6920.77,5259.06 6927.78,5259.06C6934.78,5259.06 6940.46,5264.74 6940.46,5271.74Z" style="fill:rgb(229,229,229);fill-rule:nonzero;"/>
            </g>
            <g transform="matrix(0.434608,0,-1.2326e-32,0.434608,-2877.32,-2206.76)">
                <path d="M6985.16,5271.74L6959.8,5271.74C6959.8,5264.74 6965.48,5259.06 6972.48,5259.06C6979.48,5259.06 6985.16,5264.74 6985.16,5271.74Z" style="fill:rgb(229,229,229);fill-rule:nonzero;"/>
            </g>
            <g transform="matrix(0.434608,0,-1.2326e-32,0.434608,-2877.32,-2206.76)">
                <path d="M7032.53,5271.74L7007.17,5271.74C7007.17,5264.74 7012.85,5259.06 7019.85,5259.06C7026.85,5259.06 7032.53,5264.74 7032.53,5271.74Z" style="fill:rgb(229,229,229);fill-rule:nonzero;"/>
            </g>
            <g transform="matrix(0.434608,0,-1.2326e-32,0.434608,-2877.32,-2206.76)">
                <path d="M6821.69,5411.1C6840.01,5399.97 6849.98,5384.98 6855.33,5373.17C6807.6,5354.07 6774.99,5315.83 6774.99,5271.74L6821.69,5271.74C6821.69,5278.74 6827.37,5284.41 6834.38,5284.41C6841.37,5284.41 6847.04,5278.74 6847.04,5271.74L6870.07,5271.74C6870.07,5278.74 6875.75,5284.41 6882.75,5284.41C6889.75,5284.41 6895.43,5278.74 6895.43,5271.74L6915.1,5271.74C6915.1,5278.74 6920.77,5284.41 6927.78,5284.41C6934.78,5284.41 6940.46,5278.74 6940.46,5271.74L6959.8,5271.74C6959.8,5278.74 6965.48,5284.41 6972.48,5284.41C6979.48,5284.41 6985.16,5278.74 6985.16,5271.74L7007.17,5271.74C7007.17,5278.74 7012.85,5284.41 7019.85,5284.41C7026.85,5284.41 7032.53,5278.74 7032.53,5271.74L7073.89,5271.74C7073.89,5283.83 7071.44,5295.49 7066.9,5306.43C7066.04,5308.49 7065.11,5310.53 7064.11,5312.53C7042.65,5355.57 6988.21,5386.14 6924.44,5386.14C6906.12,5386.14 6888.57,5383.61 6872.35,5378.98C6871.92,5379.43 6871.49,5379.87 6871.04,5380.31C6853.3,5397.84 6821.69,5411.1 6821.69,5411.1Z" style="fill:rgb(229,229,229);fill-rule:nonzero;"/>
            </g>
            <g transform="matrix(0.434608,0,-1.2326e-32,0.434608,-2877.32,-2206.76)">
                <path d="M6834.38,5284.41C6827.37,5284.41 6821.69,5278.74 6821.69,5271.74L6847.04,5271.74C6847.04,5278.74 6841.37,5284.41 6834.38,5284.41Z" style="fill:rgb(206,206,207);fill-rule:nonzero;"/>
            </g>
            <g transform="matrix(0.434608,0,-1.2326e-32,0.434608,-2877.32,-2206.76)">
                <path d="M6882.75,5284.41C6875.75,5284.41 6870.07,5278.74 6870.07,5271.74L6895.43,5271.74C6895.43,5278.74 6889.75,5284.41 6882.75,5284.41Z" style="fill:rgb(206,206,207);fill-rule:nonzero;"/>
            </g>
            <g transform="matrix(0.434608,0,-1.2326e-32,0.434608,-2877.32,-2206.76)">
                <path d="M6927.78,5284.41C6920.77,5284.41 6915.1,5278.74 6915.1,5271.74L6940.46,5271.74C6940.46,5278.74 6934.78,5284.41 6927.78,5284.41Z" style="fill:rgb(206,206,207);fill-rule:nonzero;"/>
            </g>
            <g transform="matrix(0.434608,0,-1.2326e-32,0.434608,-2877.32,-2206.76)">
                <path d="M6972.48,5284.41C6965.48,5284.41 6959.8,5278.74 6959.8,5271.74L6985.16,5271.74C6985.16,5278.74 6979.48,5284.41 6972.48,5284.41Z" style="fill:rgb(206,206,207);fill-rule:nonzero;"/>
            </g>
            <g transform="matrix(0.434608,0,-1.2326e-32,0.434608,-2877.32,-2206.76)">
                <path d="M7019.85,5284.41C7012.85,5284.41 7007.17,5278.74 7007.17,5271.74L7032.53,5271.74C7032.53,5278.74 7026.85,5284.41 7019.85,5284.41Z" style="fill:rgb(206,206,207);fill-rule:nonzero;"/>
            </g>
        </g>
    </g>
</svg>
