<?xml version="1.0" standalone="no"?>
<!DOCTYPE svg PUBLIC "-//W3C//DTD SVG 1.1//EN" "http://www.w3.org/Graphics/SVG/1.1/DTD/svg11.dtd">
<svg width="100%" height="100%" viewBox="0 0 400 393" version="1.1" xmlns="http://www.w3.org/2000/svg" xmlns:xlink="http://www.w3.org/1999/xlink" xml:space="preserve" style="fill-rule:evenodd;clip-rule:evenodd;stroke-linejoin:round;stroke-miterlimit:1.41421;">
    <g transform="matrix(1,0,0,1,-42.0207,-49.5358)">
        <g transform="matrix(0.340869,-1.2326e-32,-1.2326e-32,0.340869,-25.0313,-1663.86)">
            <path d="M1332,5600C1332,5893.81 1093.82,6132 799.999,6132C506.185,6132 268.001,5893.81 268.001,5600C268.001,5306.18 506.185,5068 799.999,5068C1093.82,5068 1332,5306.18 1332,5600Z" style="fill:rgb(248,155,80);fill-rule:nonzero;"/>
            <path d="M762.288,5320.23L767.399,5310.06C767.399,5310.06 759.99,5306.31 752.428,5302.84C748.646,5301.1 744.834,5299.42 741.94,5298.2C740.481,5297.59 739.268,5297.09 738.415,5296.74C737.526,5296.39 737.018,5296.18 737.018,5296.18L732.936,5306.81C732.936,5306.81 734.766,5307.56 737.51,5308.68C740.29,5309.85 743.991,5311.48 747.672,5313.18C755.039,5316.56 762.288,5320.23 762.288,5320.23Z" style="fill:rgb(240,241,241);fill-rule:nonzero;"/>
            <path d="M804.45,5343.96L810.479,5334.3C810.479,5334.3 803.454,5329.88 796.27,5325.73C789.102,5321.54 781.803,5317.58 781.803,5317.58L776.377,5327.58C776.377,5327.58 783.522,5331.46 790.537,5335.56C797.575,5339.63 804.45,5343.96 804.45,5343.96Z" style="fill:rgb(240,241,241);fill-rule:nonzero;"/>
            <path d="M844.189,5371.5L851.126,5362.47C851.126,5362.47 849.472,5361.22 846.995,5359.33C844.517,5357.43 841.139,5355.02 837.79,5352.56C831.029,5347.73 824.124,5343.12 824.124,5343.12L817.803,5352.58C817.803,5352.58 824.554,5357.1 831.165,5361.82C834.436,5364.22 837.738,5366.58 840.156,5368.42C842.575,5370.27 844.189,5371.5 844.189,5371.5Z" style="fill:rgb(240,241,241);fill-rule:nonzero;"/>
            <path d="M880.791,5402.95L888.693,5394.76C888.693,5394.76 887.187,5393.33 884.938,5391.16C882.665,5389.02 879.571,5386.24 876.501,5383.43C873.359,5380.71 870.244,5377.95 867.855,5375.94C865.456,5373.95 863.858,5372.62 863.858,5372.62L856.612,5381.4C856.612,5381.4 858.17,5382.69 860.507,5384.64C862.838,5386.59 865.866,5389.28 868.932,5391.93C871.917,5394.67 874.903,5397.4 877.142,5399.45C879.333,5401.56 880.791,5402.95 880.791,5402.95Z" style="fill:rgb(240,241,241);fill-rule:nonzero;"/>
            <path d="M913.203,5438.53L922.119,5431.46C922.119,5431.46 920.869,5429.78 918.848,5427.4C916.826,5425.01 914.244,5421.72 911.442,5418.63C908.688,5415.5 905.935,5412.37 903.766,5410.12C901.627,5407.83 900.205,5406.31 900.205,5406.31L891.976,5414.17C891.976,5414.17 893.356,5415.65 895.426,5417.86C897.531,5420.04 900.199,5423.09 902.865,5426.12C905.586,5429.11 908.076,5432.29 910.036,5434.59C911.993,5436.91 913.203,5438.53 913.203,5438.53Z" style="fill:rgb(240,241,241);fill-rule:nonzero;"/>
            <path d="M939.977,5478.32L949.905,5472.75C949.905,5472.75 945.846,5465.43 941.328,5458.38C939.118,5454.83 936.696,5451.42 934.971,5448.8C934.111,5447.49 933.34,5446.44 932.799,5445.7C932.262,5444.96 931.956,5444.54 931.956,5444.54L922.695,5451.15C922.695,5451.15 922.991,5451.56 923.509,5452.27C924.03,5452.99 924.778,5454 925.605,5455.27C927.262,5457.79 929.606,5461.08 931.725,5464.5C936.077,5471.28 939.977,5478.32 939.977,5478.32Z" style="fill:rgb(240,241,241);fill-rule:nonzero;"/>
            <path d="M959.563,5521.92L970.335,5518.25C970.335,5518.25 969.616,5516.28 968.542,5513.32C968.004,5511.84 967.373,5510.12 966.699,5508.27C966.016,5506.43 965.163,5504.51 964.375,5502.57C963.567,5500.63 962.767,5498.7 962.012,5496.88C961.182,5495.1 960.41,5493.44 959.749,5492.01C958.421,5489.17 957.536,5487.27 957.536,5487.27L947.305,5492.25C947.305,5492.25 948.151,5494.07 949.424,5496.8C950.059,5498.16 950.797,5499.76 951.595,5501.46C952.314,5503.2 953.086,5505.06 953.854,5506.91C954.609,5508.78 955.43,5510.61 956.084,5512.37C956.725,5514.14 957.327,5515.79 957.842,5517.21C958.87,5520.03 959.563,5521.92 959.563,5521.92Z" style="fill:rgb(240,241,241);fill-rule:nonzero;"/>
            <path d="M970.479,5568.39L981.758,5566.88C981.758,5566.88 981.719,5566.35 981.575,5565.45C981.429,5564.54 981.217,5563.25 980.963,5561.69C980.403,5558.59 979.918,5554.41 978.948,5550.33C978.027,5546.23 977.305,5542.08 976.419,5539.06C975.622,5536.02 975.084,5533.98 975.084,5533.98L964.102,5536.96C964.102,5536.96 964.609,5538.91 965.377,5541.81C966.23,5544.7 966.907,5548.66 967.793,5552.58C968.721,5556.48 969.176,5560.47 969.717,5563.44C969.961,5564.92 970.163,5566.16 970.303,5567.02C970.439,5567.89 970.479,5568.39 970.479,5568.39Z" style="fill:rgb(240,241,241);fill-rule:nonzero;"/>
            <path d="M972.269,5616.13L983.633,5616.76C983.633,5616.76 983.708,5614.66 983.818,5611.52C983.919,5608.37 984.147,5604.19 984.004,5599.99C983.903,5595.79 983.987,5591.6 983.701,5588.46C983.502,5585.32 983.369,5583.22 983.369,5583.22L972.018,5584.02C972.018,5584.02 972.145,5586.02 972.334,5589.02C972.617,5592.02 972.522,5596.05 972.624,5600.06C972.764,5604.08 972.542,5608.09 972.444,5611.11C972.337,5614.11 972.269,5616.13 972.269,5616.13Z" style="fill:rgb(240,241,241);fill-rule:nonzero;"/>
            <path d="M965.475,5663.54L976.579,5666.05C976.579,5666.05 977.044,5664.01 977.747,5660.96C978.395,5657.89 979.085,5653.76 979.847,5649.65C980.684,5645.55 981.113,5641.38 981.556,5638.27C981.969,5635.16 982.246,5633.09 982.246,5633.09L970.938,5631.8C970.938,5631.8 970.67,5633.79 970.273,5636.79C969.844,5639.78 969.437,5643.78 968.633,5647.73C967.891,5651.7 967.227,5655.67 966.608,5658.63C965.931,5661.58 965.475,5663.54 965.475,5663.54Z" style="fill:rgb(240,241,241);fill-rule:nonzero;"/>
            <path d="M951.536,5709.56L962.188,5713.58C962.188,5713.58 962.917,5711.63 964.014,5708.71C965.169,5705.81 966.452,5701.84 967.734,5697.87C968.994,5693.89 970.417,5689.97 971.178,5686.93C972.018,5683.91 972.578,5681.91 972.578,5681.91L961.611,5678.87C961.611,5678.87 961.071,5680.81 960.257,5683.72C959.524,5686.66 958.141,5690.47 956.924,5694.32C955.677,5698.16 954.44,5702.01 953.311,5704.83C952.246,5707.67 951.536,5709.56 951.536,5709.56Z" style="fill:rgb(240,241,241);fill-rule:nonzero;"/>
            <path d="M931.891,5753.63L942.024,5758.82C942.024,5758.82 942.975,5756.98 944.407,5754.21C945.872,5751.46 947.542,5747.64 949.342,5743.9C951.084,5740.12 952.949,5736.41 954.102,5733.5C955.313,5730.63 956.126,5728.7 956.126,5728.7L945.641,5724.27C945.641,5724.27 944.854,5726.14 943.672,5728.93C942.555,5731.76 940.735,5735.39 939.033,5739.07C937.278,5742.72 935.661,5746.45 934.222,5749.13C932.822,5751.84 931.891,5753.63 931.891,5753.63Z" style="fill:rgb(240,241,241);fill-rule:nonzero;"/>
            <path d="M907.881,5795.66L917.5,5801.74C917.5,5801.74 921.826,5794.67 926.149,5787.59C928.34,5784.07 930.273,5780.39 931.836,5777.7C933.366,5774.99 934.385,5773.18 934.385,5773.18L924.424,5767.67C924.424,5767.67 923.428,5769.44 921.93,5772.1C920.397,5774.73 918.512,5778.33 916.364,5781.78C912.119,5788.72 907.881,5795.66 907.881,5795.66Z" style="fill:rgb(240,241,241);fill-rule:nonzero;"/>
            <path d="M880.368,5835.59L889.512,5842.36C889.512,5842.36 890.755,5840.7 892.617,5838.22C894.456,5835.72 896.807,5832.31 899.202,5828.94C901.588,5825.55 903.971,5822.17 905.758,5819.63C907.467,5817.03 908.606,5815.3 908.606,5815.3L899.147,5808.97C899.147,5808.97 898.027,5810.67 896.351,5813.22C894.593,5815.72 892.249,5819.05 889.905,5822.38C887.545,5825.7 885.237,5829.05 883.428,5831.51C881.592,5833.95 880.368,5835.59 880.368,5835.59Z" style="fill:rgb(240,241,241);fill-rule:nonzero;"/>
            <path d="M975.781,5341.63L979,5327.14C979,5327.14 968.125,5324.84 957.144,5322.92C951.653,5321.97 946.143,5321.09 941.976,5320.49C939.883,5320.21 938.134,5319.97 936.915,5319.81C935.641,5319.65 934.912,5319.56 934.912,5319.56L933.186,5334.29C933.186,5334.29 935.813,5334.64 939.749,5335.16C943.75,5335.73 949.105,5336.58 954.451,5337.51C965.139,5339.38 975.781,5341.63 975.781,5341.63Z" style="fill:rgb(240,241,241);fill-rule:nonzero;"/>
            <path d="M1038.46,5357.78L1043.05,5343.65C1043.05,5343.65 1032.44,5340.36 1021.72,5337.47C1011.02,5334.53 1000.21,5331.92 1000.21,5331.92L996.536,5346.3C996.536,5346.3 1007.11,5348.85 1017.59,5351.73C1028.09,5354.56 1038.47,5357.77 1038.46,5357.78Z" style="fill:rgb(240,241,241);fill-rule:nonzero;"/>
            <path d="M1099.28,5379.52L1105.25,5365.88C1105.25,5365.88 1102.69,5364.84 1098.83,5363.26C1094.98,5361.69 1089.79,5359.74 1084.62,5357.73C1074.22,5353.86 1063.71,5350.3 1063.71,5350.3L1058.69,5364.28C1058.69,5364.28 1068.96,5367.78 1079.13,5371.56C1084.18,5373.52 1089.26,5375.42 1093.02,5376.96C1096.78,5378.5 1099.28,5379.52 1099.28,5379.52Z" style="fill:rgb(240,241,241);fill-rule:nonzero;"/>
            <path d="M1157.35,5407.23L1164.85,5394.32C1164.85,5394.32 1162.42,5392.99 1158.77,5391C1155.1,5389.05 1150.15,5386.56 1145.22,5384.01C1140.23,5381.61 1135.26,5379.14 1131.49,5377.4C1127.7,5375.67 1125.18,5374.52 1125.18,5374.52L1118.73,5387.94C1118.73,5387.94 1121.19,5389.07 1124.88,5390.75C1128.55,5392.45 1133.39,5394.86 1138.25,5397.19C1143.05,5399.67 1147.84,5402.14 1151.44,5404C1154.98,5405.94 1157.35,5407.23 1157.35,5407.23Z" style="fill:rgb(240,241,241);fill-rule:nonzero;"/>
            <path d="M1211.35,5441.48L1220.56,5429.66C1220.56,5429.66 1218.37,5427.97 1214.94,5425.61C1211.52,5423.26 1207.06,5419.96 1202.39,5416.98C1197.76,5413.93 1193.13,5410.88 1189.57,5408.75C1186.03,5406.57 1183.67,5405.11 1183.67,5405.11L1175.63,5417.71C1175.63,5417.71 1177.91,5419.12 1181.35,5421.23C1184.81,5423.3 1189.29,5426.26 1193.77,5429.21C1198.31,5432.1 1202.61,5435.29 1205.93,5437.56C1209.24,5439.84 1211.35,5441.48 1211.35,5441.48Z" style="fill:rgb(240,241,241);fill-rule:nonzero;"/>
            <path d="M1259.47,5482.9L1270.48,5472.64C1270.48,5472.64 1262.75,5464.73 1254.52,5457.33C1250.46,5453.57 1246.17,5450.06 1243.06,5447.33C1241.5,5445.95 1240.14,5444.88 1239.19,5444.12C1238.25,5443.36 1237.71,5442.94 1237.71,5442.94L1227.92,5454.3C1227.92,5454.3 1228.44,5454.71 1229.35,5455.44C1230.27,5456.17 1231.58,5457.21 1233.08,5458.54C1236.07,5461.17 1240.22,5464.56 1244.12,5468.17C1252.04,5475.3 1259.47,5482.9 1259.47,5482.9Z" style="fill:rgb(240,241,241);fill-rule:nonzero;"/>
            <path d="M1299.53,5531.46L1312.28,5523.32C1312.28,5523.32 1310.69,5521.07 1308.3,5517.7C1307.1,5516 1305.71,5514.04 1304.21,5511.93C1302.7,5509.83 1300.95,5507.7 1299.27,5505.5C1297.58,5503.32 1295.89,5501.15 1294.3,5499.1C1292.63,5497.13 1291.06,5495.29 1289.73,5493.7C1287.04,5490.55 1285.26,5488.44 1285.26,5488.44L1273.66,5498.06C1273.66,5498.06 1275.36,5500.08 1277.94,5503.11C1279.22,5504.62 1280.72,5506.39 1282.32,5508.28C1283.84,5510.24 1285.46,5512.32 1287.08,5514.41C1288.69,5516.51 1290.37,5518.56 1291.81,5520.56C1293.24,5522.58 1294.57,5524.47 1295.72,5526.08C1298.01,5529.31 1299.53,5531.46 1299.53,5531.46Z" style="fill:rgb(240,241,241);fill-rule:nonzero;"/>
            <path d="M1329.31,5586.47L1343.44,5580.88C1343.44,5580.88 1343.21,5580.24 1342.72,5579.14C1342.23,5578.05 1341.52,5576.48 1340.67,5574.61C1338.9,5570.88 1336.86,5565.77 1334.23,5560.94C1331.66,5556.08 1329.34,5551.09 1327.17,5547.56C1325.1,5543.99 1323.73,5541.6 1323.73,5541.6L1310.48,5548.95C1310.48,5548.95 1311.79,5551.22 1313.76,5554.63C1315.84,5558 1318.05,5562.77 1320.51,5567.42C1323.03,5572.03 1324.96,5576.92 1326.66,5580.47C1327.47,5582.27 1328.15,5583.76 1328.63,5584.8C1329.09,5585.85 1329.31,5586.47 1329.31,5586.47Z" style="fill:rgb(240,241,241);fill-rule:nonzero;"/>
            <path d="M1347.67,5646.05L1362.63,5643.14C1362.63,5643.14 1362.02,5640.47 1361.11,5636.48C1360.19,5632.48 1359.08,5627.13 1357.48,5621.89C1355.94,5616.63 1354.65,5611.31 1353.22,5607.45C1351.9,5603.56 1351.02,5600.96 1351.02,5600.96L1336.56,5605.66C1336.56,5605.66 1337.4,5608.15 1338.66,5611.88C1340.03,5615.57 1341.26,5620.67 1342.74,5625.69C1344.27,5630.7 1345.33,5635.85 1346.21,5639.67C1347.09,5643.5 1347.67,5646.05 1347.67,5646.05Z" style="fill:rgb(240,241,241);fill-rule:nonzero;"/>
            <path d="M1354.79,5708.04L1370.04,5707.58C1370.04,5707.58 1369.96,5704.86 1369.85,5700.77C1369.65,5696.7 1369.16,5691.27 1368.77,5685.84C1368.48,5680.4 1367.63,5675 1367.17,5670.94C1366.66,5666.88 1366.32,5664.18 1366.32,5664.18L1351.21,5666.25C1351.21,5666.25 1351.54,5668.85 1352.02,5672.75C1352.47,5676.66 1353.29,5681.84 1353.57,5687.09C1353.95,5692.32 1354.42,5697.54 1354.61,5701.48C1354.72,5705.42 1354.79,5708.04 1354.79,5708.04Z" style="fill:rgb(240,241,241);fill-rule:nonzero;"/>
            <path d="M1352.17,5770.6L1367.33,5772.19C1367.33,5772.19 1367.63,5769.49 1368.07,5765.44C1368.59,5761.41 1368.93,5755.99 1369.26,5750.57C1369.56,5745.14 1370.08,5739.74 1370.05,5735.66C1370.13,5731.58 1370.18,5728.87 1370.18,5728.87L1354.92,5728.61C1354.92,5728.61 1354.88,5731.24 1354.8,5735.18C1354.84,5739.12 1354.32,5744.38 1354.03,5749.62C1353.71,5754.88 1353.4,5760.13 1352.88,5764.05C1352.45,5767.98 1352.17,5770.6 1352.17,5770.6Z" style="fill:rgb(240,241,241);fill-rule:nonzero;"/>
            <path d="M1341.48,5832.56L1356.37,5835.79C1356.37,5835.79 1356.99,5833.15 1357.92,5829.2C1358.9,5825.25 1359.78,5819.9 1360.86,5814.59C1361.85,5809.26 1363.02,5803.96 1363.54,5799.93C1364.14,5795.91 1364.55,5793.23 1364.55,5793.23L1349.46,5791.05C1349.46,5791.05 1349.06,5793.67 1348.47,5797.58C1347.97,5801.51 1346.83,5806.68 1345.86,5811.87C1344.81,5817.04 1343.96,5822.27 1342.99,5826.12C1342.09,5829.98 1341.48,5832.56 1341.48,5832.56Z" style="fill:rgb(240,241,241);fill-rule:nonzero;"/>
            <path d="M1324.45,5893.36L1338.97,5897.89C1338.97,5897.89 1342.21,5887.56 1345.44,5877.23C1347.1,5872.08 1348.37,5866.81 1349.5,5862.91C1350.57,5858.99 1351.29,5856.39 1351.29,5856.39L1336.51,5852.69C1336.51,5852.69 1335.81,5855.24 1334.76,5859.08C1333.66,5862.9 1332.42,5868.05 1330.79,5873.1C1327.62,5883.24 1324.45,5893.36 1324.45,5893.36Z" style="fill:rgb(240,241,241);fill-rule:nonzero;"/>
            <path d="M1302.16,5952.67L1316.3,5958.22C1316.3,5958.22 1317.36,5955.73 1318.94,5951.99C1320.49,5948.24 1322.39,5943.18 1324.37,5938.14C1326.33,5933.1 1328.28,5928.05 1329.75,5924.27C1331.09,5920.44 1331.99,5917.88 1331.99,5917.88L1317.59,5912.99C1317.59,5912.99 1316.71,5915.5 1315.39,5919.26C1313.95,5922.98 1312.02,5927.95 1310.1,5932.91C1308.15,5937.86 1306.29,5942.84 1304.77,5946.54C1303.2,5950.21 1302.16,5952.67 1302.16,5952.67Z" style="fill:rgb(240,241,241);fill-rule:nonzero;"/>
            <path d="M430.065,5852.02L419.192,5855.36C419.192,5855.36 421.179,5861.86 423.32,5868.32C424.392,5871.55 425.501,5874.77 426.36,5877.19C427.253,5879.63 427.849,5881.27 427.849,5881.27L438.47,5877.21C438.47,5877.21 437.913,5875.68 437.077,5873.38C436.243,5871.04 435.163,5867.9 434.114,5864.73C432.015,5858.41 430.065,5852.02 430.065,5852.02Z" style="fill:rgb(240,241,241);fill-rule:nonzero;"/>
            <path d="M419.47,5813.66L408.431,5816.39C408.431,5816.39 408.838,5818.04 409.45,5820.51C410.091,5822.97 410.947,5826.26 411.804,5829.54C413.555,5836.09 415.42,5842.62 415.42,5842.62L426.351,5839.49C426.351,5839.49 424.515,5833.07 422.786,5826.61C421.946,5823.37 421.104,5820.14 420.476,5817.71C419.873,5815.28 419.47,5813.66 419.47,5813.66Z" style="fill:rgb(240,241,241);fill-rule:nonzero;"/>
            <path d="M410.886,5774.77L399.717,5776.94C399.717,5776.94 400.042,5778.61 400.527,5781.1C401.045,5783.59 401.729,5786.91 402.415,5790.23C403.093,5793.56 403.867,5796.86 404.407,5799.35C404.968,5801.83 405.342,5803.48 405.342,5803.48L416.423,5800.94C416.423,5800.94 416.055,5799.3 415.501,5796.86C414.971,5794.41 414.202,5791.15 413.542,5787.88C412.861,5784.6 412.188,5781.33 411.68,5778.87C411.201,5776.41 410.886,5774.77 410.886,5774.77Z" style="fill:rgb(240,241,241);fill-rule:nonzero;"/>
            <path d="M404.29,5735.5L393.03,5737.08C393.03,5737.08 394.033,5743.79 395.046,5750.49C395.593,5753.84 396.143,5757.19 396.556,5759.7C396.999,5762.21 397.295,5763.87 397.295,5763.87L408.489,5761.89C408.489,5761.89 408.2,5760.25 407.764,5757.78C407.36,5755.31 406.816,5752.01 406.276,5748.72C405.283,5742.11 404.29,5735.5 404.29,5735.5Z" style="fill:rgb(240,241,241);fill-rule:nonzero;"/>
            <path d="M399.89,5695.95L388.558,5696.89C388.558,5696.89 388.698,5698.58 388.906,5701.12C389.153,5703.65 389.479,5707.03 389.805,5710.41C390.114,5713.79 390.557,5717.16 390.827,5719.69C391.12,5722.22 391.312,5723.91 391.312,5723.91L402.601,5722.53C402.601,5722.53 402.412,5720.87 402.126,5718.38C401.855,5715.89 401.419,5712.58 401.12,5709.25C400.798,5705.92 400.476,5702.6 400.234,5700.11C400.029,5697.62 399.89,5695.95 399.89,5695.95Z" style="fill:rgb(240,241,241);fill-rule:nonzero;"/>
            <path d="M397.825,5656.24L386.455,5656.47C386.455,5656.47 386.484,5658.17 386.53,5660.72C386.624,5663.27 386.755,5666.66 386.882,5670.05C386.979,5673.45 387.194,5676.84 387.344,5679.39C387.49,5681.93 387.591,5683.62 387.591,5683.62L398.938,5682.91C398.938,5682.91 398.841,5681.24 398.698,5678.74C398.555,5676.24 398.34,5672.91 398.242,5669.58C398.115,5666.24 397.991,5662.91 397.897,5660.41C397.852,5657.9 397.825,5656.24 397.825,5656.24Z" style="fill:rgb(240,241,241);fill-rule:nonzero;"/>
            <path d="M398.359,5616.54L387.002,5615.98C387.002,5615.98 386.882,5617.68 386.787,5620.23C386.709,5622.77 386.608,5626.17 386.504,5629.57C386.367,5632.97 386.374,5636.37 386.357,5638.92C386.338,5641.47 386.328,5643.17 386.328,5643.17L397.702,5643.19C397.702,5643.19 397.708,5641.52 397.728,5639.02C397.751,5636.52 397.737,5633.18 397.874,5629.86C397.976,5626.52 398.076,5623.19 398.151,5620.69C398.242,5618.2 398.359,5616.54 398.359,5616.54Z" style="fill:rgb(240,241,241);fill-rule:nonzero;"/>
            <path d="M401.79,5577.01L390.508,5575.57C390.511,5575.57 390.257,5577.26 390,5579.8C389.724,5582.34 389.349,5585.73 388.981,5589.11C388.587,5592.49 388.392,5595.89 388.157,5598.44C387.946,5600.98 387.81,5602.68 387.81,5602.68L399.15,5603.51C399.15,5603.51 399.287,5601.85 399.492,5599.36C399.724,5596.88 399.905,5593.55 400.293,5590.24C400.661,5586.93 401.022,5583.62 401.292,5581.14C401.546,5578.66 401.79,5577.01 401.79,5577.01Z" style="fill:rgb(240,241,241);fill-rule:nonzero;"/>
            <path d="M408.47,5537.97L397.36,5535.55C397.36,5535.55 396.006,5542.24 394.648,5548.93C393.509,5555.64 392.363,5562.37 392.363,5562.37L403.601,5564.11C403.601,5564.11 404.717,5557.56 405.83,5551C407.148,5544.49 408.47,5537.97 408.47,5537.97Z" style="fill:rgb(240,241,241);fill-rule:nonzero;"/>
            <path d="M418.772,5499.8L407.952,5496.3C407.952,5496.3 407.438,5497.94 406.67,5500.38C405.918,5502.83 404.814,5506.07 403.965,5509.38C403.057,5512.66 402.155,5515.96 401.472,5518.42C401.13,5519.65 400.85,5520.69 400.687,5521.41C400.515,5522.14 400.42,5522.56 400.42,5522.56L411.445,5525.32C411.445,5525.32 411.543,5524.92 411.712,5524.21C411.865,5523.5 412.142,5522.5 412.474,5521.3C413.135,5518.9 414.017,5515.7 414.896,5512.5C415.726,5509.28 416.797,5506.14 417.529,5503.76C418.271,5501.39 418.772,5499.8 418.772,5499.8Z" style="fill:rgb(240,241,241);fill-rule:nonzero;"/>
            <path d="M432.92,5462.96L422.539,5458.3C422.539,5458.3 421.843,5459.86 420.784,5462.2C419.678,5464.52 418.483,5467.72 417.185,5470.88C415.935,5474.06 414.58,5477.21 413.73,5479.63C412.871,5482.04 412.295,5483.65 412.295,5483.65L422.988,5487.52C422.988,5487.52 423.548,5485.96 424.382,5483.62C425.202,5481.27 426.517,5478.23 427.728,5475.14C428.987,5472.08 430.14,5468.96 431.218,5466.72C432.239,5464.46 432.92,5462.96 432.92,5462.96Z" style="fill:rgb(240,241,241);fill-rule:nonzero;"/>
            <path d="M451.062,5427.96L441.299,5422.13C441.299,5422.13 441.074,5422.49 440.681,5423.13C440.271,5423.76 439.753,5424.69 439.128,5425.81C437.874,5428.05 436.208,5431.04 434.531,5434.03C432.806,5436.99 431.321,5440.08 430.163,5442.36C429.011,5444.65 428.242,5446.18 428.242,5446.18L438.435,5451.22C438.435,5451.22 439.18,5449.75 440.296,5447.53C441.413,5445.31 442.852,5442.32 444.521,5439.47C446.136,5436.58 447.754,5433.68 448.962,5431.52C449.567,5430.44 450.065,5429.53 450.462,5428.93C450.847,5428.31 451.062,5427.96 451.062,5427.96Z" style="fill:rgb(240,241,241);fill-rule:nonzero;"/>
            <path d="M473.304,5395.44L464.326,5388.46C464.326,5388.46 463.291,5389.83 461.741,5391.88C460.218,5393.95 458.057,5396.61 456.12,5399.43C452.243,5405.08 448.372,5410.73 448.372,5410.73L457.897,5416.95C457.897,5416.95 461.638,5411.49 465.381,5406.04C467.246,5403.31 469.336,5400.74 470.811,5398.74C472.305,5396.76 473.304,5395.44 473.304,5395.44Z" style="fill:rgb(240,241,241);fill-rule:nonzero;"/>
            <path d="M499.346,5365.91L491.289,5357.88C491.289,5357.88 490.068,5359.09 488.239,5360.88C486.458,5362.74 484.163,5365.28 481.836,5367.79C480.674,5369.05 479.515,5370.31 478.425,5371.49C477.884,5372.08 477.356,5372.65 476.855,5373.19C476.384,5373.76 475.938,5374.29 475.527,5374.79C473.877,5376.75 472.78,5378.07 472.78,5378.07L481.468,5385.4C481.468,5385.4 482.529,5384.13 484.121,5382.23C484.519,5381.76 484.948,5381.24 485.403,5380.69C485.886,5380.17 486.394,5379.62 486.921,5379.05C487.972,5377.91 489.092,5376.69 490.215,5375.48C492.461,5373.05 494.678,5370.6 496.394,5368.81C498.164,5367.07 499.346,5365.91 499.346,5365.91Z" style="fill:rgb(240,241,241);fill-rule:nonzero;"/>
            <path d="M528.782,5339.69L521.729,5330.77C521.729,5330.77 520.396,5331.85 518.398,5333.46C516.426,5335.1 513.693,5337.17 511.13,5339.43C506.016,5343.98 500.905,5348.54 500.905,5348.54L508.64,5356.88C508.64,5356.88 513.581,5352.47 518.521,5348.07C521.005,5345.88 523.649,5343.88 525.563,5342.29C527.497,5340.74 528.782,5339.69 528.782,5339.69Z" style="fill:rgb(240,241,241);fill-rule:nonzero;"/>
            <path d="M561.009,5316.91L554.977,5307.27C554.977,5307.27 549.268,5311.04 543.561,5314.79C542.142,5315.74 540.69,5316.65 539.388,5317.58C538.092,5318.53 536.881,5319.41 535.846,5320.16C533.776,5321.68 532.393,5322.68 532.393,5322.68L539.111,5331.86C539.111,5331.86 540.449,5330.88 542.458,5329.41C543.46,5328.68 544.632,5327.83 545.885,5326.91C547.148,5326.01 548.555,5325.14 549.935,5324.21C555.472,5320.56 561.009,5316.91 561.009,5316.91Z" style="fill:rgb(240,241,241);fill-rule:nonzero;"/>
            <path d="M595.563,5297.71L590.514,5287.53C590.514,5287.53 590.133,5287.71 589.456,5288.03C588.786,5288.35 587.815,5288.79 586.692,5289.41C584.434,5290.61 581.422,5292.21 578.408,5293.81C575.403,5295.44 572.363,5296.99 570.143,5298.27C567.939,5299.58 566.471,5300.45 566.471,5300.45L572.174,5310.29C572.174,5310.29 573.6,5309.44 575.742,5308.17C577.897,5306.92 580.859,5305.42 583.782,5303.84C586.712,5302.28 589.642,5300.72 591.842,5299.55C592.93,5298.95 593.874,5298.52 594.534,5298.2C595.192,5297.89 595.563,5297.71 595.563,5297.71Z" style="fill:rgb(240,241,241);fill-rule:nonzero;"/>
            <path d="M631.813,5281.76L627.679,5271.16C627.679,5271.16 627.278,5271.31 626.585,5271.57C625.889,5271.84 624.876,5272.17 623.704,5272.68C621.351,5273.68 618.209,5275.01 615.075,5276.33C611.937,5277.66 608.799,5278.99 606.445,5279.99C605.264,5280.47 604.319,5280.98 603.639,5281.28C602.965,5281.6 602.581,5281.78 602.581,5281.78L607.317,5292.12C607.317,5292.12 607.695,5291.94 608.35,5291.63C609.014,5291.33 609.928,5290.84 611.084,5290.36C613.379,5289.39 616.442,5288.1 619.505,5286.8C622.568,5285.51 625.631,5284.21 627.926,5283.24C629.069,5282.74 630.065,5282.42 630.742,5282.15C631.422,5281.9 631.813,5281.76 631.813,5281.76Z" style="fill:rgb(240,241,241);fill-rule:nonzero;"/>
            <path d="M669.3,5268.78L665.993,5257.89C665.993,5257.89 665.586,5258.01 664.87,5258.22C664.163,5258.44 663.151,5258.78 661.94,5259.17C659.512,5259.97 656.282,5261.03 653.043,5262.09C649.811,5263.14 646.579,5264.21 644.153,5265C641.758,5265.9 640.166,5266.49 640.166,5266.49L644.017,5277.19C644.017,5277.19 645.576,5276.61 647.913,5275.74C650.286,5274.96 653.454,5273.92 656.618,5272.88C659.785,5271.84 662.949,5270.81 665.325,5270.03C666.517,5269.64 667.503,5269.32 668.193,5269.09C668.896,5268.89 669.3,5268.78 669.3,5268.78Z" style="fill:rgb(240,241,241);fill-rule:nonzero;"/>
            <path d="M707.702,5258.59L705.14,5247.51C705.14,5247.51 698.542,5249.12 691.934,5250.73C690.283,5251.13 688.633,5251.54 687.086,5251.91C685.543,5252.31 684.121,5252.75 682.894,5253.09C680.436,5253.78 678.802,5254.25 678.802,5254.25L681.855,5265.2C681.855,5265.2 683.46,5264.75 685.866,5264.06C687.07,5263.73 688.467,5263.3 689.977,5262.91C691.497,5262.54 693.122,5262.15 694.739,5261.75C701.221,5260.17 707.702,5258.59 707.702,5258.59Z" style="fill:rgb(240,241,241);fill-rule:nonzero;"/>
            <path d="M746.712,5250.83L744.801,5239.62C744.801,5239.62 743.128,5239.91 740.618,5240.33C738.112,5240.79 734.752,5241.27 731.426,5241.95C724.778,5243.32 718.128,5244.69 718.128,5244.69L720.469,5255.81C720.469,5255.81 727.008,5254.47 733.548,5253.13C736.819,5252.45 740.13,5251.98 742.598,5251.54C745.065,5251.11 746.712,5250.83 746.712,5250.83Z" style="fill:rgb(240,241,241);fill-rule:nonzero;"/>
            <path d="M1005.11,6134.97C973.917,6107.42 988.102,6043.13 988.102,6043.13L941.607,6043.13L895.118,6043.13C895.118,6043.13 909.299,6107.42 878.103,6134.97C846.905,6162.52 810.459,6162.52 810.459,6162.52L810.459,6178.01L1072.75,6178.01L1072.75,6162.52C1072.75,6162.52 1036.31,6162.52 1005.11,6134.97Z" style="fill:rgb(165,165,165);fill-rule:nonzero;"/>
            <rect x="810.459" y="6162.52" width="262.291" height="15.49" style="fill:rgb(192,192,192);fill-rule:nonzero;"/>
            <path d="M1288.28,6001.8C1288.28,6024.63 1269.78,6043.13 1246.96,6043.13L636.259,6043.13C613.438,6043.13 594.935,6024.63 594.935,6001.8L594.935,5664.32C594.935,5641.5 613.438,5622.99 636.259,5622.99L1246.96,5622.99C1269.78,5622.99 1288.28,5641.5 1288.28,5664.32L1288.28,6001.8Z" style="fill:rgb(205,204,204);fill-rule:nonzero;"/>
            <path d="M594.935,5664.32L594.935,6001.8C594.935,6009.82 597.256,6017.29 601.207,6023.62L1282.01,6023.62C1285.96,6017.29 1288.28,6009.82 1288.28,6001.8L1288.28,5664.32C1288.28,5653.62 1284.18,5643.91 1277.51,5636.56L605.703,5636.56C599.032,5643.91 594.935,5653.62 594.935,5664.32Z" style="fill:rgb(32,54,102);fill-rule:nonzero;"/>
            <rect x="624.775" y="5650.55" width="633.665" height="358.72" style="fill:rgb(226,226,226);fill-rule:nonzero;"/>
            <rect x="663.125" y="5731.18" width="99.463" height="92.01" style="fill:rgb(240,91,120);fill-rule:nonzero;"/>
            <rect x="902.444" y="5731.18" width="99.456" height="92.01" style="fill:rgb(244,236,84);fill-rule:nonzero;"/>
            <rect x="1114.91" y="5731.18" width="99.46" height="92.01" style="fill:rgb(245,150,37);fill-rule:nonzero;"/>
            <rect x="663.125" y="5842.49" width="159.463" height="6.71" style="fill:rgb(174,198,68);fill-rule:nonzero;"/>
            <rect x="663.125" y="5862.6" width="159.463" height="6.71" style="fill:rgb(242,174,27);fill-rule:nonzero;"/>
            <rect x="663.125" y="5881.23" width="159.463" height="6.7" style="fill:rgb(222,66,38);fill-rule:nonzero;"/>
            <rect x="820.104" y="5923.69" width="130.908" height="6.7" style="fill:rgb(242,174,27);fill-rule:nonzero;"/>
            <rect x="683.112" y="5923.69" width="120.817" height="6.7" style="fill:rgb(174,198,68);fill-rule:nonzero;"/>
            <rect x="683.112" y="5942.32" width="120.817" height="6.7" style="fill:rgb(242,174,27);fill-rule:nonzero;"/>
            <rect x="820.104" y="5942.32" width="61.478" height="6.7" style="fill:rgb(174,198,68);fill-rule:nonzero;"/>
            <rect x="683.112" y="5978.36" width="120.817" height="6.7" style="fill:rgb(174,198,68);fill-rule:nonzero;"/>
            <rect x="820.104" y="5978.36" width="61.478" height="6.7" style="fill:rgb(242,174,27);fill-rule:nonzero;"/>
            <rect x="952.383" y="5960.2" width="43.951" height="6.7" style="fill:rgb(242,174,27);fill-rule:nonzero;"/>
            <rect x="683.112" y="5902.08" width="260.996" height="6.71" style="fill:rgb(189,223,223);fill-rule:nonzero;"/>
            <rect x="683.112" y="5960.2" width="260.996" height="6.7" style="fill:rgb(189,223,223);fill-rule:nonzero;"/>
            <rect x="952.383" y="5999.68" width="43.951" height="6.71" style="fill:rgb(174,198,68);fill-rule:nonzero;"/>
            <rect x="683.112" y="5999.68" width="260.996" height="6.71" style="fill:rgb(174,198,68);fill-rule:nonzero;"/>
            <rect x="1127.91" y="5926.01" width="105.85" height="6.7" style="fill:rgb(242,174,27);fill-rule:nonzero;"/>
            <rect x="1017.15" y="5926.01" width="97.69" height="6.7" style="fill:rgb(174,198,68);fill-rule:nonzero;"/>
            <rect x="1017.15" y="5944.63" width="97.69" height="6.71" style="fill:rgb(242,174,27);fill-rule:nonzero;"/>
            <rect x="1127.91" y="5944.63" width="49.71" height="6.71" style="fill:rgb(174,198,68);fill-rule:nonzero;"/>
            <rect x="1017.15" y="5980.68" width="97.69" height="6.7" style="fill:rgb(174,198,68);fill-rule:nonzero;"/>
            <rect x="1127.91" y="5980.68" width="49.71" height="6.7" style="fill:rgb(242,174,27);fill-rule:nonzero;"/>
            <rect x="1017.15" y="5904.41" width="211.03" height="6.71" style="fill:rgb(189,223,223);fill-rule:nonzero;"/>
            <rect x="1017.15" y="5962.51" width="211.03" height="6.71" style="fill:rgb(189,223,223);fill-rule:nonzero;"/>
            <rect x="1017.15" y="6002" width="211.03" height="6.7" style="fill:rgb(174,198,68);fill-rule:nonzero;"/>
            <rect x="624.889" y="5650.3" width="633.941" height="62.79" style="fill:rgb(52,73,94);fill-rule:nonzero;"/>
            <path d="M952.174,5677.13C952.174,5684.86 945.963,5691.13 938.304,5691.13L665.192,5691.13C657.529,5691.13 651.318,5684.86 651.318,5677.13C651.318,5669.41 657.529,5663.14 665.192,5663.14L938.304,5663.14C945.963,5663.14 952.174,5669.41 952.174,5677.13Z" style="fill:rgb(226,225,224);fill-rule:nonzero;"/>
            <path d="M1173.6,5672.17C1173.6,5677.17 1169.59,5681.22 1164.64,5681.22C1159.69,5681.22 1155.68,5677.17 1155.68,5672.17C1155.68,5667.19 1159.69,5663.14 1164.64,5663.14C1169.59,5663.14 1173.6,5667.19 1173.6,5672.17Z" style="fill:rgb(241,98,82);fill-rule:nonzero;"/>
            <path d="M1203.21,5672.17C1203.21,5677.17 1199.2,5681.22 1194.25,5681.22C1189.3,5681.22 1185.29,5677.17 1185.29,5672.17C1185.29,5667.19 1189.3,5663.14 1194.25,5663.14C1199.2,5663.14 1203.21,5667.19 1203.21,5672.17Z" style="fill:rgb(144,202,109);fill-rule:nonzero;"/>
            <path d="M1234.07,5672.17C1234.07,5677.17 1230.06,5681.22 1225.11,5681.22C1220.16,5681.22 1216.15,5677.17 1216.15,5672.17C1216.15,5667.19 1220.16,5663.14 1225.11,5663.14C1230.06,5663.14 1234.07,5667.19 1234.07,5672.17Z" style="fill:rgb(108,97,171);fill-rule:nonzero;"/>
            <path d="M1338.52,6153.3C1338.52,6159.47 1333.51,6164.47 1327.34,6164.47L1160.26,6164.47C1154.1,6164.47 1149.09,6159.47 1149.09,6153.3L1149.09,5846.06C1149.09,5839.89 1154.1,5834.89 1160.26,5834.89L1327.34,5834.89C1333.51,5834.89 1338.52,5839.89 1338.52,5846.06L1338.52,6153.3Z" style="fill:rgb(10,45,68);"/>
            <path d="M1166.56,6099.3L1166.56,5873.99L1166.59,5873.99L1166.59,5901.15L1299.13,5901.15L1293.56,5909.09L1286.02,5909.09L1286.02,5919.85L1240.92,5984.17L1180.77,5984.17L1180.77,5987.11L1238.86,5987.11L1234.26,5993.66L1214.17,5993.66L1214.17,5996.6L1232.2,5996.6L1228.53,6001.84L1214.17,6001.84L1214.17,6004.78L1226.47,6004.78L1223.02,6009.69L1180.77,6009.69L1180.77,6012.63L1220.96,6012.63L1217.43,6017.67L1214.17,6017.67L1214.17,6020.61L1215.36,6020.61L1210.86,6027.03L1180.77,6027.03L1180.77,6029.97L1208.8,6029.97L1166.56,6090.21L1166.56,6099.3Z" style="fill:rgb(206,213,218);fill-rule:nonzero;"/>
            <rect x="1175.9" y="5909.09" width="24.25" height="40.42" style="fill:rgb(240,91,120);fill-rule:nonzero;"/>
            <rect x="1234.23" y="5909.09" width="24.25" height="40.42" style="fill:rgb(244,236,84);fill-rule:nonzero;"/>
            <rect x="1286.02" y="5909.09" width="24.24" height="40.42" style="fill:rgb(245,150,37);fill-rule:nonzero;"/>
            <rect x="1175.9" y="5957.99" width="38.87" height="2.94" style="fill:rgb(174,198,68);fill-rule:nonzero;"/>
            <rect x="1175.9" y="5966.82" width="38.87" height="2.95" style="fill:rgb(242,174,27);fill-rule:nonzero;"/>
            <rect x="1175.9" y="5975.01" width="38.87" height="2.94" style="fill:rgb(222,66,38);fill-rule:nonzero;"/>
            <rect x="1214.17" y="5993.66" width="31.91" height="2.94" style="fill:rgb(242,174,27);fill-rule:nonzero;"/>
            <rect x="1180.77" y="5993.66" width="29.45" height="2.94" style="fill:rgb(174,198,68);fill-rule:nonzero;"/>
            <rect x="1180.77" y="6001.84" width="29.45" height="2.94" style="fill:rgb(242,174,27);fill-rule:nonzero;"/>
            <rect x="1214.17" y="6001.84" width="14.98" height="2.94" style="fill:rgb(174,198,68);fill-rule:nonzero;"/>
            <rect x="1180.77" y="6017.67" width="29.45" height="2.94" style="fill:rgb(174,198,68);fill-rule:nonzero;"/>
            <rect x="1214.17" y="6017.67" width="14.98" height="2.94" style="fill:rgb(242,174,27);fill-rule:nonzero;"/>
            <rect x="1246.41" y="6009.69" width="10.71" height="2.94" style="fill:rgb(242,174,27);fill-rule:nonzero;"/>
            <rect x="1180.77" y="5984.17" width="63.62" height="2.94" style="fill:rgb(189,223,223);fill-rule:nonzero;"/>
            <rect x="1180.77" y="6009.69" width="63.62" height="2.94" style="fill:rgb(189,223,223);fill-rule:nonzero;"/>
            <rect x="1246.41" y="6027.03" width="10.71" height="2.94" style="fill:rgb(174,198,68);fill-rule:nonzero;"/>
            <rect x="1180.77" y="6027.03" width="63.62" height="2.94" style="fill:rgb(174,198,68);fill-rule:nonzero;"/>
            <rect x="1289.19" y="5994.67" width="25.8" height="2.95" style="fill:rgb(242,174,27);fill-rule:nonzero;"/>
            <rect x="1262.19" y="5994.67" width="23.81" height="2.95" style="fill:rgb(174,198,68);fill-rule:nonzero;"/>
            <rect x="1262.19" y="6002.86" width="23.81" height="2.94" style="fill:rgb(242,174,27);fill-rule:nonzero;"/>
            <rect x="1289.19" y="6002.86" width="12.11" height="2.94" style="fill:rgb(174,198,68);fill-rule:nonzero;"/>
            <rect x="1262.19" y="6018.69" width="23.81" height="2.94" style="fill:rgb(174,198,68);fill-rule:nonzero;"/>
            <rect x="1289.19" y="6018.69" width="12.11" height="2.94" style="fill:rgb(242,174,27);fill-rule:nonzero;"/>
            <rect x="1262.19" y="5985.18" width="51.44" height="2.95" style="fill:rgb(189,223,223);fill-rule:nonzero;"/>
            <rect x="1262.19" y="6010.71" width="51.44" height="2.94" style="fill:rgb(189,223,223);fill-rule:nonzero;"/>
            <rect x="1262.19" y="6028.05" width="51.44" height="2.95" style="fill:rgb(174,198,68);fill-rule:nonzero;"/>
            <rect x="1166.59" y="5873.57" width="154.51" height="27.58" style="fill:rgb(52,73,94);fill-rule:nonzero;"/>
            <path d="M1246.36,5885.36C1246.36,5888.76 1244.84,5891.5 1242.98,5891.5L1176.41,5891.5C1174.54,5891.5 1173.03,5888.76 1173.03,5885.36C1173.03,5881.97 1174.54,5879.21 1176.41,5879.21L1242.98,5879.21C1244.84,5879.21 1246.36,5881.97 1246.36,5885.36Z" style="fill:rgb(226,225,224);fill-rule:nonzero;"/>
            <path d="M1300.33,5883.18C1300.33,5885.37 1299.35,5887.15 1298.14,5887.15C1296.94,5887.15 1295.96,5885.37 1295.96,5883.18C1295.96,5880.99 1296.94,5879.21 1298.14,5879.21C1299.35,5879.21 1300.33,5880.99 1300.33,5883.18Z" style="fill:rgb(241,98,82);fill-rule:nonzero;"/>
            <path d="M1307.54,5883.18C1307.54,5885.37 1306.57,5887.15 1305.36,5887.15C1304.15,5887.15 1303.18,5885.37 1303.18,5883.18C1303.18,5880.99 1304.15,5879.21 1305.36,5879.21C1306.57,5879.21 1307.54,5880.99 1307.54,5883.18Z" style="fill:rgb(144,202,109);fill-rule:nonzero;"/>
            <path d="M1315.07,5883.18C1315.07,5885.37 1314.09,5887.15 1312.88,5887.15C1311.67,5887.15 1310.7,5885.37 1310.7,5883.18C1310.7,5880.99 1311.67,5879.21 1312.88,5879.21C1314.09,5879.21 1315.07,5880.99 1315.07,5883.18Z" style="fill:rgb(108,97,171);fill-rule:nonzero;"/>
            <path d="M1321.05,6099.3L1166.56,6099.3L1166.56,6090.21L1208.8,6029.97L1244.39,6029.97L1244.39,6027.03L1210.86,6027.03L1215.36,6020.61L1229.15,6020.61L1229.15,6017.67L1217.43,6017.67L1220.96,6012.63L1244.39,6012.63L1244.39,6009.69L1223.02,6009.69L1226.47,6004.78L1229.15,6004.78L1229.15,6001.84L1228.53,6001.84L1232.2,5996.6L1246.08,5996.6L1246.08,5993.66L1234.26,5993.66L1238.86,5987.11L1244.39,5987.11L1244.39,5984.17L1240.92,5984.17L1286.02,5919.85L1286.02,5949.51L1310.26,5949.51L1310.26,5909.09L1293.56,5909.09L1299.13,5901.15L1321.05,5901.15L1321.05,6099.3ZM1262.19,6028.05L1262.19,6031L1313.63,6031L1313.63,6028.05L1262.19,6028.05ZM1246.41,6027.03L1246.41,6029.97L1257.12,6029.97L1257.12,6027.03L1246.41,6027.03ZM1289.19,6018.69L1289.19,6021.63L1301.3,6021.63L1301.3,6018.69L1289.19,6018.69ZM1262.19,6018.69L1262.19,6021.63L1286,6021.63L1286,6018.69L1262.19,6018.69ZM1262.19,6010.71L1262.19,6013.65L1313.63,6013.65L1313.63,6010.71L1262.19,6010.71ZM1246.41,6009.69L1246.41,6012.63L1257.12,6012.63L1257.12,6009.69L1246.41,6009.69ZM1289.19,6002.86L1289.19,6005.8L1301.3,6005.8L1301.3,6002.86L1289.19,6002.86ZM1262.19,6002.86L1262.19,6005.8L1286,6005.8L1286,6002.86L1262.19,6002.86ZM1289.19,5994.67L1289.19,5997.62L1314.99,5997.62L1314.99,5994.67L1289.19,5994.67ZM1262.19,5994.67L1262.19,5997.62L1286,5997.62L1286,5994.67L1262.19,5994.67ZM1262.19,5985.18L1262.19,5988.13L1313.63,5988.13L1313.63,5985.18L1262.19,5985.18Z" style="fill:rgb(185,191,196);fill-rule:nonzero;"/>
            <path d="M1310.26,5949.51L1286.02,5949.51L1286.02,5919.85L1293.56,5909.09L1310.26,5909.09L1310.26,5949.51Z" style="fill:rgb(220,136,39);fill-rule:nonzero;"/>
            <path d="M1246.08,5996.6L1232.2,5996.6L1234.26,5993.66L1246.08,5993.66L1246.08,5996.6Z" style="fill:rgb(218,157,40);fill-rule:nonzero;"/>
            <path d="M1229.15,6004.78L1226.47,6004.78L1228.53,6001.84L1229.15,6001.84L1229.15,6004.78Z" style="fill:rgb(157,179,63);fill-rule:nonzero;"/>
            <path d="M1229.15,6020.61L1215.36,6020.61L1217.43,6017.67L1229.15,6017.67L1229.15,6020.61Z" style="fill:rgb(218,157,40);fill-rule:nonzero;"/>
            <rect x="1246.41" y="6009.69" width="10.71" height="2.94" style="fill:rgb(218,157,40);fill-rule:nonzero;"/>
            <path d="M1244.39,5987.11L1238.86,5987.11L1240.92,5984.17L1244.39,5984.17L1244.39,5987.11Z" style="fill:rgb(168,199,199);fill-rule:nonzero;"/>
            <path d="M1244.39,6012.63L1220.96,6012.63L1223.02,6009.69L1244.39,6009.69L1244.39,6012.63Z" style="fill:rgb(168,199,199);fill-rule:nonzero;"/>
            <rect x="1246.41" y="6027.03" width="10.71" height="2.94" style="fill:rgb(157,179,63);fill-rule:nonzero;"/>
            <path d="M1244.39,6029.97L1208.8,6029.97L1210.86,6027.03L1244.39,6027.03L1244.39,6029.97Z" style="fill:rgb(157,179,63);fill-rule:nonzero;"/>
            <rect x="1289.19" y="5994.67" width="25.8" height="2.95" style="fill:rgb(218,157,40);fill-rule:nonzero;"/>
            <rect x="1262.19" y="5994.67" width="23.81" height="2.95" style="fill:rgb(157,179,63);fill-rule:nonzero;"/>
            <rect x="1262.19" y="6002.86" width="23.81" height="2.94" style="fill:rgb(218,157,40);fill-rule:nonzero;"/>
            <rect x="1289.19" y="6002.86" width="12.11" height="2.94" style="fill:rgb(157,179,63);fill-rule:nonzero;"/>
            <rect x="1262.19" y="6018.69" width="23.81" height="2.94" style="fill:rgb(157,179,63);fill-rule:nonzero;"/>
            <rect x="1289.19" y="6018.69" width="12.11" height="2.94" style="fill:rgb(218,157,40);fill-rule:nonzero;"/>
            <rect x="1262.19" y="5985.18" width="51.44" height="2.95" style="fill:rgb(168,199,199);fill-rule:nonzero;"/>
            <rect x="1262.19" y="6010.71" width="51.44" height="2.94" style="fill:rgb(168,199,199);fill-rule:nonzero;"/>
            <rect x="1262.19" y="6028.05" width="51.44" height="2.95" style="fill:rgb(157,179,63);fill-rule:nonzero;"/>
            <path d="M1321.05,5901.15L1299.13,5901.15L1310.82,5884.48C1311.11,5886.03 1311.92,5887.15 1312.88,5887.15C1314.09,5887.15 1315.07,5885.37 1315.07,5883.18C1315.07,5881.78 1314.67,5880.56 1314.07,5879.85L1318.18,5873.99L1321.05,5873.99L1321.05,5901.15Z" style="fill:rgb(46,66,84);fill-rule:nonzero;"/>
            <path d="M1312.88,5887.15C1311.92,5887.15 1311.11,5886.03 1310.82,5884.48L1314.07,5879.85C1314.67,5880.56 1315.07,5881.78 1315.07,5883.18C1315.07,5885.37 1314.09,5887.15 1312.88,5887.15Z" style="fill:rgb(103,92,168);fill-rule:nonzero;"/>
            <path d="M979.04,5409C979.04,5418.82 973.584,5426.78 966.851,5426.78L673.359,5426.78C666.628,5426.78 661.173,5418.82 661.173,5409L661.173,5093.55C661.173,5083.74 666.628,5075.79 673.359,5075.79L966.851,5075.79C973.584,5075.79 979.04,5083.74 979.04,5093.55L979.04,5409Z" style="fill:rgb(237,242,243);fill-rule:nonzero;"/>
            <path d="M928.597,5033.2C928.597,5036.86 925.87,5039.84 922.507,5039.84C919.141,5039.84 916.413,5036.86 916.413,5033.2C916.413,5029.53 919.141,5026.55 922.507,5026.55C925.87,5026.55 928.597,5029.53 928.597,5033.2Z" style="fill:rgb(241,98,82);fill-rule:nonzero;"/>
            <path d="M948.743,5033.2C948.743,5036.86 946.015,5039.84 942.648,5039.84C939.284,5039.84 936.556,5036.86 936.556,5033.2C936.556,5029.53 939.284,5026.55 942.648,5026.55C946.015,5026.55 948.743,5029.53 948.743,5033.2Z" style="fill:rgb(144,202,109);fill-rule:nonzero;"/>
            <path d="M969.729,5033.2C969.729,5036.86 967.002,5039.84 963.635,5039.84C960.27,5039.84 957.543,5036.86 957.543,5033.2C957.543,5029.53 960.27,5026.55 963.635,5026.55C967.002,5026.55 969.729,5029.53 969.729,5033.2Z" style="fill:rgb(108,97,171);fill-rule:nonzero;"/>
            <path d="M881.67,5041.4C881.67,5047.08 877.444,5051.69 872.233,5051.69L686.475,5051.69C681.262,5051.69 677.038,5047.08 677.038,5041.4C677.038,5035.72 681.262,5031.11 686.475,5031.11L872.233,5031.11C877.444,5031.11 881.67,5035.72 881.67,5041.4Z" style="fill:rgb(226,225,224);fill-rule:nonzero;"/>
            <rect x="685.436" y="5126.05" width="67.65" height="67.65" style="fill:rgb(240,91,120);fill-rule:nonzero;"/>
            <rect x="786.278" y="5126.05" width="67.65" height="67.65" style="fill:rgb(244,236,84);fill-rule:nonzero;"/>
            <rect x="882.587" y="5126.05" width="67.65" height="67.65" style="fill:rgb(245,150,37);fill-rule:nonzero;"/>
            <rect x="689.469" y="5217.58" width="77.211" height="3.85" style="fill:rgb(174,198,68);fill-rule:nonzero;"/>
            <rect x="689.469" y="5229.1" width="77.211" height="3.84" style="fill:rgb(242,174,27);fill-rule:nonzero;"/>
            <rect x="689.469" y="5239.77" width="77.211" height="3.84" style="fill:rgb(222,66,38);fill-rule:nonzero;"/>
            <rect x="689.469" y="5338.87" width="77.211" height="3.84" style="fill:rgb(174,198,68);fill-rule:nonzero;"/>
            <rect x="689.469" y="5326.22" width="77.211" height="3.84" style="fill:rgb(174,198,68);fill-rule:nonzero;"/>
            <rect x="689.469" y="5351.95" width="77.211" height="3.84" style="fill:rgb(174,198,68);fill-rule:nonzero;"/>
            <rect x="781.612" y="5264.08" width="77.209" height="3.84" style="fill:rgb(242,174,27);fill-rule:nonzero;"/>
            <rect x="700.133" y="5264.08" width="77.214" height="3.84" style="fill:rgb(174,198,68);fill-rule:nonzero;"/>
            <rect x="700.133" y="5274.75" width="77.214" height="3.84" style="fill:rgb(242,174,27);fill-rule:nonzero;"/>
            <rect x="781.612" y="5274.75" width="36.255" height="3.84" style="fill:rgb(174,198,68);fill-rule:nonzero;"/>
            <rect x="700.133" y="5295.38" width="77.214" height="3.84" style="fill:rgb(174,198,68);fill-rule:nonzero;"/>
            <rect x="781.612" y="5295.38" width="36.255" height="3.84" style="fill:rgb(242,174,27);fill-rule:nonzero;"/>
            <rect x="873.753" y="5284.99" width="36.257" height="3.83" style="fill:rgb(242,174,27);fill-rule:nonzero;"/>
            <rect x="700.134" y="5251.71" width="166.792" height="3.84" style="fill:rgb(189,223,223);fill-rule:nonzero;"/>
            <rect x="700.134" y="5284.99" width="166.792" height="3.83" style="fill:rgb(189,223,223);fill-rule:nonzero;"/>
            <rect x="873.753" y="5307.59" width="36.257" height="3.84" style="fill:rgb(174,198,68);fill-rule:nonzero;"/>
            <rect x="700.134" y="5307.59" width="166.792" height="3.84" style="fill:rgb(174,198,68);fill-rule:nonzero;"/>
            <rect x="863.089" y="5362.62" width="36.257" height="3.84" style="fill:rgb(200,67,39);fill-rule:nonzero;"/>
            <rect x="689.469" y="5362.62" width="166.794" height="3.84" style="fill:rgb(107,181,206);fill-rule:nonzero;"/>
            <path d="M966.851,5426.78L918.322,5426.78L903.457,5426.78L820.104,5426.78L820.104,5366.46L856.263,5366.46L856.263,5362.62L820.104,5362.62L820.104,5311.43L866.926,5311.43L866.926,5307.59L820.104,5307.59L820.104,5288.82L866.926,5288.82L866.926,5284.99L820.104,5284.99L820.104,5267.92L858.821,5267.92L858.821,5264.08L820.104,5264.08L820.104,5255.55L866.926,5255.55L866.926,5251.71L820.104,5251.71L820.104,5193.7L853.928,5193.7L853.928,5126.05L820.104,5126.05L820.104,5098.87L979.04,5098.87L979.04,5409C979.04,5418.82 973.584,5426.78 966.851,5426.78ZM863.089,5362.62L863.089,5366.46L899.346,5366.46L899.346,5362.62L863.089,5362.62ZM873.753,5307.59L873.753,5311.43L910.01,5311.43L910.01,5307.59L873.753,5307.59ZM873.753,5284.99L873.753,5288.82L910.01,5288.82L910.01,5284.99L873.753,5284.99ZM882.587,5126.05L882.587,5193.7L950.237,5193.7L950.237,5126.05L882.587,5126.05Z" style="fill:rgb(213,217,216);fill-rule:nonzero;"/>
            <path d="M922.507,5039.84C919.141,5039.84 916.413,5036.86 916.413,5033.2C916.413,5029.53 919.141,5026.55 922.507,5026.55C925.87,5026.55 928.597,5029.53 928.597,5033.2C928.597,5036.86 925.87,5039.84 922.507,5039.84Z" style="fill:rgb(230,87,70);fill-rule:nonzero;"/>
            <path d="M942.648,5039.84C939.284,5039.84 936.556,5036.86 936.556,5033.2C936.556,5029.53 939.284,5026.55 942.648,5026.55C946.015,5026.55 948.743,5029.53 948.743,5033.2C948.743,5036.86 946.015,5039.84 942.648,5039.84Z" style="fill:rgb(125,196,102);fill-rule:nonzero;"/>
            <path d="M963.635,5039.84C960.27,5039.84 957.543,5036.86 957.543,5033.2C957.543,5029.53 960.27,5026.55 963.635,5026.55C967.002,5026.55 969.729,5029.53 969.729,5033.2C969.729,5036.86 967.002,5039.84 963.635,5039.84Z" style="fill:rgb(103,92,168);fill-rule:nonzero;"/>
            <path d="M872.233,5051.69L820.104,5051.69L820.104,5031.11L872.233,5031.11C877.444,5031.11 881.67,5035.72 881.67,5041.4C881.67,5047.08 877.444,5051.69 872.233,5051.69Z" style="fill:rgb(203,202,201);fill-rule:nonzero;"/>
            <rect x="820.104" y="5126.05" width="33.824" height="67.65" style="fill:rgb(224,225,66);fill-rule:nonzero;"/>
            <rect x="882.587" y="5126.05" width="67.65" height="67.65" style="fill:rgb(220,136,39);fill-rule:nonzero;"/>
            <rect x="820.104" y="5264.08" width="38.717" height="3.84" style="fill:rgb(218,157,40);fill-rule:nonzero;"/>
            <rect x="873.753" y="5284.99" width="36.257" height="3.83" style="fill:rgb(218,157,40);fill-rule:nonzero;"/>
            <rect x="820.104" y="5251.71" width="46.822" height="3.84" style="fill:rgb(168,199,199);fill-rule:nonzero;"/>
            <rect x="820.104" y="5284.99" width="46.822" height="3.83" style="fill:rgb(168,199,199);fill-rule:nonzero;"/>
            <rect x="873.753" y="5307.59" width="36.257" height="3.84" style="fill:rgb(157,179,63);fill-rule:nonzero;"/>
            <rect x="820.104" y="5307.59" width="46.822" height="3.84" style="fill:rgb(157,179,63);fill-rule:nonzero;"/>
            <rect x="863.089" y="5362.62" width="36.257" height="3.84" style="fill:rgb(180,60,37);fill-rule:nonzero;"/>
            <rect x="820.104" y="5362.62" width="36.159" height="3.84" style="fill:rgb(95,163,185);fill-rule:nonzero;"/>
            <path d="M719.134,6085.12C719.134,6122.76 714.176,6120.61 676.543,6120.61L237.878,6120.61C200.244,6120.61 196.709,6117.08 196.709,6079.45L196.709,5785.58C196.709,5747.94 204.502,5745.83 242.139,5745.83L663.766,5745.4C701.399,5745.4 718.756,5737.92 718.756,5775.55L719.134,6085.12Z" style="fill:rgb(52,73,94);fill-rule:nonzero;"/>
            <rect x="229.108" y="5780.73" width="457.623" height="303.97" style="fill:rgb(237,238,238);fill-rule:nonzero;"/>
            <rect x="256.709" y="5843.85" width="71.8" height="71.79" style="fill:rgb(240,91,120);fill-rule:nonzero;"/>
            <rect x="429.466" y="5843.85" width="71.801" height="71.79" style="fill:rgb(244,236,84);fill-rule:nonzero;"/>
            <rect x="582.842" y="5843.85" width="71.797" height="71.79" style="fill:rgb(245,150,37);fill-rule:nonzero;"/>
            <rect x="256.709" y="5930.71" width="115.114" height="5.23" style="fill:rgb(174,198,68);fill-rule:nonzero;"/>
            <rect x="256.709" y="5946.4" width="115.114" height="5.23" style="fill:rgb(242,174,27);fill-rule:nonzero;"/>
            <rect x="256.709" y="5960.94" width="115.114" height="5.23" style="fill:rgb(222,66,38);fill-rule:nonzero;"/>
            <rect x="370.029" y="5994.07" width="94.499" height="5.23" style="fill:rgb(242,174,27);fill-rule:nonzero;"/>
            <rect x="271.136" y="5994.07" width="87.217" height="5.23" style="fill:rgb(174,198,68);fill-rule:nonzero;"/>
            <rect x="271.136" y="6008.6" width="87.217" height="5.23" style="fill:rgb(242,174,27);fill-rule:nonzero;"/>
            <rect x="370.029" y="6008.6" width="44.378" height="5.23" style="fill:rgb(174,198,68);fill-rule:nonzero;"/>
            <rect x="271.136" y="6036.72" width="87.217" height="5.24" style="fill:rgb(174,198,68);fill-rule:nonzero;"/>
            <rect x="370.029" y="6036.72" width="44.378" height="5.24" style="fill:rgb(242,174,27);fill-rule:nonzero;"/>
            <rect x="465.515" y="6022.55" width="31.728" height="5.24" style="fill:rgb(242,174,27);fill-rule:nonzero;"/>
            <rect x="271.136" y="5977.21" width="188.408" height="5.24" style="fill:rgb(189,223,223);fill-rule:nonzero;"/>
            <rect x="271.136" y="6022.55" width="188.408" height="5.24" style="fill:rgb(189,223,223);fill-rule:nonzero;"/>
            <rect x="465.515" y="6053.37" width="31.728" height="5.22" style="fill:rgb(174,198,68);fill-rule:nonzero;"/>
            <rect x="271.136" y="6053.37" width="188.408" height="5.22" style="fill:rgb(174,198,68);fill-rule:nonzero;"/>
            <rect x="592.229" y="5995.88" width="76.41" height="5.23" style="fill:rgb(242,174,27);fill-rule:nonzero;"/>
            <rect x="512.271" y="5995.88" width="70.519" height="5.23" style="fill:rgb(174,198,68);fill-rule:nonzero;"/>
            <rect x="512.271" y="6010.42" width="70.519" height="5.22" style="fill:rgb(242,174,27);fill-rule:nonzero;"/>
            <rect x="592.229" y="6010.42" width="35.879" height="5.22" style="fill:rgb(174,198,68);fill-rule:nonzero;"/>
            <rect x="512.271" y="6038.54" width="70.519" height="5.23" style="fill:rgb(174,198,68);fill-rule:nonzero;"/>
            <rect x="592.229" y="6038.54" width="35.879" height="5.23" style="fill:rgb(242,174,27);fill-rule:nonzero;"/>
            <rect x="512.271" y="5979.02" width="152.335" height="5.24" style="fill:rgb(189,223,223);fill-rule:nonzero;"/>
            <rect x="512.271" y="6024.36" width="152.335" height="5.24" style="fill:rgb(189,223,223);fill-rule:nonzero;"/>
            <rect x="512.271" y="6055.18" width="152.335" height="5.23" style="fill:rgb(174,198,68);fill-rule:nonzero;"/>
            <rect x="229.108" y="5780.73" width="457.623" height="49" style="fill:rgb(52,73,94);fill-rule:nonzero;"/>
            <path d="M465.368,5801.68C465.368,5807.71 460.886,5812.6 455.354,5812.6L258.2,5812.6C252.669,5812.6 248.184,5807.71 248.184,5801.68C248.184,5795.65 252.669,5790.75 258.2,5790.75L455.354,5790.75C460.886,5790.75 465.368,5795.65 465.368,5801.68Z" style="fill:rgb(226,225,224);fill-rule:nonzero;"/>
            <path d="M625.205,5797.81C625.205,5801.71 622.311,5804.86 618.74,5804.86C615.169,5804.86 612.272,5801.71 612.272,5797.81C612.272,5793.92 615.169,5790.75 618.74,5790.75C622.311,5790.75 625.205,5793.92 625.205,5797.81Z" style="fill:rgb(241,98,82);fill-rule:nonzero;"/>
            <path d="M646.585,5797.81C646.585,5801.71 643.688,5804.86 640.117,5804.86C636.546,5804.86 633.649,5801.71 633.649,5797.81C633.649,5793.92 636.546,5790.75 640.117,5790.75C643.688,5790.75 646.585,5793.92 646.585,5797.81Z" style="fill:rgb(144,202,109);fill-rule:nonzero;"/>
            <path d="M668.86,5797.81C668.86,5801.71 665.967,5804.86 662.393,5804.86C658.821,5804.86 655.924,5801.71 655.924,5797.81C655.924,5793.92 658.821,5790.75 662.393,5790.75C665.967,5790.75 668.86,5793.92 668.86,5797.81Z" style="fill:rgb(108,97,171);fill-rule:nonzero;"/>
        </g>
    </g>
</svg>
